SplineFontDB: 3.2
FontName: m6x11plus
FullName: m6x11plus Regular
FamilyName: m6x11plus
Weight: Book
Copyright: (c)
Version: 1.0
ItalicAngle: 0
UnderlinePosition: 77
UnderlineWidth: 51
Ascent: 768
Descent: 256
InvalidEm: 0
sfntRevision: 0x00010000
LayerCount: 2
Layer: 0 1 "Back" 1
Layer: 1 1 "Fore" 0
XUID: [1021 169 885856952 12843]
StyleMap: 0x0040
FSType: 4
OS2Version: 2
OS2_WeightWidthSlopeOnly: 0
OS2_UseTypoMetrics: 0
CreationTime: 2505240
ModificationTime: 1737766841
PfmFamily: 81
TTFWeight: 400
TTFWidth: 5
LineGap: 0
VLineGap: 0
Panose: 0 0 4 0 0 0 0 0 0 0
OS2TypoAscent: 768
OS2TypoAOffset: 0
OS2TypoDescent: -256
OS2TypoDOffset: 0
OS2TypoLinegap: 0
OS2WinAscent: 768
OS2WinAOffset: 0
OS2WinDescent: 256
OS2WinDOffset: 0
HheadAscent: 768
HheadAOffset: 0
HheadDescent: -256
HheadDOffset: 0
OS2SubXSize: 512
OS2SubYSize: 512
OS2SubXOff: 0
OS2SubYOff: -128
OS2SupXSize: 512
OS2SupYSize: 512
OS2SupXOff: 0
OS2SupYOff: 512
OS2StrikeYSize: 51
OS2StrikeYPos: 204
OS2CapHeight: 576
OS2XHeight: 384
OS2Vendor: 'YAL.'
OS2CodePages: 200101ff.cdff0000
OS2UnicodeRanges: 00000007.00000000.00000000.00000000
DEI: 91125
ShortTable: maxp 16
  1
  0
  226
  68
  8
  0
  0
  2
  0
  0
  0
  0
  0
  0
  0
  0
EndShort
LangName: 1033 "" "" "Regular" "m6x11plus" "" "Version 1.0" "" "" "" "Daniel Linssen" "An extended version of m6x11" "" "" "Free to use with attribution"
Encoding: UnicodeBmp
UnicodeInterp: none
NameList: AGL For New Fonts
DisplaySize: -48
AntiAlias: 1
FitToEm: 0
WinInfo: 8658 39 14
BeginChars: 65537 227

StartChar: exclam
Encoding: 33 33 3
Width: 192
GlyphClass: 1
Flags: W
LayerCount: 2
Fore
SplineSet
0 576 m 1,0,-1
 128 576 l 1,1,-1
 128 64 l 1,2,-1
 0 64 l 1,3,-1
 0 576 l 1,0,-1
0 0 m 1,4,-1
 128 0 l 1,5,-1
 128 -128 l 1,6,-1
 0 -128 l 1,7,-1
 0 0 l 1,4,-1
EndSplineSet
Validated: 1
EndChar

StartChar: quotedbl
Encoding: 34 34 4
Width: 384
GlyphClass: 1
Flags: W
LayerCount: 2
Fore
SplineSet
0 576 m 1,0,-1
 128 576 l 1,1,-1
 128 384 l 1,2,-1
 64 384 l 1,3,-1
 64 448 l 1,4,-1
 0 448 l 1,5,-1
 0 576 l 1,0,-1
192 576 m 1,6,-1
 320 576 l 1,7,-1
 320 384 l 1,8,-1
 256 384 l 1,9,-1
 256 448 l 1,10,-1
 192 448 l 1,11,-1
 192 576 l 1,6,-1
EndSplineSet
Validated: 1
EndChar

StartChar: numbersign
Encoding: 35 35 5
Width: 512
GlyphClass: 1
Flags: W
LayerCount: 2
Fore
SplineSet
64 576 m 1,0,-1
 192 576 l 1,1,-1
 192 384 l 1,2,-1
 256 384 l 1,3,-1
 256 576 l 1,4,-1
 384 576 l 1,5,-1
 384 384 l 1,6,-1
 448 384 l 1,7,-1
 448 256 l 1,8,-1
 384 256 l 1,9,-1
 384 192 l 1,10,-1
 448 192 l 1,11,-1
 448 64 l 1,12,-1
 384 64 l 1,13,-1
 384 -128 l 1,14,-1
 256 -128 l 1,15,-1
 256 64 l 1,16,-1
 192 64 l 1,17,-1
 192 -128 l 1,18,-1
 64 -128 l 1,19,-1
 64 64 l 1,20,-1
 0 64 l 1,21,-1
 0 192 l 1,22,-1
 64 192 l 1,23,-1
 64 256 l 1,24,-1
 0 256 l 1,25,-1
 0 384 l 1,26,-1
 64 384 l 1,27,-1
 64 576 l 1,0,-1
192 256 m 1,28,-1
 192 192 l 1,29,-1
 256 192 l 1,30,-1
 256 256 l 1,31,-1
 192 256 l 1,28,-1
EndSplineSet
Validated: 1
EndChar

StartChar: dollar
Encoding: 36 36 6
Width: 448
GlyphClass: 1
Flags: W
LayerCount: 2
Fore
SplineSet
128 576 m 1,0,-1
 256 576 l 1,1,-1
 256 448 l 1,2,-1
 384 448 l 1,3,-1
 384 320 l 1,4,-1
 128 320 l 1,5,-1
 128 256 l 1,6,-1
 320 256 l 1,7,-1
 320 192 l 1,8,-1
 384 192 l 1,9,-1
 384 0 l 1,10,-1
 320 0 l 1,11,-1
 320 -64 l 1,12,-1
 256 -64 l 1,13,-1
 256 -192 l 1,14,-1
 128 -192 l 1,15,-1
 128 -64 l 1,16,-1
 0 -64 l 1,17,-1
 0 64 l 1,18,-1
 256 64 l 1,19,-1
 256 128 l 1,20,-1
 64 128 l 1,21,-1
 64 192 l 1,22,-1
 0 192 l 1,23,-1
 0 384 l 1,24,-1
 64 384 l 1,25,-1
 64 448 l 1,26,-1
 128 448 l 1,27,-1
 128 576 l 1,0,-1
EndSplineSet
Validated: 1
EndChar

StartChar: percent
Encoding: 37 37 7
Width: 448
GlyphClass: 1
Flags: W
LayerCount: 2
Fore
SplineSet
0 448 m 1,0,-1
 128 448 l 1,1,-1
 128 320 l 1,2,-1
 0 320 l 1,3,-1
 0 448 l 1,0,-1
256 384 m 1,4,-1
 384 384 l 1,5,-1
 384 256 l 1,6,-1
 320 256 l 1,7,-1
 320 192 l 1,8,-1
 256 192 l 1,9,-1
 256 128 l 1,10,-1
 192 128 l 1,11,-1
 192 64 l 1,12,-1
 128 64 l 1,13,-1
 128 0 l 1,14,-1
 0 0 l 1,15,-1
 0 128 l 1,16,-1
 64 128 l 1,17,-1
 64 192 l 1,18,-1
 128 192 l 1,19,-1
 128 256 l 1,20,-1
 192 256 l 1,21,-1
 192 320 l 1,22,-1
 256 320 l 1,23,-1
 256 384 l 1,4,-1
256 64 m 1,24,-1
 384 64 l 1,25,-1
 384 -64 l 1,26,-1
 256 -64 l 1,27,-1
 256 64 l 1,24,-1
EndSplineSet
Validated: 1
EndChar

StartChar: ampersand
Encoding: 38 38 8
Width: 640
GlyphClass: 1
Flags: W
LayerCount: 2
Fore
SplineSet
128 576 m 1,0,-1
 384 576 l 1,1,-1
 384 512 l 1,2,-1
 448 512 l 1,3,-1
 448 256 l 1,4,-1
 384 256 l 1,5,-1
 384 192 l 1,6,-1
 448 192 l 1,7,-1
 448 256 l 1,8,-1
 576 256 l 1,9,-1
 576 128 l 1,10,-1
 512 128 l 1,11,-1
 512 64 l 1,12,-1
 448 64 l 1,13,-1
 448 0 l 1,14,-1
 576 0 l 1,15,-1
 576 -128 l 1,16,-1
 384 -128 l 1,17,-1
 384 -64 l 1,18,-1
 320 -64 l 1,19,-1
 320 -128 l 1,20,-1
 64 -128 l 1,21,-1
 64 -64 l 1,22,-1
 0 -64 l 1,23,-1
 0 256 l 1,24,-1
 64 256 l 1,25,-1
 64 512 l 1,26,-1
 128 512 l 1,27,-1
 128 576 l 1,0,-1
192 448 m 1,28,-1
 192 320 l 1,29,-1
 320 320 l 1,30,-1
 320 448 l 1,31,-1
 192 448 l 1,28,-1
128 192 m 1,32,-1
 128 0 l 1,33,-1
 256 0 l 1,34,-1
 256 128 l 1,35,-1
 192 128 l 1,36,-1
 192 192 l 1,37,-1
 128 192 l 1,32,-1
EndSplineSet
Validated: 5
EndChar

StartChar: quotesingle
Encoding: 39 39 9
Width: 192
GlyphClass: 1
Flags: W
LayerCount: 2
Fore
SplineSet
0 576 m 1,0,-1
 128 576 l 1,1,-1
 128 384 l 1,2,-1
 64 384 l 1,3,-1
 64 448 l 1,4,-1
 0 448 l 1,5,-1
 0 576 l 1,0,-1
EndSplineSet
Validated: 1
EndChar

StartChar: parenleft
Encoding: 40 40 10
Width: 320
GlyphClass: 1
Flags: W
LayerCount: 2
Fore
SplineSet
64 576 m 1,0,-1
 256 576 l 1,1,-1
 256 448 l 1,2,-1
 128 448 l 1,3,-1
 128 -128 l 1,4,-1
 256 -128 l 1,5,-1
 256 -256 l 1,6,-1
 64 -256 l 1,7,-1
 64 -192 l 1,8,-1
 0 -192 l 1,9,-1
 0 512 l 1,10,-1
 64 512 l 1,11,-1
 64 576 l 1,0,-1
EndSplineSet
Validated: 1
EndChar

StartChar: parenright
Encoding: 41 41 11
Width: 320
GlyphClass: 1
Flags: W
LayerCount: 2
Fore
SplineSet
0 576 m 1,0,-1
 192 576 l 1,1,-1
 192 512 l 1,2,-1
 256 512 l 1,3,-1
 256 -192 l 1,4,-1
 192 -192 l 1,5,-1
 192 -256 l 1,6,-1
 0 -256 l 1,7,-1
 0 -128 l 1,8,-1
 128 -128 l 1,9,-1
 128 448 l 1,10,-1
 0 448 l 1,11,-1
 0 576 l 1,0,-1
EndSplineSet
Validated: 1
EndChar

StartChar: asterisk
Encoding: 42 42 12
Width: 384
GlyphClass: 1
Flags: W
LayerCount: 2
Fore
SplineSet
0 576 m 1,0,-1
 128 576 l 1,1,-1
 128 512 l 1,2,-1
 192 512 l 1,3,-1
 192 576 l 1,4,-1
 320 576 l 1,5,-1
 320 448 l 1,6,-1
 256 448 l 1,7,-1
 256 384 l 1,8,-1
 320 384 l 1,9,-1
 320 256 l 1,10,-1
 192 256 l 1,11,-1
 192 320 l 1,12,-1
 128 320 l 1,13,-1
 128 256 l 1,14,-1
 0 256 l 1,15,-1
 0 384 l 1,16,-1
 64 384 l 1,17,-1
 64 448 l 1,18,-1
 0 448 l 1,19,-1
 0 576 l 1,0,-1
EndSplineSet
Validated: 1
EndChar

StartChar: plus
Encoding: 43 43 13
Width: 448
GlyphClass: 1
Flags: W
LayerCount: 2
Fore
SplineSet
128 384 m 1,0,-1
 256 384 l 1,1,-1
 256 256 l 1,2,-1
 384 256 l 1,3,-1
 384 128 l 1,4,-1
 256 128 l 1,5,-1
 256 0 l 1,6,-1
 128 0 l 1,7,-1
 128 128 l 1,8,-1
 0 128 l 1,9,-1
 0 256 l 1,10,-1
 128 256 l 1,11,-1
 128 384 l 1,0,-1
EndSplineSet
Validated: 1
EndChar

StartChar: comma
Encoding: 44 44 14
Width: 192
GlyphClass: 1
Flags: W
LayerCount: 2
Fore
SplineSet
0 0 m 1,0,-1
 128 0 l 1,1,-1
 128 -192 l 1,2,-1
 64 -192 l 1,3,-1
 64 -128 l 1,4,-1
 0 -128 l 1,5,-1
 0 0 l 1,0,-1
EndSplineSet
Validated: 1
EndChar

StartChar: hyphen
Encoding: 45 45 15
Width: 448
GlyphClass: 1
Flags: W
LayerCount: 2
Fore
SplineSet
0 256 m 1,0,-1
 384 256 l 1,1,-1
 384 128 l 1,2,-1
 0 128 l 1,3,-1
 0 256 l 1,0,-1
EndSplineSet
Validated: 1
EndChar

StartChar: period
Encoding: 46 46 16
Width: 192
GlyphClass: 1
Flags: W
LayerCount: 2
Fore
SplineSet
0 0 m 1,0,-1
 128 0 l 1,1,-1
 128 -128 l 1,2,-1
 0 -128 l 1,3,-1
 0 0 l 1,0,-1
EndSplineSet
Validated: 1
EndChar

StartChar: slash
Encoding: 47 47 17
Width: 448
GlyphClass: 1
Flags: W
LayerCount: 2
Fore
SplineSet
256 576 m 1,0,-1
 384 576 l 1,1,-1
 384 384 l 1,2,-1
 320 384 l 1,3,-1
 320 256 l 1,4,-1
 256 256 l 1,5,-1
 256 128 l 1,6,-1
 192 128 l 1,7,-1
 192 0 l 1,8,-1
 128 0 l 1,9,-1
 128 -128 l 1,10,-1
 0 -128 l 1,11,-1
 0 64 l 1,12,-1
 64 64 l 1,13,-1
 64 192 l 1,14,-1
 128 192 l 1,15,-1
 128 320 l 1,16,-1
 192 320 l 1,17,-1
 192 448 l 1,18,-1
 256 448 l 1,19,-1
 256 576 l 1,0,-1
EndSplineSet
Validated: 1
EndChar

StartChar: zero
Encoding: 48 48 18
Width: 448
GlyphClass: 1
Flags: W
LayerCount: 2
Fore
SplineSet
64 576 m 1,0,-1
 320 576 l 1,1,-1
 320 512 l 1,2,-1
 384 512 l 1,3,-1
 384 -64 l 1,4,-1
 320 -64 l 1,5,-1
 320 -128 l 1,6,-1
 64 -128 l 1,7,-1
 64 -64 l 1,8,-1
 0 -64 l 1,9,-1
 0 512 l 1,10,-1
 64 512 l 1,11,-1
 64 576 l 1,0,-1
128 448 m 1,12,-1
 128 0 l 1,13,-1
 256 0 l 1,14,-1
 256 448 l 1,15,-1
 128 448 l 1,12,-1
EndSplineSet
Validated: 1
EndChar

StartChar: one
Encoding: 49 49 19
Width: 448
GlyphClass: 1
Flags: W
LayerCount: 2
Fore
SplineSet
128 576 m 1,0,-1
 256 576 l 1,1,-1
 256 0 l 1,2,-1
 384 0 l 1,3,-1
 384 -128 l 1,4,-1
 0 -128 l 1,5,-1
 0 0 l 1,6,-1
 128 0 l 1,7,-1
 128 384 l 1,8,-1
 0 384 l 1,9,-1
 0 512 l 1,10,-1
 128 512 l 1,11,-1
 128 576 l 1,0,-1
EndSplineSet
Validated: 1
EndChar

StartChar: two
Encoding: 50 50 20
Width: 448
GlyphClass: 1
Flags: W
LayerCount: 2
Fore
SplineSet
64 576 m 1,0,-1
 320 576 l 1,1,-1
 320 512 l 1,2,-1
 384 512 l 1,3,-1
 384 192 l 1,4,-1
 320 192 l 1,5,-1
 320 128 l 1,6,-1
 256 128 l 1,7,-1
 256 64 l 1,8,-1
 192 64 l 1,9,-1
 192 0 l 1,10,-1
 384 0 l 1,11,-1
 384 -128 l 1,12,-1
 0 -128 l 1,13,-1
 0 64 l 1,14,-1
 64 64 l 1,15,-1
 64 128 l 1,16,-1
 128 128 l 1,17,-1
 128 192 l 1,18,-1
 192 192 l 1,19,-1
 192 256 l 1,20,-1
 256 256 l 1,21,-1
 256 448 l 1,22,-1
 128 448 l 1,23,-1
 128 384 l 1,24,-1
 0 384 l 1,25,-1
 0 512 l 1,26,-1
 64 512 l 1,27,-1
 64 576 l 1,0,-1
EndSplineSet
Validated: 1
EndChar

StartChar: three
Encoding: 51 51 21
Width: 448
GlyphClass: 1
Flags: W
LayerCount: 2
Fore
SplineSet
64 576 m 1,0,-1
 320 576 l 1,1,-1
 320 512 l 1,2,-1
 384 512 l 1,3,-1
 384 320 l 1,4,-1
 320 320 l 1,5,-1
 320 256 l 1,6,-1
 384 256 l 1,7,-1
 384 -64 l 1,8,-1
 320 -64 l 1,9,-1
 320 -128 l 1,10,-1
 64 -128 l 1,11,-1
 64 -64 l 1,12,-1
 0 -64 l 1,13,-1
 0 64 l 1,14,-1
 128 64 l 1,15,-1
 128 0 l 1,16,-1
 256 0 l 1,17,-1
 256 192 l 1,18,-1
 128 192 l 1,19,-1
 128 320 l 1,20,-1
 256 320 l 1,21,-1
 256 448 l 1,22,-1
 128 448 l 1,23,-1
 128 384 l 1,24,-1
 0 384 l 1,25,-1
 0 512 l 1,26,-1
 64 512 l 1,27,-1
 64 576 l 1,0,-1
EndSplineSet
Validated: 1
EndChar

StartChar: four
Encoding: 52 52 22
Width: 448
GlyphClass: 1
Flags: W
LayerCount: 2
Fore
SplineSet
0 576 m 1,0,-1
 128 576 l 1,1,-1
 128 256 l 1,2,-1
 256 256 l 1,3,-1
 256 576 l 1,4,-1
 384 576 l 1,5,-1
 384 -128 l 1,6,-1
 256 -128 l 1,7,-1
 256 128 l 1,8,-1
 64 128 l 1,9,-1
 64 192 l 1,10,-1
 0 192 l 1,11,-1
 0 576 l 1,0,-1
EndSplineSet
Validated: 1
EndChar

StartChar: five
Encoding: 53 53 23
Width: 448
GlyphClass: 1
Flags: W
LayerCount: 2
Fore
SplineSet
0 576 m 1,0,-1
 384 576 l 1,1,-1
 384 448 l 1,2,-1
 128 448 l 1,3,-1
 128 320 l 1,4,-1
 320 320 l 1,5,-1
 320 256 l 1,6,-1
 384 256 l 1,7,-1
 384 -64 l 1,8,-1
 320 -64 l 1,9,-1
 320 -128 l 1,10,-1
 0 -128 l 1,11,-1
 0 0 l 1,12,-1
 256 0 l 1,13,-1
 256 192 l 1,14,-1
 0 192 l 1,15,-1
 0 576 l 1,0,-1
EndSplineSet
Validated: 1
EndChar

StartChar: six
Encoding: 54 54 24
Width: 448
GlyphClass: 1
Flags: W
LayerCount: 2
Fore
SplineSet
64 576 m 1,0,-1
 320 576 l 1,1,-1
 320 512 l 1,2,-1
 384 512 l 1,3,-1
 384 384 l 1,4,-1
 256 384 l 1,5,-1
 256 448 l 1,6,-1
 128 448 l 1,7,-1
 128 320 l 1,8,-1
 320 320 l 1,9,-1
 320 256 l 1,10,-1
 384 256 l 1,11,-1
 384 -64 l 1,12,-1
 320 -64 l 1,13,-1
 320 -128 l 1,14,-1
 64 -128 l 1,15,-1
 64 -64 l 1,16,-1
 0 -64 l 1,17,-1
 0 512 l 1,18,-1
 64 512 l 1,19,-1
 64 576 l 1,0,-1
128 192 m 1,20,-1
 128 0 l 1,21,-1
 256 0 l 1,22,-1
 256 192 l 1,23,-1
 128 192 l 1,20,-1
EndSplineSet
Validated: 1
EndChar

StartChar: seven
Encoding: 55 55 25
Width: 448
GlyphClass: 1
Flags: W
LayerCount: 2
Fore
SplineSet
0 576 m 1,0,-1
 384 576 l 1,1,-1
 384 256 l 1,2,-1
 320 256 l 1,3,-1
 320 128 l 1,4,-1
 256 128 l 1,5,-1
 256 -128 l 1,6,-1
 128 -128 l 1,7,-1
 128 192 l 1,8,-1
 192 192 l 1,9,-1
 192 320 l 1,10,-1
 256 320 l 1,11,-1
 256 448 l 1,12,-1
 0 448 l 1,13,-1
 0 576 l 1,0,-1
EndSplineSet
Validated: 1
EndChar

StartChar: eight
Encoding: 56 56 26
Width: 448
GlyphClass: 1
Flags: W
LayerCount: 2
Fore
SplineSet
64 576 m 1,0,-1
 320 576 l 1,1,-1
 320 512 l 1,2,-1
 384 512 l 1,3,-1
 384 320 l 1,4,-1
 320 320 l 1,5,-1
 320 256 l 1,6,-1
 384 256 l 1,7,-1
 384 -64 l 1,8,-1
 320 -64 l 1,9,-1
 320 -128 l 1,10,-1
 64 -128 l 1,11,-1
 64 -64 l 1,12,-1
 0 -64 l 1,13,-1
 0 256 l 1,14,-1
 64 256 l 1,15,-1
 64 320 l 1,16,-1
 0 320 l 1,17,-1
 0 512 l 1,18,-1
 64 512 l 1,19,-1
 64 576 l 1,0,-1
128 448 m 1,20,-1
 128 320 l 1,21,-1
 256 320 l 1,22,-1
 256 448 l 1,23,-1
 128 448 l 1,20,-1
128 192 m 1,24,-1
 128 0 l 1,25,-1
 256 0 l 1,26,-1
 256 192 l 1,27,-1
 128 192 l 1,24,-1
EndSplineSet
Validated: 1
EndChar

StartChar: nine
Encoding: 57 57 27
Width: 448
GlyphClass: 1
Flags: W
LayerCount: 2
Fore
SplineSet
64 576 m 1,0,-1
 320 576 l 1,1,-1
 320 512 l 1,2,-1
 384 512 l 1,3,-1
 384 -64 l 1,4,-1
 320 -64 l 1,5,-1
 320 -128 l 1,6,-1
 64 -128 l 1,7,-1
 64 -64 l 1,8,-1
 0 -64 l 1,9,-1
 0 64 l 1,10,-1
 128 64 l 1,11,-1
 128 0 l 1,12,-1
 256 0 l 1,13,-1
 256 128 l 1,14,-1
 64 128 l 1,15,-1
 64 192 l 1,16,-1
 0 192 l 1,17,-1
 0 512 l 1,18,-1
 64 512 l 1,19,-1
 64 576 l 1,0,-1
128 448 m 1,20,-1
 128 256 l 1,21,-1
 256 256 l 1,22,-1
 256 448 l 1,23,-1
 128 448 l 1,20,-1
EndSplineSet
Validated: 1
EndChar

StartChar: colon
Encoding: 58 58 28
Width: 192
GlyphClass: 1
Flags: W
LayerCount: 2
Fore
SplineSet
0 384 m 1,0,-1
 128 384 l 1,1,-1
 128 256 l 1,2,-1
 0 256 l 1,3,-1
 0 384 l 1,0,-1
0 0 m 1,4,-1
 128 0 l 1,5,-1
 128 -128 l 1,6,-1
 0 -128 l 1,7,-1
 0 0 l 1,4,-1
EndSplineSet
Validated: 1
EndChar

StartChar: semicolon
Encoding: 59 59 29
Width: 192
GlyphClass: 1
Flags: W
LayerCount: 2
Fore
SplineSet
0 384 m 1,0,-1
 128 384 l 1,1,-1
 128 256 l 1,2,-1
 0 256 l 1,3,-1
 0 384 l 1,0,-1
0 0 m 1,4,-1
 128 0 l 1,5,-1
 128 -192 l 1,6,-1
 64 -192 l 1,7,-1
 64 -128 l 1,8,-1
 0 -128 l 1,9,-1
 0 0 l 1,4,-1
EndSplineSet
Validated: 1
EndChar

StartChar: less
Encoding: 60 60 30
Width: 384
GlyphClass: 1
Flags: W
LayerCount: 2
Fore
SplineSet
192 384 m 1,0,-1
 320 384 l 1,1,-1
 320 256 l 1,2,-1
 256 256 l 1,3,-1
 256 192 l 1,4,-1
 192 192 l 1,5,-1
 192 64 l 1,6,-1
 256 64 l 1,7,-1
 256 0 l 1,8,-1
 320 0 l 1,9,-1
 320 -128 l 1,10,-1
 192 -128 l 1,11,-1
 192 -64 l 1,12,-1
 128 -64 l 1,13,-1
 128 0 l 1,14,-1
 64 0 l 1,15,-1
 64 64 l 1,16,-1
 0 64 l 1,17,-1
 0 192 l 1,18,-1
 64 192 l 1,19,-1
 64 256 l 1,20,-1
 128 256 l 1,21,-1
 128 320 l 1,22,-1
 192 320 l 1,23,-1
 192 384 l 1,0,-1
EndSplineSet
Validated: 1
EndChar

StartChar: equal
Encoding: 61 61 31
Width: 448
GlyphClass: 1
Flags: W
LayerCount: 2
Fore
SplineSet
0 384 m 1,0,-1
 384 384 l 1,1,-1
 384 256 l 1,2,-1
 0 256 l 1,3,-1
 0 384 l 1,0,-1
0 128 m 1,4,-1
 384 128 l 1,5,-1
 384 0 l 1,6,-1
 0 0 l 1,7,-1
 0 128 l 1,4,-1
EndSplineSet
Validated: 1
EndChar

StartChar: greater
Encoding: 62 62 32
Width: 384
GlyphClass: 1
Flags: W
LayerCount: 2
Fore
SplineSet
0 384 m 1,0,-1
 128 384 l 1,1,-1
 128 320 l 1,2,-1
 192 320 l 1,3,-1
 192 256 l 1,4,-1
 256 256 l 1,5,-1
 256 192 l 1,6,-1
 320 192 l 1,7,-1
 320 64 l 1,8,-1
 256 64 l 1,9,-1
 256 0 l 1,10,-1
 192 0 l 1,11,-1
 192 -64 l 1,12,-1
 128 -64 l 1,13,-1
 128 -128 l 1,14,-1
 0 -128 l 1,15,-1
 0 0 l 1,16,-1
 64 0 l 1,17,-1
 64 64 l 1,18,-1
 128 64 l 1,19,-1
 128 192 l 1,20,-1
 64 192 l 1,21,-1
 64 256 l 1,22,-1
 0 256 l 1,23,-1
 0 384 l 1,0,-1
EndSplineSet
Validated: 1
EndChar

StartChar: question
Encoding: 63 63 33
Width: 448
GlyphClass: 1
Flags: W
LayerCount: 2
Fore
SplineSet
64 576 m 1,0,-1
 320 576 l 1,1,-1
 320 512 l 1,2,-1
 384 512 l 1,3,-1
 384 256 l 1,4,-1
 320 256 l 1,5,-1
 320 192 l 1,6,-1
 256 192 l 1,7,-1
 256 64 l 1,8,-1
 128 64 l 1,9,-1
 128 256 l 1,10,-1
 192 256 l 1,11,-1
 192 320 l 1,12,-1
 256 320 l 1,13,-1
 256 448 l 1,14,-1
 128 448 l 1,15,-1
 128 384 l 1,16,-1
 0 384 l 1,17,-1
 0 512 l 1,18,-1
 64 512 l 1,19,-1
 64 576 l 1,0,-1
128 0 m 1,20,-1
 256 0 l 1,21,-1
 256 -128 l 1,22,-1
 128 -128 l 1,23,-1
 128 0 l 1,20,-1
EndSplineSet
Validated: 1
EndChar

StartChar: at
Encoding: 64 64 34
Width: 640
GlyphClass: 1
Flags: W
LayerCount: 2
Fore
SplineSet
128 576 m 1,0,-1
 448 576 l 1,1,-1
 448 512 l 1,2,-1
 512 512 l 1,3,-1
 512 448 l 1,4,-1
 576 448 l 1,5,-1
 576 128 l 1,6,-1
 512 128 l 1,7,-1
 512 64 l 1,8,-1
 256 64 l 1,9,-1
 256 128 l 1,10,-1
 192 128 l 1,11,-1
 192 320 l 1,12,-1
 256 320 l 1,13,-1
 256 384 l 1,14,-1
 384 384 l 1,15,-1
 384 448 l 1,16,-1
 192 448 l 1,17,-1
 192 384 l 1,18,-1
 128 384 l 1,19,-1
 128 64 l 1,20,-1
 192 64 l 1,21,-1
 192 0 l 1,22,-1
 576 0 l 1,23,-1
 576 -128 l 1,24,-1
 128 -128 l 1,25,-1
 128 -64 l 1,26,-1
 64 -64 l 1,27,-1
 64 0 l 1,28,-1
 0 0 l 1,29,-1
 0 448 l 1,30,-1
 64 448 l 1,31,-1
 64 512 l 1,32,-1
 128 512 l 1,33,-1
 128 576 l 1,0,-1
320 256 m 1,34,-1
 320 192 l 1,35,-1
 384 192 l 1,36,-1
 384 256 l 1,37,-1
 320 256 l 1,34,-1
EndSplineSet
Validated: 1
EndChar

StartChar: A
Encoding: 65 65 35
Width: 448
GlyphClass: 1
Flags: W
LayerCount: 2
Fore
SplineSet
64 576 m 1,0,-1
 320 576 l 1,1,-1
 320 512 l 1,2,-1
 384 512 l 1,3,-1
 384 -128 l 1,4,-1
 256 -128 l 1,5,-1
 256 128 l 1,6,-1
 128 128 l 1,7,-1
 128 -128 l 1,8,-1
 0 -128 l 1,9,-1
 0 512 l 1,10,-1
 64 512 l 1,11,-1
 64 576 l 1,0,-1
128 448 m 1,12,-1
 128 256 l 1,13,-1
 256 256 l 1,14,-1
 256 448 l 1,15,-1
 128 448 l 1,12,-1
EndSplineSet
Validated: 1
EndChar

StartChar: B
Encoding: 66 66 36
Width: 448
GlyphClass: 1
Flags: W
LayerCount: 2
Fore
SplineSet
0 576 m 1,0,-1
 320 576 l 1,1,-1
 320 512 l 1,2,-1
 384 512 l 1,3,-1
 384 256 l 1,4,-1
 320 256 l 1,5,-1
 320 192 l 1,6,-1
 384 192 l 1,7,-1
 384 -64 l 1,8,-1
 320 -64 l 1,9,-1
 320 -128 l 1,10,-1
 0 -128 l 1,11,-1
 0 576 l 1,0,-1
128 448 m 1,12,-1
 128 320 l 1,13,-1
 256 320 l 1,14,-1
 256 448 l 1,15,-1
 128 448 l 1,12,-1
128 192 m 1,16,-1
 128 0 l 1,17,-1
 256 0 l 1,18,-1
 256 192 l 1,19,-1
 128 192 l 1,16,-1
EndSplineSet
Validated: 1
EndChar

StartChar: C
Encoding: 67 67 37
Width: 448
GlyphClass: 1
Flags: W
LayerCount: 2
Fore
SplineSet
64 576 m 1,0,-1
 384 576 l 1,1,-1
 384 448 l 1,2,-1
 128 448 l 1,3,-1
 128 0 l 1,4,-1
 384 0 l 1,5,-1
 384 -128 l 1,6,-1
 64 -128 l 1,7,-1
 64 -64 l 1,8,-1
 0 -64 l 1,9,-1
 0 512 l 1,10,-1
 64 512 l 1,11,-1
 64 576 l 1,0,-1
EndSplineSet
Validated: 1
EndChar

StartChar: D
Encoding: 68 68 38
Width: 448
GlyphClass: 1
Flags: W
LayerCount: 2
Fore
SplineSet
0 576 m 1,0,-1
 320 576 l 1,1,-1
 320 512 l 1,2,-1
 384 512 l 1,3,-1
 384 -64 l 1,4,-1
 320 -64 l 1,5,-1
 320 -128 l 1,6,-1
 0 -128 l 1,7,-1
 0 576 l 1,0,-1
128 448 m 1,8,-1
 128 0 l 1,9,-1
 256 0 l 1,10,-1
 256 448 l 1,11,-1
 128 448 l 1,8,-1
EndSplineSet
Validated: 1
EndChar

StartChar: E
Encoding: 69 69 39
Width: 448
GlyphClass: 1
Flags: W
LayerCount: 2
Fore
SplineSet
64 576 m 1,0,-1
 384 576 l 1,1,-1
 384 448 l 1,2,-1
 128 448 l 1,3,-1
 128 320 l 1,4,-1
 320 320 l 1,5,-1
 320 192 l 1,6,-1
 128 192 l 1,7,-1
 128 0 l 1,8,-1
 384 0 l 1,9,-1
 384 -128 l 1,10,-1
 64 -128 l 1,11,-1
 64 -64 l 1,12,-1
 0 -64 l 1,13,-1
 0 512 l 1,14,-1
 64 512 l 1,15,-1
 64 576 l 1,0,-1
EndSplineSet
Validated: 1
EndChar

StartChar: F
Encoding: 70 70 40
Width: 448
GlyphClass: 1
Flags: W
LayerCount: 2
Fore
SplineSet
64 576 m 1,0,-1
 384 576 l 1,1,-1
 384 448 l 1,2,-1
 128 448 l 1,3,-1
 128 320 l 1,4,-1
 320 320 l 1,5,-1
 320 192 l 1,6,-1
 128 192 l 1,7,-1
 128 -128 l 1,8,-1
 0 -128 l 1,9,-1
 0 512 l 1,10,-1
 64 512 l 1,11,-1
 64 576 l 1,0,-1
EndSplineSet
Validated: 1
EndChar

StartChar: G
Encoding: 71 71 41
Width: 448
GlyphClass: 1
Flags: W
LayerCount: 2
Fore
SplineSet
64 576 m 1,0,-1
 384 576 l 1,1,-1
 384 448 l 1,2,-1
 128 448 l 1,3,-1
 128 0 l 1,4,-1
 256 0 l 1,5,-1
 256 192 l 1,6,-1
 192 192 l 1,7,-1
 192 320 l 1,8,-1
 384 320 l 1,9,-1
 384 -64 l 1,10,-1
 320 -64 l 1,11,-1
 320 -128 l 1,12,-1
 64 -128 l 1,13,-1
 64 -64 l 1,14,-1
 0 -64 l 1,15,-1
 0 512 l 1,16,-1
 64 512 l 1,17,-1
 64 576 l 1,0,-1
EndSplineSet
Validated: 1
EndChar

StartChar: H
Encoding: 72 72 42
Width: 448
GlyphClass: 1
Flags: W
LayerCount: 2
Fore
SplineSet
0 576 m 1,0,-1
 128 576 l 1,1,-1
 128 320 l 1,2,-1
 256 320 l 1,3,-1
 256 576 l 1,4,-1
 384 576 l 1,5,-1
 384 -128 l 1,6,-1
 256 -128 l 1,7,-1
 256 192 l 1,8,-1
 128 192 l 1,9,-1
 128 -128 l 1,10,-1
 0 -128 l 1,11,-1
 0 576 l 1,0,-1
EndSplineSet
Validated: 1
EndChar

StartChar: I
Encoding: 73 73 43
Width: 448
GlyphClass: 1
Flags: W
LayerCount: 2
Fore
SplineSet
0 576 m 1,0,-1
 384 576 l 1,1,-1
 384 448 l 1,2,-1
 256 448 l 1,3,-1
 256 0 l 1,4,-1
 384 0 l 1,5,-1
 384 -128 l 1,6,-1
 0 -128 l 1,7,-1
 0 0 l 1,8,-1
 128 0 l 1,9,-1
 128 448 l 1,10,-1
 0 448 l 1,11,-1
 0 576 l 1,0,-1
EndSplineSet
Validated: 1
EndChar

StartChar: J
Encoding: 74 74 44
Width: 448
GlyphClass: 1
Flags: W
LayerCount: 2
Fore
SplineSet
0 576 m 1,0,-1
 384 576 l 1,1,-1
 384 -64 l 1,2,-1
 320 -64 l 1,3,-1
 320 -128 l 1,4,-1
 64 -128 l 1,5,-1
 64 -64 l 1,6,-1
 0 -64 l 1,7,-1
 0 64 l 1,8,-1
 128 64 l 1,9,-1
 128 0 l 1,10,-1
 256 0 l 1,11,-1
 256 448 l 1,12,-1
 0 448 l 1,13,-1
 0 576 l 1,0,-1
EndSplineSet
Validated: 1
EndChar

StartChar: K
Encoding: 75 75 45
Width: 448
GlyphClass: 1
Flags: W
LayerCount: 2
Fore
SplineSet
0 576 m 1,0,-1
 128 576 l 1,1,-1
 128 320 l 1,2,-1
 192 320 l 1,3,-1
 192 384 l 1,4,-1
 256 384 l 1,5,-1
 256 576 l 1,6,-1
 384 576 l 1,7,-1
 384 320 l 1,8,-1
 320 320 l 1,9,-1
 320 256 l 1,10,-1
 256 256 l 1,11,-1
 256 192 l 1,12,-1
 320 192 l 1,13,-1
 320 128 l 1,14,-1
 384 128 l 1,15,-1
 384 -128 l 1,16,-1
 256 -128 l 1,17,-1
 256 64 l 1,18,-1
 192 64 l 1,19,-1
 192 128 l 1,20,-1
 128 128 l 1,21,-1
 128 -128 l 1,22,-1
 0 -128 l 1,23,-1
 0 576 l 1,0,-1
EndSplineSet
Validated: 1
EndChar

StartChar: L
Encoding: 76 76 46
Width: 448
GlyphClass: 1
Flags: W
LayerCount: 2
Fore
SplineSet
0 576 m 1,0,-1
 128 576 l 1,1,-1
 128 0 l 1,2,-1
 384 0 l 1,3,-1
 384 -128 l 1,4,-1
 64 -128 l 1,5,-1
 64 -64 l 1,6,-1
 0 -64 l 1,7,-1
 0 576 l 1,0,-1
EndSplineSet
Validated: 1
EndChar

StartChar: M
Encoding: 77 77 47
Width: 576
GlyphClass: 1
Flags: W
LayerCount: 2
Fore
SplineSet
0 576 m 1,0,-1
 448 576 l 1,1,-1
 448 512 l 1,2,-1
 512 512 l 1,3,-1
 512 -128 l 1,4,-1
 384 -128 l 1,5,-1
 384 448 l 1,6,-1
 320 448 l 1,7,-1
 320 0 l 1,8,-1
 192 0 l 1,9,-1
 192 448 l 1,10,-1
 128 448 l 1,11,-1
 128 -128 l 1,12,-1
 0 -128 l 1,13,-1
 0 576 l 1,0,-1
EndSplineSet
Validated: 1
EndChar

StartChar: N
Encoding: 78 78 48
Width: 448
GlyphClass: 1
Flags: W
LayerCount: 2
Fore
SplineSet
0 576 m 1,0,-1
 320 576 l 1,1,-1
 320 512 l 1,2,-1
 384 512 l 1,3,-1
 384 -128 l 1,4,-1
 256 -128 l 1,5,-1
 256 448 l 1,6,-1
 128 448 l 1,7,-1
 128 -128 l 1,8,-1
 0 -128 l 1,9,-1
 0 576 l 1,0,-1
EndSplineSet
Validated: 1
EndChar

StartChar: O
Encoding: 79 79 49
Width: 448
GlyphClass: 1
Flags: W
LayerCount: 2
Fore
SplineSet
64 576 m 1,0,-1
 320 576 l 1,1,-1
 320 512 l 1,2,-1
 384 512 l 1,3,-1
 384 -64 l 1,4,-1
 320 -64 l 1,5,-1
 320 -128 l 1,6,-1
 64 -128 l 1,7,-1
 64 -64 l 1,8,-1
 0 -64 l 1,9,-1
 0 512 l 1,10,-1
 64 512 l 1,11,-1
 64 576 l 1,0,-1
128 448 m 1,12,-1
 128 0 l 1,13,-1
 256 0 l 1,14,-1
 256 448 l 1,15,-1
 128 448 l 1,12,-1
EndSplineSet
Validated: 1
EndChar

StartChar: P
Encoding: 80 80 50
Width: 448
GlyphClass: 1
Flags: W
LayerCount: 2
Fore
SplineSet
0 576 m 1,0,-1
 320 576 l 1,1,-1
 320 512 l 1,2,-1
 384 512 l 1,3,-1
 384 192 l 1,4,-1
 320 192 l 1,5,-1
 320 128 l 1,6,-1
 128 128 l 1,7,-1
 128 -128 l 1,8,-1
 0 -128 l 1,9,-1
 0 576 l 1,0,-1
128 448 m 1,10,-1
 128 256 l 1,11,-1
 256 256 l 1,12,-1
 256 448 l 1,13,-1
 128 448 l 1,10,-1
EndSplineSet
Validated: 1
EndChar

StartChar: Q
Encoding: 81 81 51
Width: 512
GlyphClass: 1
Flags: W
LayerCount: 2
Fore
SplineSet
64 576 m 1,0,-1
 320 576 l 1,1,-1
 320 512 l 1,2,-1
 384 512 l 1,3,-1
 384 0 l 1,4,-1
 448 0 l 1,5,-1
 448 -128 l 1,6,-1
 320 -128 l 1,7,-1
 320 -64 l 1,8,-1
 256 -64 l 1,9,-1
 256 -128 l 1,10,-1
 64 -128 l 1,11,-1
 64 -64 l 1,12,-1
 0 -64 l 1,13,-1
 0 512 l 1,14,-1
 64 512 l 1,15,-1
 64 576 l 1,0,-1
128 448 m 1,16,-1
 128 0 l 1,17,-1
 192 0 l 1,18,-1
 192 64 l 1,19,-1
 256 64 l 1,20,-1
 256 448 l 1,21,-1
 128 448 l 1,16,-1
EndSplineSet
Validated: 1
EndChar

StartChar: R
Encoding: 82 82 52
Width: 448
GlyphClass: 1
Flags: W
LayerCount: 2
Fore
SplineSet
0 576 m 1,0,-1
 320 576 l 1,1,-1
 320 512 l 1,2,-1
 384 512 l 1,3,-1
 384 256 l 1,4,-1
 320 256 l 1,5,-1
 320 192 l 1,6,-1
 384 192 l 1,7,-1
 384 -128 l 1,8,-1
 256 -128 l 1,9,-1
 256 128 l 1,10,-1
 192 128 l 1,11,-1
 192 192 l 1,12,-1
 128 192 l 1,13,-1
 128 -128 l 1,14,-1
 0 -128 l 1,15,-1
 0 576 l 1,0,-1
128 448 m 1,16,-1
 128 320 l 1,17,-1
 256 320 l 1,18,-1
 256 448 l 1,19,-1
 128 448 l 1,16,-1
EndSplineSet
Validated: 1
EndChar

StartChar: S
Encoding: 83 83 53
Width: 448
GlyphClass: 1
Flags: W
LayerCount: 2
Fore
SplineSet
64 576 m 1,0,-1
 384 576 l 1,1,-1
 384 448 l 1,2,-1
 128 448 l 1,3,-1
 128 320 l 1,4,-1
 320 320 l 1,5,-1
 320 256 l 1,6,-1
 384 256 l 1,7,-1
 384 -64 l 1,8,-1
 320 -64 l 1,9,-1
 320 -128 l 1,10,-1
 0 -128 l 1,11,-1
 0 0 l 1,12,-1
 256 0 l 1,13,-1
 256 192 l 1,14,-1
 64 192 l 1,15,-1
 64 256 l 1,16,-1
 0 256 l 1,17,-1
 0 512 l 1,18,-1
 64 512 l 1,19,-1
 64 576 l 1,0,-1
EndSplineSet
Validated: 1
EndChar

StartChar: T
Encoding: 84 84 54
Width: 448
GlyphClass: 1
Flags: W
LayerCount: 2
Fore
SplineSet
0 576 m 1,0,-1
 384 576 l 1,1,-1
 384 448 l 1,2,-1
 256 448 l 1,3,-1
 256 -128 l 1,4,-1
 128 -128 l 1,5,-1
 128 448 l 1,6,-1
 0 448 l 1,7,-1
 0 576 l 1,0,-1
EndSplineSet
Validated: 1
EndChar

StartChar: U
Encoding: 85 85 55
Width: 448
GlyphClass: 1
Flags: W
LayerCount: 2
Fore
SplineSet
0 576 m 1,0,-1
 128 576 l 1,1,-1
 128 0 l 1,2,-1
 256 0 l 1,3,-1
 256 576 l 1,4,-1
 384 576 l 1,5,-1
 384 -64 l 1,6,-1
 320 -64 l 1,7,-1
 320 -128 l 1,8,-1
 64 -128 l 1,9,-1
 64 -64 l 1,10,-1
 0 -64 l 1,11,-1
 0 576 l 1,0,-1
EndSplineSet
Validated: 1
EndChar

StartChar: V
Encoding: 86 86 56
Width: 448
GlyphClass: 1
Flags: W
LayerCount: 2
Fore
SplineSet
0 576 m 1,0,-1
 128 576 l 1,1,-1
 128 64 l 1,2,-1
 256 64 l 1,3,-1
 256 576 l 1,4,-1
 384 576 l 1,5,-1
 384 0 l 1,6,-1
 320 0 l 1,7,-1
 320 -64 l 1,8,-1
 256 -64 l 1,9,-1
 256 -128 l 1,10,-1
 128 -128 l 1,11,-1
 128 -64 l 1,12,-1
 64 -64 l 1,13,-1
 64 0 l 1,14,-1
 0 0 l 1,15,-1
 0 576 l 1,0,-1
EndSplineSet
Validated: 1
EndChar

StartChar: W
Encoding: 87 87 57
Width: 576
GlyphClass: 1
Flags: W
LayerCount: 2
Fore
SplineSet
0 576 m 1,0,-1
 128 576 l 1,1,-1
 128 0 l 1,2,-1
 192 0 l 1,3,-1
 192 320 l 1,4,-1
 320 320 l 1,5,-1
 320 0 l 1,6,-1
 384 0 l 1,7,-1
 384 576 l 1,8,-1
 512 576 l 1,9,-1
 512 -64 l 1,10,-1
 448 -64 l 1,11,-1
 448 -128 l 1,12,-1
 64 -128 l 1,13,-1
 64 -64 l 1,14,-1
 0 -64 l 1,15,-1
 0 576 l 1,0,-1
EndSplineSet
Validated: 1
EndChar

StartChar: X
Encoding: 88 88 58
Width: 512
GlyphClass: 1
Flags: W
LayerCount: 2
Fore
SplineSet
0 576 m 1,0,-1
 128 576 l 1,1,-1
 128 384 l 1,2,-1
 192 384 l 1,3,-1
 192 320 l 1,4,-1
 256 320 l 1,5,-1
 256 384 l 1,6,-1
 320 384 l 1,7,-1
 320 576 l 1,8,-1
 448 576 l 1,9,-1
 448 320 l 1,10,-1
 384 320 l 1,11,-1
 384 256 l 1,12,-1
 320 256 l 1,13,-1
 320 192 l 1,14,-1
 384 192 l 1,15,-1
 384 128 l 1,16,-1
 448 128 l 1,17,-1
 448 -128 l 1,18,-1
 320 -128 l 1,19,-1
 320 64 l 1,20,-1
 256 64 l 1,21,-1
 256 128 l 1,22,-1
 192 128 l 1,23,-1
 192 64 l 1,24,-1
 128 64 l 1,25,-1
 128 -128 l 1,26,-1
 0 -128 l 1,27,-1
 0 128 l 1,28,-1
 64 128 l 1,29,-1
 64 192 l 1,30,-1
 128 192 l 1,31,-1
 128 256 l 1,32,-1
 64 256 l 1,33,-1
 64 320 l 1,34,-1
 0 320 l 1,35,-1
 0 576 l 1,0,-1
EndSplineSet
Validated: 1
EndChar

StartChar: Y
Encoding: 89 89 59
Width: 448
GlyphClass: 1
Flags: W
LayerCount: 2
Fore
SplineSet
0 576 m 1,0,-1
 128 576 l 1,1,-1
 128 320 l 1,2,-1
 256 320 l 1,3,-1
 256 576 l 1,4,-1
 384 576 l 1,5,-1
 384 256 l 1,6,-1
 320 256 l 1,7,-1
 320 192 l 1,8,-1
 256 192 l 1,9,-1
 256 -128 l 1,10,-1
 128 -128 l 1,11,-1
 128 192 l 1,12,-1
 64 192 l 1,13,-1
 64 256 l 1,14,-1
 0 256 l 1,15,-1
 0 576 l 1,0,-1
EndSplineSet
Validated: 1
EndChar

StartChar: Z
Encoding: 90 90 60
Width: 448
GlyphClass: 1
Flags: W
LayerCount: 2
Fore
SplineSet
0 576 m 1,0,-1
 384 576 l 1,1,-1
 384 384 l 1,2,-1
 320 384 l 1,3,-1
 320 256 l 1,4,-1
 256 256 l 1,5,-1
 256 128 l 1,6,-1
 192 128 l 1,7,-1
 192 0 l 1,8,-1
 384 0 l 1,9,-1
 384 -128 l 1,10,-1
 0 -128 l 1,11,-1
 0 64 l 1,12,-1
 64 64 l 1,13,-1
 64 192 l 1,14,-1
 128 192 l 1,15,-1
 128 320 l 1,16,-1
 192 320 l 1,17,-1
 192 448 l 1,18,-1
 0 448 l 1,19,-1
 0 576 l 1,0,-1
EndSplineSet
Validated: 1
EndChar

StartChar: bracketleft
Encoding: 91 91 61
Width: 320
GlyphClass: 1
Flags: W
LayerCount: 2
Fore
SplineSet
0 576 m 1,0,-1
 256 576 l 1,1,-1
 256 448 l 1,2,-1
 128 448 l 1,3,-1
 128 -128 l 1,4,-1
 256 -128 l 1,5,-1
 256 -256 l 1,6,-1
 0 -256 l 1,7,-1
 0 576 l 1,0,-1
EndSplineSet
Validated: 1
EndChar

StartChar: backslash
Encoding: 92 92 62
Width: 448
GlyphClass: 1
Flags: W
LayerCount: 2
Fore
SplineSet
0 576 m 1,0,-1
 128 576 l 1,1,-1
 128 448 l 1,2,-1
 192 448 l 1,3,-1
 192 320 l 1,4,-1
 256 320 l 1,5,-1
 256 192 l 1,6,-1
 320 192 l 1,7,-1
 320 64 l 1,8,-1
 384 64 l 1,9,-1
 384 -128 l 1,10,-1
 256 -128 l 1,11,-1
 256 0 l 1,12,-1
 192 0 l 1,13,-1
 192 128 l 1,14,-1
 128 128 l 1,15,-1
 128 256 l 1,16,-1
 64 256 l 1,17,-1
 64 384 l 1,18,-1
 0 384 l 1,19,-1
 0 576 l 1,0,-1
EndSplineSet
Validated: 1
EndChar

StartChar: bracketright
Encoding: 93 93 63
Width: 320
GlyphClass: 1
Flags: W
LayerCount: 2
Fore
SplineSet
0 576 m 1,0,-1
 256 576 l 1,1,-1
 256 -256 l 1,2,-1
 0 -256 l 1,3,-1
 0 -128 l 1,4,-1
 128 -128 l 1,5,-1
 128 448 l 1,6,-1
 0 448 l 1,7,-1
 0 576 l 1,0,-1
EndSplineSet
Validated: 1
EndChar

StartChar: asciicircum
Encoding: 94 94 64
Width: 448
GlyphClass: 1
Flags: W
LayerCount: 2
Fore
SplineSet
128 576 m 1,0,-1
 256 576 l 1,1,-1
 256 512 l 1,2,-1
 320 512 l 1,3,-1
 320 448 l 1,4,-1
 384 448 l 1,5,-1
 384 320 l 1,6,-1
 256 320 l 1,7,-1
 256 384 l 1,8,-1
 128 384 l 1,9,-1
 128 320 l 1,10,-1
 0 320 l 1,11,-1
 0 448 l 1,12,-1
 64 448 l 1,13,-1
 64 512 l 1,14,-1
 128 512 l 1,15,-1
 128 576 l 1,0,-1
EndSplineSet
Validated: 1
EndChar

StartChar: underscore
Encoding: 95 95 65
Width: 448
GlyphClass: 1
Flags: W
LayerCount: 2
Fore
SplineSet
0 0 m 1,0,-1
 384 0 l 1,1,-1
 384 -128 l 1,2,-1
 0 -128 l 1,3,-1
 0 0 l 1,0,-1
EndSplineSet
Validated: 1
EndChar

StartChar: a
Encoding: 97 97 66
Width: 448
GlyphClass: 1
Flags: W
LayerCount: 2
Fore
SplineSet
0 384 m 1,0,-1
 320 384 l 1,1,-1
 320 320 l 1,2,-1
 384 320 l 1,3,-1
 384 -128 l 1,4,-1
 64 -128 l 1,5,-1
 64 -64 l 1,6,-1
 0 -64 l 1,7,-1
 0 128 l 1,8,-1
 64 128 l 1,9,-1
 64 192 l 1,10,-1
 256 192 l 1,11,-1
 256 256 l 1,12,-1
 0 256 l 1,13,-1
 0 384 l 1,0,-1
128 64 m 1,14,-1
 128 0 l 1,15,-1
 256 0 l 1,16,-1
 256 64 l 1,17,-1
 128 64 l 1,14,-1
EndSplineSet
Validated: 1
EndChar

StartChar: b
Encoding: 98 98 67
Width: 448
GlyphClass: 1
Flags: W
LayerCount: 2
Fore
SplineSet
0 576 m 1,0,-1
 128 576 l 1,1,-1
 128 384 l 1,2,-1
 320 384 l 1,3,-1
 320 320 l 1,4,-1
 384 320 l 1,5,-1
 384 -64 l 1,6,-1
 320 -64 l 1,7,-1
 320 -128 l 1,8,-1
 0 -128 l 1,9,-1
 0 576 l 1,0,-1
128 256 m 1,10,-1
 128 0 l 1,11,-1
 256 0 l 1,12,-1
 256 256 l 1,13,-1
 128 256 l 1,10,-1
EndSplineSet
Validated: 1
EndChar

StartChar: c
Encoding: 99 99 68
Width: 448
GlyphClass: 1
Flags: W
LayerCount: 2
Fore
SplineSet
64 384 m 1,0,-1
 384 384 l 1,1,-1
 384 256 l 1,2,-1
 128 256 l 1,3,-1
 128 0 l 1,4,-1
 384 0 l 1,5,-1
 384 -128 l 1,6,-1
 64 -128 l 1,7,-1
 64 -64 l 1,8,-1
 0 -64 l 1,9,-1
 0 320 l 1,10,-1
 64 320 l 1,11,-1
 64 384 l 1,0,-1
EndSplineSet
Validated: 1
EndChar

StartChar: d
Encoding: 100 100 69
Width: 448
GlyphClass: 1
Flags: W
LayerCount: 2
Fore
SplineSet
256 576 m 1,0,-1
 384 576 l 1,1,-1
 384 -128 l 1,2,-1
 64 -128 l 1,3,-1
 64 -64 l 1,4,-1
 0 -64 l 1,5,-1
 0 320 l 1,6,-1
 64 320 l 1,7,-1
 64 384 l 1,8,-1
 256 384 l 1,9,-1
 256 576 l 1,0,-1
128 256 m 1,10,-1
 128 0 l 1,11,-1
 256 0 l 1,12,-1
 256 256 l 1,13,-1
 128 256 l 1,10,-1
EndSplineSet
Validated: 1
EndChar

StartChar: e
Encoding: 101 101 70
Width: 448
GlyphClass: 1
Flags: W
LayerCount: 2
Fore
SplineSet
64 384 m 1,0,-1
 320 384 l 1,1,-1
 320 320 l 1,2,-1
 384 320 l 1,3,-1
 384 64 l 1,4,-1
 128 64 l 1,5,-1
 128 0 l 1,6,-1
 384 0 l 1,7,-1
 384 -128 l 1,8,-1
 64 -128 l 1,9,-1
 64 -64 l 1,10,-1
 0 -64 l 1,11,-1
 0 320 l 1,12,-1
 64 320 l 1,13,-1
 64 384 l 1,0,-1
128 256 m 1,14,-1
 128 192 l 1,15,-1
 256 192 l 1,16,-1
 256 256 l 1,17,-1
 128 256 l 1,14,-1
EndSplineSet
Validated: 1
EndChar

StartChar: f
Encoding: 102 102 71
Width: 448
GlyphClass: 1
Flags: W
LayerCount: 2
Fore
SplineSet
128 576 m 1,0,-1
 384 576 l 1,1,-1
 384 448 l 1,2,-1
 192 448 l 1,3,-1
 192 384 l 1,4,-1
 320 384 l 1,5,-1
 320 256 l 1,6,-1
 192 256 l 1,7,-1
 192 -128 l 1,8,-1
 64 -128 l 1,9,-1
 64 256 l 1,10,-1
 0 256 l 1,11,-1
 0 384 l 1,12,-1
 64 384 l 1,13,-1
 64 512 l 1,14,-1
 128 512 l 1,15,-1
 128 576 l 1,0,-1
EndSplineSet
Validated: 1
EndChar

StartChar: g
Encoding: 103 103 72
Width: 448
GlyphClass: 1
Flags: W
LayerCount: 2
Fore
SplineSet
64 384 m 1,0,-1
 320 384 l 1,1,-1
 320 320 l 1,2,-1
 384 320 l 1,3,-1
 384 -256 l 1,4,-1
 320 -256 l 1,5,-1
 320 -320 l 1,6,-1
 0 -320 l 1,7,-1
 0 -192 l 1,8,-1
 256 -192 l 1,9,-1
 256 -128 l 1,10,-1
 64 -128 l 1,11,-1
 64 -64 l 1,12,-1
 0 -64 l 1,13,-1
 0 320 l 1,14,-1
 64 320 l 1,15,-1
 64 384 l 1,0,-1
128 256 m 1,16,-1
 128 0 l 1,17,-1
 256 0 l 1,18,-1
 256 256 l 1,19,-1
 128 256 l 1,16,-1
EndSplineSet
Validated: 1
EndChar

StartChar: h
Encoding: 104 104 73
Width: 448
GlyphClass: 1
Flags: W
LayerCount: 2
Fore
SplineSet
0 576 m 1,0,-1
 128 576 l 1,1,-1
 128 384 l 1,2,-1
 320 384 l 1,3,-1
 320 320 l 1,4,-1
 384 320 l 1,5,-1
 384 -128 l 1,6,-1
 256 -128 l 1,7,-1
 256 256 l 1,8,-1
 128 256 l 1,9,-1
 128 -128 l 1,10,-1
 0 -128 l 1,11,-1
 0 576 l 1,0,-1
EndSplineSet
Validated: 1
EndChar

StartChar: i
Encoding: 105 105 74
Width: 192
GlyphClass: 1
Flags: W
LayerCount: 2
Fore
SplineSet
0 576 m 1,0,-1
 128 576 l 1,1,-1
 128 448 l 1,2,-1
 0 448 l 1,3,-1
 0 576 l 1,0,-1
0 384 m 1,4,-1
 128 384 l 1,5,-1
 128 -128 l 1,6,-1
 0 -128 l 1,7,-1
 0 384 l 1,4,-1
EndSplineSet
Validated: 1
EndChar

StartChar: j
Encoding: 106 106 75
Width: 320
GlyphClass: 1
Flags: W
LayerCount: 2
Fore
SplineSet
128 576 m 1,0,-1
 256 576 l 1,1,-1
 256 448 l 1,2,-1
 128 448 l 1,3,-1
 128 576 l 1,0,-1
128 384 m 1,4,-1
 256 384 l 1,5,-1
 256 -256 l 1,6,-1
 192 -256 l 1,7,-1
 192 -320 l 1,8,-1
 0 -320 l 1,9,-1
 0 -192 l 1,10,-1
 128 -192 l 1,11,-1
 128 384 l 1,4,-1
EndSplineSet
Validated: 1
EndChar

StartChar: k
Encoding: 107 107 76
Width: 448
GlyphClass: 1
Flags: W
LayerCount: 2
Fore
SplineSet
0 576 m 1,0,-1
 128 576 l 1,1,-1
 128 384 l 1,2,-1
 320 384 l 1,3,-1
 320 320 l 1,4,-1
 384 320 l 1,5,-1
 384 128 l 1,6,-1
 320 128 l 1,7,-1
 320 64 l 1,8,-1
 384 64 l 1,9,-1
 384 -128 l 1,10,-1
 256 -128 l 1,11,-1
 256 0 l 1,12,-1
 192 0 l 1,13,-1
 192 64 l 1,14,-1
 128 64 l 1,15,-1
 128 -128 l 1,16,-1
 0 -128 l 1,17,-1
 0 576 l 1,0,-1
128 256 m 1,18,-1
 128 192 l 1,19,-1
 256 192 l 1,20,-1
 256 256 l 1,21,-1
 128 256 l 1,18,-1
EndSplineSet
Validated: 1
EndChar

StartChar: l
Encoding: 108 108 77
Width: 192
GlyphClass: 1
Flags: W
LayerCount: 2
Fore
SplineSet
0 576 m 1,0,-1
 128 576 l 1,1,-1
 128 -128 l 1,2,-1
 0 -128 l 1,3,-1
 0 576 l 1,0,-1
EndSplineSet
Validated: 1
EndChar

StartChar: m
Encoding: 109 109 78
Width: 576
GlyphClass: 1
Flags: W
LayerCount: 2
Fore
SplineSet
0 384 m 1,0,-1
 448 384 l 1,1,-1
 448 320 l 1,2,-1
 512 320 l 1,3,-1
 512 -128 l 1,4,-1
 384 -128 l 1,5,-1
 384 256 l 1,6,-1
 320 256 l 1,7,-1
 320 -128 l 1,8,-1
 192 -128 l 1,9,-1
 192 256 l 1,10,-1
 128 256 l 1,11,-1
 128 -128 l 1,12,-1
 0 -128 l 1,13,-1
 0 384 l 1,0,-1
EndSplineSet
Validated: 1
EndChar

StartChar: n
Encoding: 110 110 79
Width: 448
GlyphClass: 1
Flags: W
LayerCount: 2
Fore
SplineSet
0 384 m 1,0,-1
 320 384 l 1,1,-1
 320 320 l 1,2,-1
 384 320 l 1,3,-1
 384 -128 l 1,4,-1
 256 -128 l 1,5,-1
 256 256 l 1,6,-1
 128 256 l 1,7,-1
 128 -128 l 1,8,-1
 0 -128 l 1,9,-1
 0 384 l 1,0,-1
EndSplineSet
Validated: 1
EndChar

StartChar: o
Encoding: 111 111 80
Width: 448
GlyphClass: 1
Flags: W
LayerCount: 2
Fore
SplineSet
64 384 m 1,0,-1
 320 384 l 1,1,-1
 320 320 l 1,2,-1
 384 320 l 1,3,-1
 384 -64 l 1,4,-1
 320 -64 l 1,5,-1
 320 -128 l 1,6,-1
 64 -128 l 1,7,-1
 64 -64 l 1,8,-1
 0 -64 l 1,9,-1
 0 320 l 1,10,-1
 64 320 l 1,11,-1
 64 384 l 1,0,-1
128 256 m 1,12,-1
 128 0 l 1,13,-1
 256 0 l 1,14,-1
 256 256 l 1,15,-1
 128 256 l 1,12,-1
EndSplineSet
Validated: 1
EndChar

StartChar: p
Encoding: 112 112 81
Width: 448
GlyphClass: 1
Flags: W
LayerCount: 2
Fore
SplineSet
64 384 m 1,0,-1
 320 384 l 1,1,-1
 320 320 l 1,2,-1
 384 320 l 1,3,-1
 384 -64 l 1,4,-1
 320 -64 l 1,5,-1
 320 -128 l 1,6,-1
 128 -128 l 1,7,-1
 128 -320 l 1,8,-1
 0 -320 l 1,9,-1
 0 320 l 1,10,-1
 64 320 l 1,11,-1
 64 384 l 1,0,-1
128 256 m 1,12,-1
 128 0 l 1,13,-1
 256 0 l 1,14,-1
 256 256 l 1,15,-1
 128 256 l 1,12,-1
EndSplineSet
Validated: 1
EndChar

StartChar: q
Encoding: 113 113 82
Width: 448
GlyphClass: 1
Flags: W
LayerCount: 2
Fore
SplineSet
64 384 m 1,0,-1
 320 384 l 1,1,-1
 320 320 l 1,2,-1
 384 320 l 1,3,-1
 384 -320 l 1,4,-1
 256 -320 l 1,5,-1
 256 -128 l 1,6,-1
 64 -128 l 1,7,-1
 64 -64 l 1,8,-1
 0 -64 l 1,9,-1
 0 320 l 1,10,-1
 64 320 l 1,11,-1
 64 384 l 1,0,-1
128 256 m 1,12,-1
 128 0 l 1,13,-1
 256 0 l 1,14,-1
 256 256 l 1,15,-1
 128 256 l 1,12,-1
EndSplineSet
Validated: 1
EndChar

StartChar: r
Encoding: 114 114 83
Width: 448
GlyphClass: 1
Flags: W
LayerCount: 2
Fore
SplineSet
0 384 m 1,0,-1
 128 384 l 1,1,-1
 128 320 l 1,2,-1
 192 320 l 1,3,-1
 192 384 l 1,4,-1
 384 384 l 1,5,-1
 384 256 l 1,6,-1
 192 256 l 1,7,-1
 192 192 l 1,8,-1
 128 192 l 1,9,-1
 128 -128 l 1,10,-1
 0 -128 l 1,11,-1
 0 384 l 1,0,-1
EndSplineSet
Validated: 1
EndChar

StartChar: s
Encoding: 115 115 84
Width: 448
GlyphClass: 1
Flags: W
LayerCount: 2
Fore
SplineSet
64 384 m 1,0,-1
 384 384 l 1,1,-1
 384 256 l 1,2,-1
 128 256 l 1,3,-1
 128 192 l 1,4,-1
 320 192 l 1,5,-1
 320 128 l 1,6,-1
 384 128 l 1,7,-1
 384 -64 l 1,8,-1
 320 -64 l 1,9,-1
 320 -128 l 1,10,-1
 0 -128 l 1,11,-1
 0 0 l 1,12,-1
 256 0 l 1,13,-1
 256 64 l 1,14,-1
 64 64 l 1,15,-1
 64 128 l 1,16,-1
 0 128 l 1,17,-1
 0 320 l 1,18,-1
 64 320 l 1,19,-1
 64 384 l 1,0,-1
EndSplineSet
Validated: 1
EndChar

StartChar: t
Encoding: 116 116 85
Width: 448
GlyphClass: 1
Flags: W
LayerCount: 2
Fore
SplineSet
64 576 m 1,0,-1
 192 576 l 1,1,-1
 192 384 l 1,2,-1
 384 384 l 1,3,-1
 384 256 l 1,4,-1
 192 256 l 1,5,-1
 192 0 l 1,6,-1
 384 0 l 1,7,-1
 384 -128 l 1,8,-1
 128 -128 l 1,9,-1
 128 -64 l 1,10,-1
 64 -64 l 1,11,-1
 64 256 l 1,12,-1
 0 256 l 1,13,-1
 0 384 l 1,14,-1
 64 384 l 1,15,-1
 64 576 l 1,0,-1
EndSplineSet
Validated: 1
EndChar

StartChar: u
Encoding: 117 117 86
Width: 448
GlyphClass: 1
Flags: W
LayerCount: 2
Fore
SplineSet
0 384 m 1,0,-1
 128 384 l 1,1,-1
 128 0 l 1,2,-1
 256 0 l 1,3,-1
 256 384 l 1,4,-1
 384 384 l 1,5,-1
 384 -64 l 1,6,-1
 320 -64 l 1,7,-1
 320 -128 l 1,8,-1
 64 -128 l 1,9,-1
 64 -64 l 1,10,-1
 0 -64 l 1,11,-1
 0 384 l 1,0,-1
EndSplineSet
Validated: 1
EndChar

StartChar: v
Encoding: 118 118 87
Width: 448
GlyphClass: 1
Flags: W
LayerCount: 2
Fore
SplineSet
0 384 m 1,0,-1
 128 384 l 1,1,-1
 128 64 l 1,2,-1
 256 64 l 1,3,-1
 256 384 l 1,4,-1
 384 384 l 1,5,-1
 384 0 l 1,6,-1
 320 0 l 1,7,-1
 320 -64 l 1,8,-1
 256 -64 l 1,9,-1
 256 -128 l 1,10,-1
 128 -128 l 1,11,-1
 128 -64 l 1,12,-1
 64 -64 l 1,13,-1
 64 0 l 1,14,-1
 0 0 l 1,15,-1
 0 384 l 1,0,-1
EndSplineSet
Validated: 1
EndChar

StartChar: w
Encoding: 119 119 88
Width: 576
GlyphClass: 1
Flags: W
LayerCount: 2
Fore
SplineSet
0 384 m 1,0,-1
 128 384 l 1,1,-1
 128 0 l 1,2,-1
 192 0 l 1,3,-1
 192 320 l 1,4,-1
 320 320 l 1,5,-1
 320 0 l 1,6,-1
 384 0 l 1,7,-1
 384 384 l 1,8,-1
 512 384 l 1,9,-1
 512 -64 l 1,10,-1
 448 -64 l 1,11,-1
 448 -128 l 1,12,-1
 64 -128 l 1,13,-1
 64 -64 l 1,14,-1
 0 -64 l 1,15,-1
 0 384 l 1,0,-1
EndSplineSet
Validated: 1
EndChar

StartChar: x
Encoding: 120 120 89
Width: 512
GlyphClass: 1
Flags: W
LayerCount: 2
Fore
SplineSet
0 384 m 1,0,-1
 128 384 l 1,1,-1
 128 320 l 1,2,-1
 192 320 l 1,3,-1
 192 256 l 1,4,-1
 256 256 l 1,5,-1
 256 320 l 1,6,-1
 320 320 l 1,7,-1
 320 384 l 1,8,-1
 448 384 l 1,9,-1
 448 256 l 1,10,-1
 384 256 l 1,11,-1
 384 192 l 1,12,-1
 320 192 l 1,13,-1
 320 64 l 1,14,-1
 384 64 l 1,15,-1
 384 0 l 1,16,-1
 448 0 l 1,17,-1
 448 -128 l 1,18,-1
 320 -128 l 1,19,-1
 320 -64 l 1,20,-1
 256 -64 l 1,21,-1
 256 0 l 1,22,-1
 192 0 l 1,23,-1
 192 -64 l 1,24,-1
 128 -64 l 1,25,-1
 128 -128 l 1,26,-1
 0 -128 l 1,27,-1
 0 0 l 1,28,-1
 64 0 l 1,29,-1
 64 64 l 1,30,-1
 128 64 l 1,31,-1
 128 192 l 1,32,-1
 64 192 l 1,33,-1
 64 256 l 1,34,-1
 0 256 l 1,35,-1
 0 384 l 1,0,-1
EndSplineSet
Validated: 1
EndChar

StartChar: y
Encoding: 121 121 90
Width: 448
GlyphClass: 1
Flags: W
LayerCount: 2
Fore
SplineSet
0 384 m 1,0,-1
 128 384 l 1,1,-1
 128 0 l 1,2,-1
 256 0 l 1,3,-1
 256 384 l 1,4,-1
 384 384 l 1,5,-1
 384 -256 l 1,6,-1
 320 -256 l 1,7,-1
 320 -320 l 1,8,-1
 0 -320 l 1,9,-1
 0 -192 l 1,10,-1
 256 -192 l 1,11,-1
 256 -128 l 1,12,-1
 64 -128 l 1,13,-1
 64 -64 l 1,14,-1
 0 -64 l 1,15,-1
 0 384 l 1,0,-1
EndSplineSet
Validated: 1
EndChar

StartChar: z
Encoding: 122 122 91
Width: 448
GlyphClass: 1
Flags: W
LayerCount: 2
Fore
SplineSet
0 384 m 1,0,-1
 384 384 l 1,1,-1
 384 192 l 1,2,-1
 320 192 l 1,3,-1
 320 128 l 1,4,-1
 256 128 l 1,5,-1
 256 64 l 1,6,-1
 192 64 l 1,7,-1
 192 0 l 1,8,-1
 384 0 l 1,9,-1
 384 -128 l 1,10,-1
 0 -128 l 1,11,-1
 0 64 l 1,12,-1
 64 64 l 1,13,-1
 64 128 l 1,14,-1
 128 128 l 1,15,-1
 128 192 l 1,16,-1
 192 192 l 1,17,-1
 192 256 l 1,18,-1
 0 256 l 1,19,-1
 0 384 l 1,0,-1
EndSplineSet
Validated: 1
EndChar

StartChar: braceleft
Encoding: 123 123 92
Width: 384
GlyphClass: 1
Flags: W
LayerCount: 2
Fore
SplineSet
128 576 m 1,0,-1
 320 576 l 1,1,-1
 320 448 l 1,2,-1
 192 448 l 1,3,-1
 192 192 l 1,4,-1
 128 192 l 1,5,-1
 128 128 l 1,6,-1
 192 128 l 1,7,-1
 192 -128 l 1,8,-1
 320 -128 l 1,9,-1
 320 -256 l 1,10,-1
 128 -256 l 1,11,-1
 128 -192 l 1,12,-1
 64 -192 l 1,13,-1
 64 128 l 1,14,-1
 0 128 l 1,15,-1
 0 256 l 1,16,-1
 64 256 l 1,17,-1
 64 512 l 1,18,-1
 128 512 l 1,19,-1
 128 576 l 1,0,-1
EndSplineSet
Validated: 1
EndChar

StartChar: bar
Encoding: 124 124 93
Width: 192
GlyphClass: 1
Flags: W
LayerCount: 2
Fore
SplineSet
0 576 m 1,0,-1
 128 576 l 1,1,-1
 128 -256 l 1,2,-1
 0 -256 l 1,3,-1
 0 576 l 1,0,-1
EndSplineSet
Validated: 1
EndChar

StartChar: braceright
Encoding: 125 125 94
Width: 384
GlyphClass: 1
Flags: W
LayerCount: 2
Fore
SplineSet
0 576 m 1,0,-1
 192 576 l 1,1,-1
 192 512 l 1,2,-1
 256 512 l 1,3,-1
 256 256 l 1,4,-1
 320 256 l 1,5,-1
 320 128 l 1,6,-1
 256 128 l 1,7,-1
 256 -192 l 1,8,-1
 192 -192 l 1,9,-1
 192 -256 l 1,10,-1
 0 -256 l 1,11,-1
 0 -128 l 1,12,-1
 128 -128 l 1,13,-1
 128 128 l 1,14,-1
 192 128 l 1,15,-1
 192 192 l 1,16,-1
 128 192 l 1,17,-1
 128 448 l 1,18,-1
 0 448 l 1,19,-1
 0 576 l 1,0,-1
EndSplineSet
Validated: 1
EndChar

StartChar: asciitilde
Encoding: 126 126 95
Width: 448
GlyphClass: 1
Flags: W
LayerCount: 2
Fore
SplineSet
64 320 m 1,0,-1
 192 320 l 1,1,-1
 192 256 l 1,2,-1
 256 256 l 1,3,-1
 256 192 l 1,4,-1
 320 192 l 1,5,-1
 320 256 l 1,6,-1
 384 256 l 1,7,-1
 384 128 l 1,8,-1
 320 128 l 1,9,-1
 320 64 l 1,10,-1
 192 64 l 1,11,-1
 192 128 l 1,12,-1
 128 128 l 1,13,-1
 128 192 l 1,14,-1
 64 192 l 1,15,-1
 64 128 l 1,16,-1
 0 128 l 1,17,-1
 0 256 l 1,18,-1
 64 256 l 1,19,-1
 64 320 l 1,0,-1
EndSplineSet
Validated: 1
EndChar

StartChar: exclamdown
Encoding: 161 161 96
Width: 192
GlyphClass: 1
Flags: W
LayerCount: 2
Fore
SplineSet
0 384 m 1,0,-1
 128 384 l 1,1,-1
 128 256 l 1,2,-1
 0 256 l 1,3,-1
 0 384 l 1,0,-1
0 192 m 1,4,-1
 128 192 l 1,5,-1
 128 -320 l 1,6,-1
 0 -320 l 1,7,-1
 0 192 l 1,4,-1
EndSplineSet
Validated: 1
EndChar

StartChar: cent
Encoding: 162 162 97
Width: 448
GlyphClass: 1
Flags: W
LayerCount: 2
Fore
SplineSet
128 512 m 1,0,-1
 256 512 l 1,1,-1
 256 384 l 1,2,-1
 384 384 l 1,3,-1
 384 256 l 1,4,-1
 128 256 l 1,5,-1
 128 0 l 1,6,-1
 384 0 l 1,7,-1
 384 -128 l 1,8,-1
 256 -128 l 1,9,-1
 256 -256 l 1,10,-1
 128 -256 l 1,11,-1
 128 -128 l 1,12,-1
 64 -128 l 1,13,-1
 64 -64 l 1,14,-1
 0 -64 l 1,15,-1
 0 320 l 1,16,-1
 64 320 l 1,17,-1
 64 384 l 1,18,-1
 128 384 l 1,19,-1
 128 512 l 1,0,-1
EndSplineSet
Validated: 1
EndChar

StartChar: sterling
Encoding: 163 163 98
Width: 512
GlyphClass: 1
Flags: W
LayerCount: 2
Fore
SplineSet
128 576 m 1,0,-1
 384 576 l 1,1,-1
 384 512 l 1,2,-1
 448 512 l 1,3,-1
 448 384 l 1,4,-1
 320 384 l 1,5,-1
 320 448 l 1,6,-1
 192 448 l 1,7,-1
 192 256 l 1,8,-1
 384 256 l 1,9,-1
 384 128 l 1,10,-1
 192 128 l 1,11,-1
 192 0 l 1,12,-1
 448 0 l 1,13,-1
 448 -128 l 1,14,-1
 0 -128 l 1,15,-1
 0 0 l 1,16,-1
 64 0 l 1,17,-1
 64 128 l 1,18,-1
 0 128 l 1,19,-1
 0 256 l 1,20,-1
 64 256 l 1,21,-1
 64 512 l 1,22,-1
 128 512 l 1,23,-1
 128 576 l 1,0,-1
EndSplineSet
Validated: 1
EndChar

StartChar: currency
Encoding: 164 164 99
Width: 576
GlyphClass: 1
Flags: W
LayerCount: 2
Fore
SplineSet
0 512 m 1,0,-1
 128 512 l 1,1,-1
 128 448 l 1,2,-1
 384 448 l 1,3,-1
 384 512 l 1,4,-1
 512 512 l 1,5,-1
 512 384 l 1,6,-1
 448 384 l 1,7,-1
 448 128 l 1,8,-1
 512 128 l 1,9,-1
 512 0 l 1,10,-1
 384 0 l 1,11,-1
 384 64 l 1,12,-1
 128 64 l 1,13,-1
 128 0 l 1,14,-1
 0 0 l 1,15,-1
 0 128 l 1,16,-1
 64 128 l 1,17,-1
 64 384 l 1,18,-1
 0 384 l 1,19,-1
 0 512 l 1,0,-1
192 320 m 1,20,-1
 192 192 l 1,21,-1
 320 192 l 1,22,-1
 320 320 l 1,23,-1
 192 320 l 1,20,-1
EndSplineSet
Validated: 1
EndChar

StartChar: yen
Encoding: 165 165 100
Width: 448
GlyphClass: 1
Flags: W
LayerCount: 2
Fore
SplineSet
0 576 m 1,0,-1
 128 576 l 1,1,-1
 128 384 l 1,2,-1
 256 384 l 1,3,-1
 256 576 l 1,4,-1
 384 576 l 1,5,-1
 384 320 l 1,6,-1
 320 320 l 1,7,-1
 320 256 l 1,8,-1
 256 256 l 1,9,-1
 256 192 l 1,10,-1
 384 192 l 1,11,-1
 384 128 l 1,12,-1
 256 128 l 1,13,-1
 256 64 l 1,14,-1
 384 64 l 1,15,-1
 384 0 l 1,16,-1
 256 0 l 1,17,-1
 256 -128 l 1,18,-1
 128 -128 l 1,19,-1
 128 0 l 1,20,-1
 0 0 l 1,21,-1
 0 64 l 1,22,-1
 128 64 l 1,23,-1
 128 128 l 1,24,-1
 0 128 l 1,25,-1
 0 192 l 1,26,-1
 128 192 l 1,27,-1
 128 256 l 1,28,-1
 64 256 l 1,29,-1
 64 320 l 1,30,-1
 0 320 l 1,31,-1
 0 576 l 1,0,-1
EndSplineSet
Validated: 1
EndChar

StartChar: brokenbar
Encoding: 166 166 101
Width: 192
GlyphClass: 1
Flags: W
LayerCount: 2
Fore
SplineSet
0 576 m 1,0,-1
 128 576 l 1,1,-1
 128 256 l 1,2,-1
 0 256 l 1,3,-1
 0 576 l 1,0,-1
0 64 m 1,4,-1
 128 64 l 1,5,-1
 128 -256 l 1,6,-1
 0 -256 l 1,7,-1
 0 64 l 1,4,-1
EndSplineSet
Validated: 1
EndChar

StartChar: section
Encoding: 167 167 102
Width: 448
GlyphClass: 1
Flags: W
LayerCount: 2
Fore
SplineSet
64 576 m 1,0,-1
 384 576 l 1,1,-1
 384 448 l 1,2,-1
 128 448 l 1,3,-1
 128 384 l 1,4,-1
 256 384 l 1,5,-1
 256 320 l 1,6,-1
 320 320 l 1,7,-1
 320 256 l 1,8,-1
 384 256 l 1,9,-1
 384 0 l 1,10,-1
 320 0 l 1,11,-1
 320 -64 l 1,12,-1
 384 -64 l 1,13,-1
 384 -256 l 1,14,-1
 320 -256 l 1,15,-1
 320 -320 l 1,16,-1
 0 -320 l 1,17,-1
 0 -192 l 1,18,-1
 256 -192 l 1,19,-1
 256 -128 l 1,20,-1
 128 -128 l 1,21,-1
 128 -64 l 1,22,-1
 64 -64 l 1,23,-1
 64 0 l 1,24,-1
 0 0 l 1,25,-1
 0 256 l 1,26,-1
 64 256 l 1,27,-1
 64 320 l 1,28,-1
 0 320 l 1,29,-1
 0 512 l 1,30,-1
 64 512 l 1,31,-1
 64 576 l 1,0,-1
128 192 m 1,32,-1
 128 64 l 1,33,-1
 256 64 l 1,34,-1
 256 192 l 1,35,-1
 128 192 l 1,32,-1
EndSplineSet
Validated: 1
EndChar

StartChar: dieresis
Encoding: 168 168 103
Width: 384
GlyphClass: 1
Flags: W
LayerCount: 2
Fore
SplineSet
0 576 m 1,0,-1
 128 576 l 1,1,-1
 128 448 l 1,2,-1
 0 448 l 1,3,-1
 0 576 l 1,0,-1
192 576 m 1,4,-1
 320 576 l 1,5,-1
 320 448 l 1,6,-1
 192 448 l 1,7,-1
 192 576 l 1,4,-1
EndSplineSet
Validated: 1
EndChar

StartChar: copyright
Encoding: 169 169 104
Width: 640
GlyphClass: 1
Flags: W
LayerCount: 2
Fore
SplineSet
128 576 m 1,0,-1
 448 576 l 1,1,-1
 448 512 l 1,2,-1
 512 512 l 1,3,-1
 512 448 l 1,4,-1
 576 448 l 1,5,-1
 576 0 l 1,6,-1
 512 0 l 1,7,-1
 512 -64 l 1,8,-1
 448 -64 l 1,9,-1
 448 -128 l 1,10,-1
 128 -128 l 1,11,-1
 128 -64 l 1,12,-1
 64 -64 l 1,13,-1
 64 0 l 1,14,-1
 0 0 l 1,15,-1
 0 448 l 1,16,-1
 64 448 l 1,17,-1
 64 512 l 1,18,-1
 128 512 l 1,19,-1
 128 576 l 1,0,-1
192 448 m 1,20,-1
 192 384 l 1,21,-1
 128 384 l 1,22,-1
 128 64 l 1,23,-1
 192 64 l 1,24,-1
 192 0 l 1,25,-1
 384 0 l 1,26,-1
 384 64 l 1,27,-1
 256 64 l 1,28,-1
 256 128 l 1,29,-1
 192 128 l 1,30,-1
 192 320 l 1,31,-1
 256 320 l 1,32,-1
 256 384 l 1,33,-1
 384 384 l 1,34,-1
 384 448 l 1,35,-1
 192 448 l 1,20,-1
384 384 m 1,36,-1
 384 320 l 1,37,-1
 256 320 l 1,38,-1
 256 128 l 1,39,-1
 384 128 l 1,40,-1
 384 64 l 1,41,-1
 448 64 l 1,42,-1
 448 384 l 1,43,-1
 384 384 l 1,36,-1
256 384 m 1,44,-1
 384 384 l 1,45,-1
 384 320 l 1,46,-1
 256 320 l 1,47,-1
 256 384 l 1,44,-1
192 320 m 1,48,-1
 256 320 l 1,49,-1
 256 128 l 1,50,-1
 192 128 l 1,51,-1
 192 320 l 1,48,-1
256 128 m 1,52,-1
 384 128 l 1,53,-1
 384 64 l 1,54,-1
 256 64 l 1,55,-1
 256 128 l 1,52,-1
EndSplineSet
Validated: 5
EndChar

StartChar: ordfeminine
Encoding: 170 170 105
Width: 256
GlyphClass: 1
Flags: W
LayerCount: 2
Fore
SplineSet
0 576 m 1,0,-1
 128 576 l 1,1,-1
 128 512 l 1,2,-1
 0 512 l 1,3,-1
 0 576 l 1,0,-1
128 512 m 1,4,-1
 192 512 l 1,5,-1
 192 256 l 1,6,-1
 64 256 l 1,7,-1
 64 320 l 1,8,-1
 128 320 l 1,9,-1
 128 384 l 1,10,-1
 64 384 l 1,11,-1
 64 448 l 1,12,-1
 128 448 l 1,13,-1
 128 512 l 1,4,-1
0 384 m 1,14,-1
 64 384 l 1,15,-1
 64 320 l 1,16,-1
 0 320 l 1,17,-1
 0 384 l 1,14,-1
EndSplineSet
Validated: 5
EndChar

StartChar: guillemotleft
Encoding: 171 171 106
Width: 640
GlyphClass: 1
Flags: W
LayerCount: 2
Fore
SplineSet
192 384 m 1,0,-1
 320 384 l 1,1,-1
 320 256 l 1,2,-1
 256 256 l 1,3,-1
 256 192 l 1,4,-1
 192 192 l 1,5,-1
 192 64 l 1,6,-1
 256 64 l 1,7,-1
 256 0 l 1,8,-1
 320 0 l 1,9,-1
 320 -128 l 1,10,-1
 192 -128 l 1,11,-1
 192 -64 l 1,12,-1
 128 -64 l 1,13,-1
 128 0 l 1,14,-1
 64 0 l 1,15,-1
 64 64 l 1,16,-1
 0 64 l 1,17,-1
 0 192 l 1,18,-1
 64 192 l 1,19,-1
 64 256 l 1,20,-1
 128 256 l 1,21,-1
 128 320 l 1,22,-1
 192 320 l 1,23,-1
 192 384 l 1,0,-1
448 384 m 1,24,-1
 576 384 l 1,25,-1
 576 256 l 1,26,-1
 512 256 l 1,27,-1
 512 192 l 1,28,-1
 448 192 l 1,29,-1
 448 64 l 1,30,-1
 512 64 l 1,31,-1
 512 0 l 1,32,-1
 576 0 l 1,33,-1
 576 -128 l 1,34,-1
 448 -128 l 1,35,-1
 448 -64 l 1,36,-1
 384 -64 l 1,37,-1
 384 0 l 1,38,-1
 320 0 l 1,39,-1
 320 64 l 1,40,-1
 256 64 l 1,41,-1
 256 192 l 1,42,-1
 320 192 l 1,43,-1
 320 256 l 1,44,-1
 384 256 l 1,45,-1
 384 320 l 1,46,-1
 448 320 l 1,47,-1
 448 384 l 1,24,-1
EndSplineSet
Validated: 5
EndChar

StartChar: logicalnot
Encoding: 172 172 107
Width: 448
GlyphClass: 1
Flags: W
LayerCount: 2
Fore
SplineSet
0 576 m 1,0,-1
 384 576 l 1,1,-1
 384 320 l 1,2,-1
 256 320 l 1,3,-1
 256 448 l 1,4,-1
 0 448 l 1,5,-1
 0 576 l 1,0,-1
EndSplineSet
Validated: 1
EndChar

StartChar: registered
Encoding: 174 174 108
Width: 640
GlyphClass: 1
Flags: W
LayerCount: 2
Fore
SplineSet
128 576 m 1,0,-1
 448 576 l 1,1,-1
 448 512 l 1,2,-1
 512 512 l 1,3,-1
 512 448 l 1,4,-1
 576 448 l 1,5,-1
 576 0 l 1,6,-1
 512 0 l 1,7,-1
 512 -64 l 1,8,-1
 448 -64 l 1,9,-1
 448 -128 l 1,10,-1
 128 -128 l 1,11,-1
 128 -64 l 1,12,-1
 64 -64 l 1,13,-1
 64 0 l 1,14,-1
 0 0 l 1,15,-1
 0 448 l 1,16,-1
 64 448 l 1,17,-1
 64 512 l 1,18,-1
 128 512 l 1,19,-1
 128 576 l 1,0,-1
192 448 m 1,20,-1
 192 384 l 1,21,-1
 320 384 l 1,22,-1
 320 320 l 1,23,-1
 384 320 l 1,24,-1
 384 256 l 1,25,-1
 320 256 l 1,26,-1
 320 192 l 1,27,-1
 384 192 l 1,28,-1
 384 64 l 1,29,-1
 448 64 l 1,30,-1
 448 384 l 1,31,-1
 384 384 l 1,32,-1
 384 448 l 1,33,-1
 192 448 l 1,20,-1
128 384 m 1,34,-1
 128 64 l 1,35,-1
 192 64 l 1,36,-1
 192 384 l 1,37,-1
 128 384 l 1,34,-1
192 384 m 1,38,-1
 320 384 l 1,39,-1
 320 320 l 1,40,-1
 256 320 l 1,41,-1
 256 256 l 1,42,-1
 320 256 l 1,43,-1
 320 192 l 1,44,-1
 256 192 l 1,45,-1
 256 64 l 1,46,-1
 192 64 l 1,47,-1
 192 384 l 1,38,-1
256 320 m 1,48,-1
 256 256 l 1,49,-1
 320 256 l 1,50,-1
 320 320 l 1,51,-1
 256 320 l 1,48,-1
256 192 m 1,52,-1
 256 64 l 1,53,-1
 192 64 l 1,54,-1
 192 0 l 1,55,-1
 384 0 l 1,56,-1
 384 64 l 1,57,-1
 320 64 l 1,58,-1
 320 192 l 1,59,-1
 256 192 l 1,52,-1
320 320 m 1,60,-1
 384 320 l 1,61,-1
 384 256 l 1,62,-1
 320 256 l 1,63,-1
 320 320 l 1,60,-1
320 192 m 1,64,-1
 384 192 l 1,65,-1
 384 64 l 1,66,-1
 320 64 l 1,67,-1
 320 192 l 1,64,-1
EndSplineSet
Validated: 5
EndChar

StartChar: degree
Encoding: 176 176 109
Width: 384
GlyphClass: 1
Flags: W
LayerCount: 2
Fore
SplineSet
64 576 m 1,0,-1
 256 576 l 1,1,-1
 256 512 l 1,2,-1
 320 512 l 1,3,-1
 320 320 l 1,4,-1
 256 320 l 1,5,-1
 256 256 l 1,6,-1
 64 256 l 1,7,-1
 64 320 l 1,8,-1
 0 320 l 1,9,-1
 0 512 l 1,10,-1
 64 512 l 1,11,-1
 64 576 l 1,0,-1
128 448 m 1,12,-1
 128 384 l 1,13,-1
 192 384 l 1,14,-1
 192 448 l 1,15,-1
 128 448 l 1,12,-1
EndSplineSet
Validated: 1
EndChar

StartChar: plusminus
Encoding: 177 177 110
Width: 448
GlyphClass: 1
Flags: W
LayerCount: 2
Fore
SplineSet
128 384 m 1,0,-1
 256 384 l 1,1,-1
 256 256 l 1,2,-1
 384 256 l 1,3,-1
 384 128 l 1,4,-1
 256 128 l 1,5,-1
 256 0 l 1,6,-1
 384 0 l 1,7,-1
 384 -128 l 1,8,-1
 0 -128 l 1,9,-1
 0 0 l 1,10,-1
 128 0 l 1,11,-1
 128 128 l 1,12,-1
 0 128 l 1,13,-1
 0 256 l 1,14,-1
 128 256 l 1,15,-1
 128 384 l 1,0,-1
EndSplineSet
Validated: 1
EndChar

StartChar: paragraph
Encoding: 182 182 111
Width: 576
GlyphClass: 1
Flags: W
LayerCount: 2
Fore
SplineSet
64 576 m 1,0,-1
 512 576 l 1,1,-1
 512 -320 l 1,2,-1
 384 -320 l 1,3,-1
 384 448 l 1,4,-1
 320 448 l 1,5,-1
 320 -320 l 1,6,-1
 192 -320 l 1,7,-1
 192 192 l 1,8,-1
 64 192 l 1,9,-1
 64 256 l 1,10,-1
 0 256 l 1,11,-1
 0 512 l 1,12,-1
 64 512 l 1,13,-1
 64 576 l 1,0,-1
EndSplineSet
Validated: 1
EndChar

StartChar: ordmasculine
Encoding: 186 186 112
Width: 384
GlyphClass: 1
Flags: W
LayerCount: 2
Fore
SplineSet
64 576 m 1,0,-1
 256 576 l 1,1,-1
 256 512 l 1,2,-1
 320 512 l 1,3,-1
 320 256 l 1,4,-1
 256 256 l 1,5,-1
 256 192 l 1,6,-1
 64 192 l 1,7,-1
 64 256 l 1,8,-1
 0 256 l 1,9,-1
 0 512 l 1,10,-1
 64 512 l 1,11,-1
 64 576 l 1,0,-1
128 448 m 1,12,-1
 128 320 l 1,13,-1
 192 320 l 1,14,-1
 192 448 l 1,15,-1
 128 448 l 1,12,-1
EndSplineSet
Validated: 1
EndChar

StartChar: guillemotright
Encoding: 187 187 113
Width: 640
GlyphClass: 1
Flags: W
LayerCount: 2
Fore
SplineSet
0 384 m 1,0,-1
 128 384 l 1,1,-1
 128 320 l 1,2,-1
 192 320 l 1,3,-1
 192 256 l 1,4,-1
 256 256 l 1,5,-1
 256 192 l 1,6,-1
 320 192 l 1,7,-1
 320 64 l 1,8,-1
 256 64 l 1,9,-1
 256 0 l 1,10,-1
 192 0 l 1,11,-1
 192 -64 l 1,12,-1
 128 -64 l 1,13,-1
 128 -128 l 1,14,-1
 0 -128 l 1,15,-1
 0 0 l 1,16,-1
 64 0 l 1,17,-1
 64 64 l 1,18,-1
 128 64 l 1,19,-1
 128 192 l 1,20,-1
 64 192 l 1,21,-1
 64 256 l 1,22,-1
 0 256 l 1,23,-1
 0 384 l 1,0,-1
256 384 m 1,24,-1
 384 384 l 1,25,-1
 384 320 l 1,26,-1
 448 320 l 1,27,-1
 448 256 l 1,28,-1
 512 256 l 1,29,-1
 512 192 l 1,30,-1
 576 192 l 1,31,-1
 576 64 l 1,32,-1
 512 64 l 1,33,-1
 512 0 l 1,34,-1
 448 0 l 1,35,-1
 448 -64 l 1,36,-1
 384 -64 l 1,37,-1
 384 -128 l 1,38,-1
 256 -128 l 1,39,-1
 256 0 l 1,40,-1
 320 0 l 1,41,-1
 320 64 l 1,42,-1
 384 64 l 1,43,-1
 384 192 l 1,44,-1
 320 192 l 1,45,-1
 320 256 l 1,46,-1
 256 256 l 1,47,-1
 256 384 l 1,24,-1
EndSplineSet
Validated: 5
EndChar

StartChar: questiondown
Encoding: 191 191 114
Width: 448
GlyphClass: 1
Flags: W
LayerCount: 2
Fore
SplineSet
128 576 m 1,0,-1
 256 576 l 1,1,-1
 256 448 l 1,2,-1
 128 448 l 1,3,-1
 128 576 l 1,0,-1
128 384 m 1,4,-1
 256 384 l 1,5,-1
 256 192 l 1,6,-1
 192 192 l 1,7,-1
 192 128 l 1,8,-1
 128 128 l 1,9,-1
 128 0 l 1,10,-1
 256 0 l 1,11,-1
 256 64 l 1,12,-1
 384 64 l 1,13,-1
 384 -64 l 1,14,-1
 320 -64 l 1,15,-1
 320 -128 l 1,16,-1
 64 -128 l 1,17,-1
 64 -64 l 1,18,-1
 0 -64 l 1,19,-1
 0 192 l 1,20,-1
 64 192 l 1,21,-1
 64 256 l 1,22,-1
 128 256 l 1,23,-1
 128 384 l 1,4,-1
EndSplineSet
Validated: 1
EndChar

StartChar: Agrave
Encoding: 192 192 115
Width: 448
GlyphClass: 1
Flags: W
LayerCount: 2
Fore
SplineSet
128 832 m 1,0,-1
 256 832 l 1,1,-1
 256 640 l 1,2,-1
 192 640 l 1,3,-1
 192 704 l 1,4,-1
 128 704 l 1,5,-1
 128 832 l 1,0,-1
64 576 m 1,6,-1
 320 576 l 1,7,-1
 320 512 l 1,8,-1
 384 512 l 1,9,-1
 384 -128 l 1,10,-1
 256 -128 l 1,11,-1
 256 128 l 1,12,-1
 128 128 l 1,13,-1
 128 -128 l 1,14,-1
 0 -128 l 1,15,-1
 0 512 l 1,16,-1
 64 512 l 1,17,-1
 64 576 l 1,6,-1
128 448 m 1,18,-1
 128 256 l 1,19,-1
 256 256 l 1,20,-1
 256 448 l 1,21,-1
 128 448 l 1,18,-1
EndSplineSet
Validated: 1
EndChar

StartChar: Aacute
Encoding: 193 193 116
Width: 448
GlyphClass: 1
Flags: W
LayerCount: 2
Fore
SplineSet
128 832 m 1,0,-1
 256 832 l 1,1,-1
 256 704 l 1,2,-1
 192 704 l 1,3,-1
 192 640 l 1,4,-1
 128 640 l 1,5,-1
 128 832 l 1,0,-1
64 576 m 1,6,-1
 320 576 l 1,7,-1
 320 512 l 1,8,-1
 384 512 l 1,9,-1
 384 -128 l 1,10,-1
 256 -128 l 1,11,-1
 256 128 l 1,12,-1
 128 128 l 1,13,-1
 128 -128 l 1,14,-1
 0 -128 l 1,15,-1
 0 512 l 1,16,-1
 64 512 l 1,17,-1
 64 576 l 1,6,-1
128 448 m 1,18,-1
 128 256 l 1,19,-1
 256 256 l 1,20,-1
 256 448 l 1,21,-1
 128 448 l 1,18,-1
EndSplineSet
Validated: 1
EndChar

StartChar: Atilde
Encoding: 195 195 117
Width: 448
GlyphClass: 1
Flags: W
LayerCount: 2
Fore
SplineSet
64 832 m 1,0,-1
 192 832 l 1,1,-1
 192 768 l 1,2,-1
 320 768 l 1,3,-1
 320 832 l 1,4,-1
 384 832 l 1,5,-1
 384 704 l 1,6,-1
 320 704 l 1,7,-1
 320 640 l 1,8,-1
 192 640 l 1,9,-1
 192 704 l 1,10,-1
 64 704 l 1,11,-1
 64 640 l 1,12,-1
 0 640 l 1,13,-1
 0 768 l 1,14,-1
 64 768 l 1,15,-1
 64 832 l 1,0,-1
64 576 m 1,16,-1
 320 576 l 1,17,-1
 320 512 l 1,18,-1
 384 512 l 1,19,-1
 384 -128 l 1,20,-1
 256 -128 l 1,21,-1
 256 128 l 1,22,-1
 128 128 l 1,23,-1
 128 -128 l 1,24,-1
 0 -128 l 1,25,-1
 0 512 l 1,26,-1
 64 512 l 1,27,-1
 64 576 l 1,16,-1
128 448 m 1,28,-1
 128 256 l 1,29,-1
 256 256 l 1,30,-1
 256 448 l 1,31,-1
 128 448 l 1,28,-1
EndSplineSet
Validated: 1
EndChar

StartChar: Adieresis
Encoding: 196 196 118
Width: 448
GlyphClass: 1
Flags: W
LayerCount: 2
Fore
SplineSet
0 768 m 1,0,-1
 128 768 l 1,1,-1
 128 640 l 1,2,-1
 0 640 l 1,3,-1
 0 768 l 1,0,-1
256 768 m 1,4,-1
 384 768 l 1,5,-1
 384 640 l 1,6,-1
 256 640 l 1,7,-1
 256 768 l 1,4,-1
64 576 m 1,8,-1
 320 576 l 1,9,-1
 320 512 l 1,10,-1
 384 512 l 1,11,-1
 384 -128 l 1,12,-1
 256 -128 l 1,13,-1
 256 128 l 1,14,-1
 128 128 l 1,15,-1
 128 -128 l 1,16,-1
 0 -128 l 1,17,-1
 0 512 l 1,18,-1
 64 512 l 1,19,-1
 64 576 l 1,8,-1
128 448 m 1,20,-1
 128 256 l 1,21,-1
 256 256 l 1,22,-1
 256 448 l 1,23,-1
 128 448 l 1,20,-1
EndSplineSet
Validated: 1
EndChar

StartChar: Aring
Encoding: 197 197 119
Width: 448
GlyphClass: 1
Flags: W
LayerCount: 2
Fore
SplineSet
128 832 m 1,0,-1
 320 832 l 1,1,-1
 320 640 l 1,2,-1
 128 640 l 1,3,-1
 128 832 l 1,0,-1
192 768 m 1,4,-1
 192 704 l 1,5,-1
 256 704 l 1,6,-1
 256 768 l 1,7,-1
 192 768 l 1,4,-1
64 576 m 1,8,-1
 320 576 l 1,9,-1
 320 512 l 1,10,-1
 384 512 l 1,11,-1
 384 -128 l 1,12,-1
 256 -128 l 1,13,-1
 256 128 l 1,14,-1
 128 128 l 1,15,-1
 128 -128 l 1,16,-1
 0 -128 l 1,17,-1
 0 512 l 1,18,-1
 64 512 l 1,19,-1
 64 576 l 1,8,-1
128 448 m 1,20,-1
 128 256 l 1,21,-1
 256 256 l 1,22,-1
 256 448 l 1,23,-1
 128 448 l 1,20,-1
EndSplineSet
Validated: 1
EndChar

StartChar: AE
Encoding: 198 198 120
Width: 704
GlyphClass: 1
Flags: W
LayerCount: 2
Fore
SplineSet
64 576 m 1,0,-1
 640 576 l 1,1,-1
 640 448 l 1,2,-1
 384 448 l 1,3,-1
 384 320 l 1,4,-1
 576 320 l 1,5,-1
 576 192 l 1,6,-1
 384 192 l 1,7,-1
 384 0 l 1,8,-1
 640 0 l 1,9,-1
 640 -128 l 1,10,-1
 256 -128 l 1,11,-1
 256 128 l 1,12,-1
 128 128 l 1,13,-1
 128 -128 l 1,14,-1
 0 -128 l 1,15,-1
 0 512 l 1,16,-1
 64 512 l 1,17,-1
 64 576 l 1,0,-1
128 448 m 1,18,-1
 128 256 l 1,19,-1
 256 256 l 1,20,-1
 256 448 l 1,21,-1
 128 448 l 1,18,-1
EndSplineSet
Validated: 1
EndChar

StartChar: Ccedilla
Encoding: 199 199 121
Width: 448
GlyphClass: 1
Flags: W
LayerCount: 2
Fore
SplineSet
64 576 m 1,0,-1
 384 576 l 1,1,-1
 384 448 l 1,2,-1
 128 448 l 1,3,-1
 128 0 l 1,4,-1
 384 0 l 1,5,-1
 384 -128 l 1,6,-1
 320 -128 l 1,7,-1
 320 -256 l 1,8,-1
 128 -256 l 1,9,-1
 128 -192 l 1,10,-1
 256 -192 l 1,11,-1
 256 -128 l 1,12,-1
 64 -128 l 1,13,-1
 64 -64 l 1,14,-1
 0 -64 l 1,15,-1
 0 512 l 1,16,-1
 64 512 l 1,17,-1
 64 576 l 1,0,-1
EndSplineSet
Validated: 1
EndChar

StartChar: Egrave
Encoding: 200 200 122
Width: 448
GlyphClass: 1
Flags: W
LayerCount: 2
Fore
SplineSet
128 832 m 1,0,-1
 256 832 l 1,1,-1
 256 640 l 1,2,-1
 192 640 l 1,3,-1
 192 704 l 1,4,-1
 128 704 l 1,5,-1
 128 832 l 1,0,-1
64 576 m 1,6,-1
 384 576 l 1,7,-1
 384 448 l 1,8,-1
 128 448 l 1,9,-1
 128 320 l 1,10,-1
 320 320 l 1,11,-1
 320 192 l 1,12,-1
 128 192 l 1,13,-1
 128 0 l 1,14,-1
 384 0 l 1,15,-1
 384 -128 l 1,16,-1
 64 -128 l 1,17,-1
 64 -64 l 1,18,-1
 0 -64 l 1,19,-1
 0 512 l 1,20,-1
 64 512 l 1,21,-1
 64 576 l 1,6,-1
EndSplineSet
Validated: 1
EndChar

StartChar: Eacute
Encoding: 201 201 123
Width: 448
GlyphClass: 1
Flags: W
LayerCount: 2
Fore
SplineSet
128 832 m 1,0,-1
 256 832 l 1,1,-1
 256 704 l 1,2,-1
 192 704 l 1,3,-1
 192 640 l 1,4,-1
 128 640 l 1,5,-1
 128 832 l 1,0,-1
64 576 m 1,6,-1
 384 576 l 1,7,-1
 384 448 l 1,8,-1
 128 448 l 1,9,-1
 128 320 l 1,10,-1
 320 320 l 1,11,-1
 320 192 l 1,12,-1
 128 192 l 1,13,-1
 128 0 l 1,14,-1
 384 0 l 1,15,-1
 384 -128 l 1,16,-1
 64 -128 l 1,17,-1
 64 -64 l 1,18,-1
 0 -64 l 1,19,-1
 0 512 l 1,20,-1
 64 512 l 1,21,-1
 64 576 l 1,6,-1
EndSplineSet
Validated: 1
EndChar

StartChar: Ecircumflex
Encoding: 202 202 124
Width: 448
GlyphClass: 1
Flags: W
LayerCount: 2
Fore
SplineSet
128 832 m 1,0,-1
 256 832 l 1,1,-1
 256 768 l 1,2,-1
 320 768 l 1,3,-1
 320 640 l 1,4,-1
 256 640 l 1,5,-1
 256 704 l 1,6,-1
 128 704 l 1,7,-1
 128 640 l 1,8,-1
 64 640 l 1,9,-1
 64 768 l 1,10,-1
 128 768 l 1,11,-1
 128 832 l 1,0,-1
64 576 m 1,12,-1
 384 576 l 1,13,-1
 384 448 l 1,14,-1
 128 448 l 1,15,-1
 128 320 l 1,16,-1
 320 320 l 1,17,-1
 320 192 l 1,18,-1
 128 192 l 1,19,-1
 128 0 l 1,20,-1
 384 0 l 1,21,-1
 384 -128 l 1,22,-1
 64 -128 l 1,23,-1
 64 -64 l 1,24,-1
 0 -64 l 1,25,-1
 0 512 l 1,26,-1
 64 512 l 1,27,-1
 64 576 l 1,12,-1
EndSplineSet
Validated: 1
EndChar

StartChar: Edieresis
Encoding: 203 203 125
Width: 448
GlyphClass: 1
Flags: W
LayerCount: 2
Fore
SplineSet
0 768 m 1,0,-1
 128 768 l 1,1,-1
 128 640 l 1,2,-1
 0 640 l 1,3,-1
 0 768 l 1,0,-1
256 768 m 1,4,-1
 384 768 l 1,5,-1
 384 640 l 1,6,-1
 256 640 l 1,7,-1
 256 768 l 1,4,-1
64 576 m 1,8,-1
 384 576 l 1,9,-1
 384 448 l 1,10,-1
 128 448 l 1,11,-1
 128 320 l 1,12,-1
 320 320 l 1,13,-1
 320 192 l 1,14,-1
 128 192 l 1,15,-1
 128 0 l 1,16,-1
 384 0 l 1,17,-1
 384 -128 l 1,18,-1
 64 -128 l 1,19,-1
 64 -64 l 1,20,-1
 0 -64 l 1,21,-1
 0 512 l 1,22,-1
 64 512 l 1,23,-1
 64 576 l 1,8,-1
EndSplineSet
Validated: 1
EndChar

StartChar: Igrave
Encoding: 204 204 126
Width: 448
GlyphClass: 1
Flags: W
LayerCount: 2
Fore
SplineSet
128 832 m 1,0,-1
 256 832 l 1,1,-1
 256 640 l 1,2,-1
 192 640 l 1,3,-1
 192 704 l 1,4,-1
 128 704 l 1,5,-1
 128 832 l 1,0,-1
0 576 m 1,6,-1
 384 576 l 1,7,-1
 384 448 l 1,8,-1
 256 448 l 1,9,-1
 256 0 l 1,10,-1
 384 0 l 1,11,-1
 384 -128 l 1,12,-1
 0 -128 l 1,13,-1
 0 0 l 1,14,-1
 128 0 l 1,15,-1
 128 448 l 1,16,-1
 0 448 l 1,17,-1
 0 576 l 1,6,-1
EndSplineSet
Validated: 1
EndChar

StartChar: Iacute
Encoding: 205 205 127
Width: 448
GlyphClass: 1
Flags: W
LayerCount: 2
Fore
SplineSet
128 832 m 1,0,-1
 256 832 l 1,1,-1
 256 704 l 1,2,-1
 192 704 l 1,3,-1
 192 640 l 1,4,-1
 128 640 l 1,5,-1
 128 832 l 1,0,-1
0 576 m 1,6,-1
 384 576 l 1,7,-1
 384 448 l 1,8,-1
 256 448 l 1,9,-1
 256 0 l 1,10,-1
 384 0 l 1,11,-1
 384 -128 l 1,12,-1
 0 -128 l 1,13,-1
 0 0 l 1,14,-1
 128 0 l 1,15,-1
 128 448 l 1,16,-1
 0 448 l 1,17,-1
 0 576 l 1,6,-1
EndSplineSet
Validated: 1
EndChar

StartChar: Icircumflex
Encoding: 206 206 128
Width: 448
GlyphClass: 1
Flags: W
LayerCount: 2
Fore
SplineSet
128 832 m 1,0,-1
 256 832 l 1,1,-1
 256 768 l 1,2,-1
 320 768 l 1,3,-1
 320 640 l 1,4,-1
 256 640 l 1,5,-1
 256 704 l 1,6,-1
 128 704 l 1,7,-1
 128 640 l 1,8,-1
 64 640 l 1,9,-1
 64 768 l 1,10,-1
 128 768 l 1,11,-1
 128 832 l 1,0,-1
0 576 m 1,12,-1
 384 576 l 1,13,-1
 384 448 l 1,14,-1
 256 448 l 1,15,-1
 256 0 l 1,16,-1
 384 0 l 1,17,-1
 384 -128 l 1,18,-1
 0 -128 l 1,19,-1
 0 0 l 1,20,-1
 128 0 l 1,21,-1
 128 448 l 1,22,-1
 0 448 l 1,23,-1
 0 576 l 1,12,-1
EndSplineSet
Validated: 1
EndChar

StartChar: Idieresis
Encoding: 207 207 129
Width: 448
GlyphClass: 1
Flags: W
LayerCount: 2
Fore
SplineSet
0 768 m 1,0,-1
 128 768 l 1,1,-1
 128 640 l 1,2,-1
 0 640 l 1,3,-1
 0 768 l 1,0,-1
256 768 m 1,4,-1
 384 768 l 1,5,-1
 384 640 l 1,6,-1
 256 640 l 1,7,-1
 256 768 l 1,4,-1
0 576 m 1,8,-1
 384 576 l 1,9,-1
 384 448 l 1,10,-1
 256 448 l 1,11,-1
 256 0 l 1,12,-1
 384 0 l 1,13,-1
 384 -128 l 1,14,-1
 0 -128 l 1,15,-1
 0 0 l 1,16,-1
 128 0 l 1,17,-1
 128 448 l 1,18,-1
 0 448 l 1,19,-1
 0 576 l 1,8,-1
EndSplineSet
Validated: 1
EndChar

StartChar: Ntilde
Encoding: 209 209 130
Width: 448
GlyphClass: 1
Flags: W
LayerCount: 2
Fore
SplineSet
64 832 m 1,0,-1
 192 832 l 1,1,-1
 192 768 l 1,2,-1
 320 768 l 1,3,-1
 320 832 l 1,4,-1
 384 832 l 1,5,-1
 384 704 l 1,6,-1
 320 704 l 1,7,-1
 320 640 l 1,8,-1
 192 640 l 1,9,-1
 192 704 l 1,10,-1
 64 704 l 1,11,-1
 64 640 l 1,12,-1
 0 640 l 1,13,-1
 0 768 l 1,14,-1
 64 768 l 1,15,-1
 64 832 l 1,0,-1
0 576 m 1,16,-1
 320 576 l 1,17,-1
 320 512 l 1,18,-1
 384 512 l 1,19,-1
 384 -128 l 1,20,-1
 256 -128 l 1,21,-1
 256 448 l 1,22,-1
 128 448 l 1,23,-1
 128 -128 l 1,24,-1
 0 -128 l 1,25,-1
 0 576 l 1,16,-1
EndSplineSet
Validated: 1
EndChar

StartChar: Ograve
Encoding: 210 210 131
Width: 448
GlyphClass: 1
Flags: W
LayerCount: 2
Fore
SplineSet
128 832 m 1,0,-1
 256 832 l 1,1,-1
 256 640 l 1,2,-1
 192 640 l 1,3,-1
 192 704 l 1,4,-1
 128 704 l 1,5,-1
 128 832 l 1,0,-1
64 576 m 1,6,-1
 320 576 l 1,7,-1
 320 512 l 1,8,-1
 384 512 l 1,9,-1
 384 -64 l 1,10,-1
 320 -64 l 1,11,-1
 320 -128 l 1,12,-1
 64 -128 l 1,13,-1
 64 -64 l 1,14,-1
 0 -64 l 1,15,-1
 0 512 l 1,16,-1
 64 512 l 1,17,-1
 64 576 l 1,6,-1
128 448 m 1,18,-1
 128 0 l 1,19,-1
 256 0 l 1,20,-1
 256 448 l 1,21,-1
 128 448 l 1,18,-1
EndSplineSet
Validated: 1
EndChar

StartChar: Oacute
Encoding: 211 211 132
Width: 448
GlyphClass: 1
Flags: W
LayerCount: 2
Fore
SplineSet
128 832 m 1,0,-1
 256 832 l 1,1,-1
 256 704 l 1,2,-1
 192 704 l 1,3,-1
 192 640 l 1,4,-1
 128 640 l 1,5,-1
 128 832 l 1,0,-1
64 576 m 1,6,-1
 320 576 l 1,7,-1
 320 512 l 1,8,-1
 384 512 l 1,9,-1
 384 -64 l 1,10,-1
 320 -64 l 1,11,-1
 320 -128 l 1,12,-1
 64 -128 l 1,13,-1
 64 -64 l 1,14,-1
 0 -64 l 1,15,-1
 0 512 l 1,16,-1
 64 512 l 1,17,-1
 64 576 l 1,6,-1
128 448 m 1,18,-1
 128 0 l 1,19,-1
 256 0 l 1,20,-1
 256 448 l 1,21,-1
 128 448 l 1,18,-1
EndSplineSet
Validated: 1
EndChar

StartChar: Ocircumflex
Encoding: 212 212 133
Width: 448
GlyphClass: 1
Flags: W
LayerCount: 2
Fore
SplineSet
128 832 m 1,0,-1
 256 832 l 1,1,-1
 256 768 l 1,2,-1
 320 768 l 1,3,-1
 320 640 l 1,4,-1
 256 640 l 1,5,-1
 256 704 l 1,6,-1
 128 704 l 1,7,-1
 128 640 l 1,8,-1
 64 640 l 1,9,-1
 64 768 l 1,10,-1
 128 768 l 1,11,-1
 128 832 l 1,0,-1
64 576 m 1,12,-1
 320 576 l 1,13,-1
 320 512 l 1,14,-1
 384 512 l 1,15,-1
 384 -64 l 1,16,-1
 320 -64 l 1,17,-1
 320 -128 l 1,18,-1
 64 -128 l 1,19,-1
 64 -64 l 1,20,-1
 0 -64 l 1,21,-1
 0 512 l 1,22,-1
 64 512 l 1,23,-1
 64 576 l 1,12,-1
128 448 m 1,24,-1
 128 0 l 1,25,-1
 256 0 l 1,26,-1
 256 448 l 1,27,-1
 128 448 l 1,24,-1
EndSplineSet
Validated: 1
EndChar

StartChar: Otilde
Encoding: 213 213 134
Width: 448
GlyphClass: 1
Flags: W
LayerCount: 2
Fore
SplineSet
64 832 m 1,0,-1
 192 832 l 1,1,-1
 192 768 l 1,2,-1
 320 768 l 1,3,-1
 320 832 l 1,4,-1
 384 832 l 1,5,-1
 384 704 l 1,6,-1
 320 704 l 1,7,-1
 320 640 l 1,8,-1
 192 640 l 1,9,-1
 192 704 l 1,10,-1
 64 704 l 1,11,-1
 64 640 l 1,12,-1
 0 640 l 1,13,-1
 0 768 l 1,14,-1
 64 768 l 1,15,-1
 64 832 l 1,0,-1
64 576 m 1,16,-1
 320 576 l 1,17,-1
 320 512 l 1,18,-1
 384 512 l 1,19,-1
 384 -64 l 1,20,-1
 320 -64 l 1,21,-1
 320 -128 l 1,22,-1
 64 -128 l 1,23,-1
 64 -64 l 1,24,-1
 0 -64 l 1,25,-1
 0 512 l 1,26,-1
 64 512 l 1,27,-1
 64 576 l 1,16,-1
128 448 m 1,28,-1
 128 0 l 1,29,-1
 256 0 l 1,30,-1
 256 448 l 1,31,-1
 128 448 l 1,28,-1
EndSplineSet
Validated: 1
EndChar

StartChar: Odieresis
Encoding: 214 214 135
Width: 448
GlyphClass: 1
Flags: W
LayerCount: 2
Fore
SplineSet
0 768 m 1,0,-1
 128 768 l 1,1,-1
 128 640 l 1,2,-1
 0 640 l 1,3,-1
 0 768 l 1,0,-1
256 768 m 1,4,-1
 384 768 l 1,5,-1
 384 640 l 1,6,-1
 256 640 l 1,7,-1
 256 768 l 1,4,-1
64 576 m 1,8,-1
 320 576 l 1,9,-1
 320 512 l 1,10,-1
 384 512 l 1,11,-1
 384 -64 l 1,12,-1
 320 -64 l 1,13,-1
 320 -128 l 1,14,-1
 64 -128 l 1,15,-1
 64 -64 l 1,16,-1
 0 -64 l 1,17,-1
 0 512 l 1,18,-1
 64 512 l 1,19,-1
 64 576 l 1,8,-1
128 448 m 1,20,-1
 128 0 l 1,21,-1
 256 0 l 1,22,-1
 256 448 l 1,23,-1
 128 448 l 1,20,-1
EndSplineSet
Validated: 1
EndChar

StartChar: multiply
Encoding: 215 215 136
Width: 384
GlyphClass: 1
Flags: W
LayerCount: 2
Fore
SplineSet
0 320 m 1,0,-1
 128 320 l 1,1,-1
 128 256 l 1,2,-1
 192 256 l 1,3,-1
 192 320 l 1,4,-1
 320 320 l 1,5,-1
 320 192 l 1,6,-1
 256 192 l 1,7,-1
 256 128 l 1,8,-1
 320 128 l 1,9,-1
 320 0 l 1,10,-1
 192 0 l 1,11,-1
 192 64 l 1,12,-1
 128 64 l 1,13,-1
 128 0 l 1,14,-1
 0 0 l 1,15,-1
 0 128 l 1,16,-1
 64 128 l 1,17,-1
 64 192 l 1,18,-1
 0 192 l 1,19,-1
 0 320 l 1,0,-1
EndSplineSet
Validated: 1
EndChar

StartChar: Oslash
Encoding: 216 216 137
Width: 576
GlyphClass: 1
Flags: W
LayerCount: 2
Fore
SplineSet
128 576 m 1,0,-1
 384 576 l 1,1,-1
 384 512 l 1,2,-1
 448 512 l 1,3,-1
 448 576 l 1,4,-1
 512 576 l 1,5,-1
 512 448 l 1,6,-1
 448 448 l 1,7,-1
 448 -64 l 1,8,-1
 384 -64 l 1,9,-1
 384 -128 l 1,10,-1
 128 -128 l 1,11,-1
 128 -64 l 1,12,-1
 64 -64 l 1,13,-1
 64 -128 l 1,14,-1
 0 -128 l 1,15,-1
 0 0 l 1,16,-1
 64 0 l 1,17,-1
 64 512 l 1,18,-1
 128 512 l 1,19,-1
 128 576 l 1,0,-1
192 448 m 1,20,-1
 192 256 l 1,21,-1
 256 256 l 1,22,-1
 256 320 l 1,23,-1
 320 320 l 1,24,-1
 320 448 l 1,25,-1
 192 448 l 1,20,-1
256 192 m 1,26,-1
 256 128 l 1,27,-1
 192 128 l 1,28,-1
 192 0 l 1,29,-1
 320 0 l 1,30,-1
 320 192 l 1,31,-1
 256 192 l 1,26,-1
EndSplineSet
Validated: 1
EndChar

StartChar: Ugrave
Encoding: 217 217 138
Width: 448
GlyphClass: 1
Flags: W
LayerCount: 2
Fore
SplineSet
128 832 m 1,0,-1
 256 832 l 1,1,-1
 256 640 l 1,2,-1
 192 640 l 1,3,-1
 192 704 l 1,4,-1
 128 704 l 1,5,-1
 128 832 l 1,0,-1
0 576 m 1,6,-1
 128 576 l 1,7,-1
 128 0 l 1,8,-1
 256 0 l 1,9,-1
 256 576 l 1,10,-1
 384 576 l 1,11,-1
 384 -64 l 1,12,-1
 320 -64 l 1,13,-1
 320 -128 l 1,14,-1
 64 -128 l 1,15,-1
 64 -64 l 1,16,-1
 0 -64 l 1,17,-1
 0 576 l 1,6,-1
EndSplineSet
Validated: 1
EndChar

StartChar: Uacute
Encoding: 218 218 139
Width: 448
GlyphClass: 1
Flags: W
LayerCount: 2
Fore
SplineSet
128 832 m 1,0,-1
 256 832 l 1,1,-1
 256 704 l 1,2,-1
 192 704 l 1,3,-1
 192 640 l 1,4,-1
 128 640 l 1,5,-1
 128 832 l 1,0,-1
0 576 m 1,6,-1
 128 576 l 1,7,-1
 128 0 l 1,8,-1
 256 0 l 1,9,-1
 256 576 l 1,10,-1
 384 576 l 1,11,-1
 384 -64 l 1,12,-1
 320 -64 l 1,13,-1
 320 -128 l 1,14,-1
 64 -128 l 1,15,-1
 64 -64 l 1,16,-1
 0 -64 l 1,17,-1
 0 576 l 1,6,-1
EndSplineSet
Validated: 1
EndChar

StartChar: Ucircumflex
Encoding: 219 219 140
Width: 448
GlyphClass: 1
Flags: W
LayerCount: 2
Fore
SplineSet
128 832 m 1,0,-1
 256 832 l 1,1,-1
 256 768 l 1,2,-1
 320 768 l 1,3,-1
 320 640 l 1,4,-1
 256 640 l 1,5,-1
 256 704 l 1,6,-1
 128 704 l 1,7,-1
 128 640 l 1,8,-1
 64 640 l 1,9,-1
 64 768 l 1,10,-1
 128 768 l 1,11,-1
 128 832 l 1,0,-1
0 576 m 1,12,-1
 128 576 l 1,13,-1
 128 0 l 1,14,-1
 256 0 l 1,15,-1
 256 576 l 1,16,-1
 384 576 l 1,17,-1
 384 -64 l 1,18,-1
 320 -64 l 1,19,-1
 320 -128 l 1,20,-1
 64 -128 l 1,21,-1
 64 -64 l 1,22,-1
 0 -64 l 1,23,-1
 0 576 l 1,12,-1
EndSplineSet
Validated: 1
EndChar

StartChar: Udieresis
Encoding: 220 220 141
Width: 448
GlyphClass: 1
Flags: W
LayerCount: 2
Fore
SplineSet
0 768 m 1,0,-1
 128 768 l 1,1,-1
 128 640 l 1,2,-1
 0 640 l 1,3,-1
 0 768 l 1,0,-1
256 768 m 1,4,-1
 384 768 l 1,5,-1
 384 640 l 1,6,-1
 256 640 l 1,7,-1
 256 768 l 1,4,-1
0 576 m 1,8,-1
 128 576 l 1,9,-1
 128 0 l 1,10,-1
 256 0 l 1,11,-1
 256 576 l 1,12,-1
 384 576 l 1,13,-1
 384 -64 l 1,14,-1
 320 -64 l 1,15,-1
 320 -128 l 1,16,-1
 64 -128 l 1,17,-1
 64 -64 l 1,18,-1
 0 -64 l 1,19,-1
 0 576 l 1,8,-1
EndSplineSet
Validated: 1
EndChar

StartChar: Yacute
Encoding: 221 221 142
Width: 448
GlyphClass: 1
Flags: W
LayerCount: 2
Fore
SplineSet
128 832 m 1,0,-1
 256 832 l 1,1,-1
 256 704 l 1,2,-1
 192 704 l 1,3,-1
 192 640 l 1,4,-1
 128 640 l 1,5,-1
 128 832 l 1,0,-1
0 576 m 1,6,-1
 128 576 l 1,7,-1
 128 320 l 1,8,-1
 256 320 l 1,9,-1
 256 576 l 1,10,-1
 384 576 l 1,11,-1
 384 256 l 1,12,-1
 320 256 l 1,13,-1
 320 192 l 1,14,-1
 256 192 l 1,15,-1
 256 -128 l 1,16,-1
 128 -128 l 1,17,-1
 128 192 l 1,18,-1
 64 192 l 1,19,-1
 64 256 l 1,20,-1
 0 256 l 1,21,-1
 0 576 l 1,6,-1
EndSplineSet
Validated: 1
EndChar

StartChar: Thorn
Encoding: 222 222 143
Width: 448
GlyphClass: 1
Flags: W
LayerCount: 2
Fore
SplineSet
0 576 m 1,0,-1
 128 576 l 1,1,-1
 128 448 l 1,2,-1
 320 448 l 1,3,-1
 320 384 l 1,4,-1
 384 384 l 1,5,-1
 384 64 l 1,6,-1
 320 64 l 1,7,-1
 320 0 l 1,8,-1
 128 0 l 1,9,-1
 128 -128 l 1,10,-1
 0 -128 l 1,11,-1
 0 576 l 1,0,-1
128 320 m 1,12,-1
 128 128 l 1,13,-1
 256 128 l 1,14,-1
 256 320 l 1,15,-1
 128 320 l 1,12,-1
EndSplineSet
Validated: 1
EndChar

StartChar: germandbls
Encoding: 223 223 144
Width: 512
GlyphClass: 1
Flags: W
LayerCount: 2
Fore
SplineSet
0 576 m 1,0,-1
 320 576 l 1,1,-1
 320 512 l 1,2,-1
 384 512 l 1,3,-1
 384 320 l 1,4,-1
 320 320 l 1,5,-1
 320 256 l 1,6,-1
 384 256 l 1,7,-1
 384 192 l 1,8,-1
 448 192 l 1,9,-1
 448 -64 l 1,10,-1
 384 -64 l 1,11,-1
 384 -128 l 1,12,-1
 192 -128 l 1,13,-1
 192 0 l 1,14,-1
 320 0 l 1,15,-1
 320 128 l 1,16,-1
 256 128 l 1,17,-1
 256 192 l 1,18,-1
 192 192 l 1,19,-1
 192 320 l 1,20,-1
 256 320 l 1,21,-1
 256 448 l 1,22,-1
 128 448 l 1,23,-1
 128 -128 l 1,24,-1
 0 -128 l 1,25,-1
 0 576 l 1,0,-1
EndSplineSet
Validated: 1
EndChar

StartChar: agrave
Encoding: 224 224 145
Width: 448
GlyphClass: 1
Flags: W
LayerCount: 2
Fore
SplineSet
128 640 m 1,0,-1
 256 640 l 1,1,-1
 256 448 l 1,2,-1
 192 448 l 1,3,-1
 192 512 l 1,4,-1
 128 512 l 1,5,-1
 128 640 l 1,0,-1
0 384 m 1,6,-1
 320 384 l 1,7,-1
 320 320 l 1,8,-1
 384 320 l 1,9,-1
 384 -128 l 1,10,-1
 64 -128 l 1,11,-1
 64 -64 l 1,12,-1
 0 -64 l 1,13,-1
 0 128 l 1,14,-1
 64 128 l 1,15,-1
 64 192 l 1,16,-1
 256 192 l 1,17,-1
 256 256 l 1,18,-1
 0 256 l 1,19,-1
 0 384 l 1,6,-1
128 64 m 1,20,-1
 128 0 l 1,21,-1
 256 0 l 1,22,-1
 256 64 l 1,23,-1
 128 64 l 1,20,-1
EndSplineSet
Validated: 1
EndChar

StartChar: aacute
Encoding: 225 225 146
Width: 448
GlyphClass: 1
Flags: W
LayerCount: 2
Fore
SplineSet
128 640 m 1,0,-1
 256 640 l 1,1,-1
 256 512 l 1,2,-1
 192 512 l 1,3,-1
 192 448 l 1,4,-1
 128 448 l 1,5,-1
 128 640 l 1,0,-1
0 384 m 1,6,-1
 320 384 l 1,7,-1
 320 320 l 1,8,-1
 384 320 l 1,9,-1
 384 -128 l 1,10,-1
 64 -128 l 1,11,-1
 64 -64 l 1,12,-1
 0 -64 l 1,13,-1
 0 128 l 1,14,-1
 64 128 l 1,15,-1
 64 192 l 1,16,-1
 256 192 l 1,17,-1
 256 256 l 1,18,-1
 0 256 l 1,19,-1
 0 384 l 1,6,-1
128 64 m 1,20,-1
 128 0 l 1,21,-1
 256 0 l 1,22,-1
 256 64 l 1,23,-1
 128 64 l 1,20,-1
EndSplineSet
Validated: 1
EndChar

StartChar: acircumflex
Encoding: 226 226 147
Width: 448
GlyphClass: 1
Flags: W
LayerCount: 2
Fore
SplineSet
128 640 m 1,0,-1
 256 640 l 1,1,-1
 256 576 l 1,2,-1
 320 576 l 1,3,-1
 320 448 l 1,4,-1
 256 448 l 1,5,-1
 256 512 l 1,6,-1
 128 512 l 1,7,-1
 128 448 l 1,8,-1
 64 448 l 1,9,-1
 64 576 l 1,10,-1
 128 576 l 1,11,-1
 128 640 l 1,0,-1
0 384 m 1,12,-1
 320 384 l 1,13,-1
 320 320 l 1,14,-1
 384 320 l 1,15,-1
 384 -128 l 1,16,-1
 64 -128 l 1,17,-1
 64 -64 l 1,18,-1
 0 -64 l 1,19,-1
 0 128 l 1,20,-1
 64 128 l 1,21,-1
 64 192 l 1,22,-1
 256 192 l 1,23,-1
 256 256 l 1,24,-1
 0 256 l 1,25,-1
 0 384 l 1,12,-1
128 64 m 1,26,-1
 128 0 l 1,27,-1
 256 0 l 1,28,-1
 256 64 l 1,29,-1
 128 64 l 1,26,-1
EndSplineSet
Validated: 1
EndChar

StartChar: atilde
Encoding: 227 227 148
Width: 448
GlyphClass: 1
Flags: W
LayerCount: 2
Fore
SplineSet
64 640 m 1,0,-1
 192 640 l 1,1,-1
 192 576 l 1,2,-1
 320 576 l 1,3,-1
 320 640 l 1,4,-1
 384 640 l 1,5,-1
 384 512 l 1,6,-1
 320 512 l 1,7,-1
 320 448 l 1,8,-1
 192 448 l 1,9,-1
 192 512 l 1,10,-1
 64 512 l 1,11,-1
 64 448 l 1,12,-1
 0 448 l 1,13,-1
 0 576 l 1,14,-1
 64 576 l 1,15,-1
 64 640 l 1,0,-1
0 384 m 1,16,-1
 320 384 l 1,17,-1
 320 320 l 1,18,-1
 384 320 l 1,19,-1
 384 -128 l 1,20,-1
 64 -128 l 1,21,-1
 64 -64 l 1,22,-1
 0 -64 l 1,23,-1
 0 128 l 1,24,-1
 64 128 l 1,25,-1
 64 192 l 1,26,-1
 256 192 l 1,27,-1
 256 256 l 1,28,-1
 0 256 l 1,29,-1
 0 384 l 1,16,-1
128 64 m 1,30,-1
 128 0 l 1,31,-1
 256 0 l 1,32,-1
 256 64 l 1,33,-1
 128 64 l 1,30,-1
EndSplineSet
Validated: 1
EndChar

StartChar: adieresis
Encoding: 228 228 149
Width: 448
GlyphClass: 1
Flags: W
LayerCount: 2
Fore
SplineSet
0 576 m 1,0,-1
 128 576 l 1,1,-1
 128 448 l 1,2,-1
 0 448 l 1,3,-1
 0 576 l 1,0,-1
256 576 m 1,4,-1
 384 576 l 1,5,-1
 384 448 l 1,6,-1
 256 448 l 1,7,-1
 256 576 l 1,4,-1
0 384 m 1,8,-1
 320 384 l 1,9,-1
 320 320 l 1,10,-1
 384 320 l 1,11,-1
 384 -128 l 1,12,-1
 64 -128 l 1,13,-1
 64 -64 l 1,14,-1
 0 -64 l 1,15,-1
 0 128 l 1,16,-1
 64 128 l 1,17,-1
 64 192 l 1,18,-1
 256 192 l 1,19,-1
 256 256 l 1,20,-1
 0 256 l 1,21,-1
 0 384 l 1,8,-1
128 64 m 1,22,-1
 128 0 l 1,23,-1
 256 0 l 1,24,-1
 256 64 l 1,25,-1
 128 64 l 1,22,-1
EndSplineSet
Validated: 1
EndChar

StartChar: aring
Encoding: 229 229 150
Width: 448
GlyphClass: 1
Flags: W
LayerCount: 2
Fore
SplineSet
128 640 m 1,0,-1
 320 640 l 1,1,-1
 320 448 l 1,2,-1
 128 448 l 1,3,-1
 128 640 l 1,0,-1
192 576 m 1,4,-1
 192 512 l 1,5,-1
 256 512 l 1,6,-1
 256 576 l 1,7,-1
 192 576 l 1,4,-1
0 384 m 1,8,-1
 320 384 l 1,9,-1
 320 320 l 1,10,-1
 384 320 l 1,11,-1
 384 -128 l 1,12,-1
 64 -128 l 1,13,-1
 64 -64 l 1,14,-1
 0 -64 l 1,15,-1
 0 128 l 1,16,-1
 64 128 l 1,17,-1
 64 192 l 1,18,-1
 256 192 l 1,19,-1
 256 256 l 1,20,-1
 0 256 l 1,21,-1
 0 384 l 1,8,-1
128 64 m 1,22,-1
 128 0 l 1,23,-1
 256 0 l 1,24,-1
 256 64 l 1,25,-1
 128 64 l 1,22,-1
EndSplineSet
Validated: 1
EndChar

StartChar: ae
Encoding: 230 230 151
Width: 704
GlyphClass: 1
Flags: W
LayerCount: 2
Fore
SplineSet
0 384 m 1,0,-1
 576 384 l 1,1,-1
 576 320 l 1,2,-1
 640 320 l 1,3,-1
 640 64 l 1,4,-1
 384 64 l 1,5,-1
 384 0 l 1,6,-1
 640 0 l 1,7,-1
 640 -128 l 1,8,-1
 64 -128 l 1,9,-1
 64 -64 l 1,10,-1
 0 -64 l 1,11,-1
 0 128 l 1,12,-1
 64 128 l 1,13,-1
 64 192 l 1,14,-1
 256 192 l 1,15,-1
 256 256 l 1,16,-1
 0 256 l 1,17,-1
 0 384 l 1,0,-1
384 256 m 1,18,-1
 384 192 l 1,19,-1
 512 192 l 1,20,-1
 512 256 l 1,21,-1
 384 256 l 1,18,-1
128 64 m 1,22,-1
 128 0 l 1,23,-1
 256 0 l 1,24,-1
 256 64 l 1,25,-1
 128 64 l 1,22,-1
EndSplineSet
Validated: 1
EndChar

StartChar: ccedilla
Encoding: 231 231 152
Width: 448
GlyphClass: 1
Flags: W
LayerCount: 2
Fore
SplineSet
64 384 m 1,0,-1
 384 384 l 1,1,-1
 384 256 l 1,2,-1
 128 256 l 1,3,-1
 128 0 l 1,4,-1
 384 0 l 1,5,-1
 384 -128 l 1,6,-1
 320 -128 l 1,7,-1
 320 -256 l 1,8,-1
 128 -256 l 1,9,-1
 128 -192 l 1,10,-1
 256 -192 l 1,11,-1
 256 -128 l 1,12,-1
 64 -128 l 1,13,-1
 64 -64 l 1,14,-1
 0 -64 l 1,15,-1
 0 320 l 1,16,-1
 64 320 l 1,17,-1
 64 384 l 1,0,-1
EndSplineSet
Validated: 1
EndChar

StartChar: egrave
Encoding: 232 232 153
Width: 448
GlyphClass: 1
Flags: W
LayerCount: 2
Fore
SplineSet
128 640 m 1,0,-1
 256 640 l 1,1,-1
 256 448 l 1,2,-1
 192 448 l 1,3,-1
 192 512 l 1,4,-1
 128 512 l 1,5,-1
 128 640 l 1,0,-1
64 384 m 1,6,-1
 320 384 l 1,7,-1
 320 320 l 1,8,-1
 384 320 l 1,9,-1
 384 64 l 1,10,-1
 128 64 l 1,11,-1
 128 0 l 1,12,-1
 384 0 l 1,13,-1
 384 -128 l 1,14,-1
 64 -128 l 1,15,-1
 64 -64 l 1,16,-1
 0 -64 l 1,17,-1
 0 320 l 1,18,-1
 64 320 l 1,19,-1
 64 384 l 1,6,-1
128 256 m 1,20,-1
 128 192 l 1,21,-1
 256 192 l 1,22,-1
 256 256 l 1,23,-1
 128 256 l 1,20,-1
EndSplineSet
Validated: 1
EndChar

StartChar: eacute
Encoding: 233 233 154
Width: 448
GlyphClass: 1
Flags: W
LayerCount: 2
Fore
SplineSet
128 640 m 1,0,-1
 256 640 l 1,1,-1
 256 512 l 1,2,-1
 192 512 l 1,3,-1
 192 448 l 1,4,-1
 128 448 l 1,5,-1
 128 640 l 1,0,-1
64 384 m 1,6,-1
 320 384 l 1,7,-1
 320 320 l 1,8,-1
 384 320 l 1,9,-1
 384 64 l 1,10,-1
 128 64 l 1,11,-1
 128 0 l 1,12,-1
 384 0 l 1,13,-1
 384 -128 l 1,14,-1
 64 -128 l 1,15,-1
 64 -64 l 1,16,-1
 0 -64 l 1,17,-1
 0 320 l 1,18,-1
 64 320 l 1,19,-1
 64 384 l 1,6,-1
128 256 m 1,20,-1
 128 192 l 1,21,-1
 256 192 l 1,22,-1
 256 256 l 1,23,-1
 128 256 l 1,20,-1
EndSplineSet
Validated: 1
EndChar

StartChar: ecircumflex
Encoding: 234 234 155
Width: 448
GlyphClass: 1
Flags: W
LayerCount: 2
Fore
SplineSet
128 640 m 1,0,-1
 256 640 l 1,1,-1
 256 576 l 1,2,-1
 320 576 l 1,3,-1
 320 448 l 1,4,-1
 256 448 l 1,5,-1
 256 512 l 1,6,-1
 128 512 l 1,7,-1
 128 448 l 1,8,-1
 64 448 l 1,9,-1
 64 576 l 1,10,-1
 128 576 l 1,11,-1
 128 640 l 1,0,-1
64 384 m 1,12,-1
 320 384 l 1,13,-1
 320 320 l 1,14,-1
 384 320 l 1,15,-1
 384 64 l 1,16,-1
 128 64 l 1,17,-1
 128 0 l 1,18,-1
 384 0 l 1,19,-1
 384 -128 l 1,20,-1
 64 -128 l 1,21,-1
 64 -64 l 1,22,-1
 0 -64 l 1,23,-1
 0 320 l 1,24,-1
 64 320 l 1,25,-1
 64 384 l 1,12,-1
128 256 m 1,26,-1
 128 192 l 1,27,-1
 256 192 l 1,28,-1
 256 256 l 1,29,-1
 128 256 l 1,26,-1
EndSplineSet
Validated: 1
EndChar

StartChar: edieresis
Encoding: 235 235 156
Width: 448
GlyphClass: 1
Flags: W
LayerCount: 2
Fore
SplineSet
0 576 m 1,0,-1
 128 576 l 1,1,-1
 128 448 l 1,2,-1
 0 448 l 1,3,-1
 0 576 l 1,0,-1
256 576 m 1,4,-1
 384 576 l 1,5,-1
 384 448 l 1,6,-1
 256 448 l 1,7,-1
 256 576 l 1,4,-1
64 384 m 1,8,-1
 320 384 l 1,9,-1
 320 320 l 1,10,-1
 384 320 l 1,11,-1
 384 64 l 1,12,-1
 128 64 l 1,13,-1
 128 0 l 1,14,-1
 384 0 l 1,15,-1
 384 -128 l 1,16,-1
 64 -128 l 1,17,-1
 64 -64 l 1,18,-1
 0 -64 l 1,19,-1
 0 320 l 1,20,-1
 64 320 l 1,21,-1
 64 384 l 1,8,-1
128 256 m 1,22,-1
 128 192 l 1,23,-1
 256 192 l 1,24,-1
 256 256 l 1,25,-1
 128 256 l 1,22,-1
EndSplineSet
Validated: 1
EndChar

StartChar: igrave
Encoding: 236 236 157
Width: 192
GlyphClass: 1
Flags: W
LayerCount: 2
Fore
SplineSet
0 640 m 1,0,-1
 128 640 l 1,1,-1
 128 448 l 1,2,-1
 64 448 l 1,3,-1
 64 512 l 1,4,-1
 0 512 l 1,5,-1
 0 640 l 1,0,-1
0 384 m 1,6,-1
 128 384 l 1,7,-1
 128 -128 l 1,8,-1
 0 -128 l 1,9,-1
 0 384 l 1,6,-1
EndSplineSet
Validated: 1
EndChar

StartChar: iacute
Encoding: 237 237 158
Width: 192
GlyphClass: 1
Flags: W
LayerCount: 2
Fore
SplineSet
0 640 m 1,0,-1
 128 640 l 1,1,-1
 128 512 l 1,2,-1
 64 512 l 1,3,-1
 64 448 l 1,4,-1
 0 448 l 1,5,-1
 0 640 l 1,0,-1
0 384 m 1,6,-1
 128 384 l 1,7,-1
 128 -128 l 1,8,-1
 0 -128 l 1,9,-1
 0 384 l 1,6,-1
EndSplineSet
Validated: 1
EndChar

StartChar: icircumflex
Encoding: 238 238 159
Width: 320
GlyphClass: 1
Flags: W
LayerCount: 2
Fore
SplineSet
64 640 m 1,0,-1
 192 640 l 1,1,-1
 192 576 l 1,2,-1
 256 576 l 1,3,-1
 256 448 l 1,4,-1
 192 448 l 1,5,-1
 192 512 l 1,6,-1
 64 512 l 1,7,-1
 64 448 l 1,8,-1
 0 448 l 1,9,-1
 0 576 l 1,10,-1
 64 576 l 1,11,-1
 64 640 l 1,0,-1
64 384 m 1,12,-1
 192 384 l 1,13,-1
 192 -128 l 1,14,-1
 64 -128 l 1,15,-1
 64 384 l 1,12,-1
EndSplineSet
Validated: 1
EndChar

StartChar: idieresis
Encoding: 239 239 160
Width: 448
GlyphClass: 1
Flags: W
LayerCount: 2
Fore
SplineSet
0 576 m 1,0,-1
 128 576 l 1,1,-1
 128 448 l 1,2,-1
 0 448 l 1,3,-1
 0 576 l 1,0,-1
256 576 m 1,4,-1
 384 576 l 1,5,-1
 384 448 l 1,6,-1
 256 448 l 1,7,-1
 256 576 l 1,4,-1
128 384 m 1,8,-1
 256 384 l 1,9,-1
 256 -128 l 1,10,-1
 128 -128 l 1,11,-1
 128 384 l 1,8,-1
EndSplineSet
Validated: 1
EndChar

StartChar: ntilde
Encoding: 241 241 161
Width: 448
GlyphClass: 1
Flags: W
LayerCount: 2
Fore
SplineSet
64 640 m 1,0,-1
 192 640 l 1,1,-1
 192 576 l 1,2,-1
 320 576 l 1,3,-1
 320 640 l 1,4,-1
 384 640 l 1,5,-1
 384 512 l 1,6,-1
 320 512 l 1,7,-1
 320 448 l 1,8,-1
 192 448 l 1,9,-1
 192 512 l 1,10,-1
 64 512 l 1,11,-1
 64 448 l 1,12,-1
 0 448 l 1,13,-1
 0 576 l 1,14,-1
 64 576 l 1,15,-1
 64 640 l 1,0,-1
0 384 m 1,16,-1
 320 384 l 1,17,-1
 320 320 l 1,18,-1
 384 320 l 1,19,-1
 384 -128 l 1,20,-1
 256 -128 l 1,21,-1
 256 256 l 1,22,-1
 128 256 l 1,23,-1
 128 -128 l 1,24,-1
 0 -128 l 1,25,-1
 0 384 l 1,16,-1
EndSplineSet
Validated: 1
EndChar

StartChar: ograve
Encoding: 242 242 162
Width: 448
GlyphClass: 1
Flags: W
LayerCount: 2
Fore
SplineSet
128 640 m 1,0,-1
 256 640 l 1,1,-1
 256 448 l 1,2,-1
 192 448 l 1,3,-1
 192 512 l 1,4,-1
 128 512 l 1,5,-1
 128 640 l 1,0,-1
64 384 m 1,6,-1
 320 384 l 1,7,-1
 320 320 l 1,8,-1
 384 320 l 1,9,-1
 384 -64 l 1,10,-1
 320 -64 l 1,11,-1
 320 -128 l 1,12,-1
 64 -128 l 1,13,-1
 64 -64 l 1,14,-1
 0 -64 l 1,15,-1
 0 320 l 1,16,-1
 64 320 l 1,17,-1
 64 384 l 1,6,-1
128 256 m 1,18,-1
 128 0 l 1,19,-1
 256 0 l 1,20,-1
 256 256 l 1,21,-1
 128 256 l 1,18,-1
EndSplineSet
Validated: 1
EndChar

StartChar: oacute
Encoding: 243 243 163
Width: 448
GlyphClass: 1
Flags: W
LayerCount: 2
Fore
SplineSet
128 640 m 1,0,-1
 256 640 l 1,1,-1
 256 512 l 1,2,-1
 192 512 l 1,3,-1
 192 448 l 1,4,-1
 128 448 l 1,5,-1
 128 640 l 1,0,-1
64 384 m 1,6,-1
 320 384 l 1,7,-1
 320 320 l 1,8,-1
 384 320 l 1,9,-1
 384 -64 l 1,10,-1
 320 -64 l 1,11,-1
 320 -128 l 1,12,-1
 64 -128 l 1,13,-1
 64 -64 l 1,14,-1
 0 -64 l 1,15,-1
 0 320 l 1,16,-1
 64 320 l 1,17,-1
 64 384 l 1,6,-1
128 256 m 1,18,-1
 128 0 l 1,19,-1
 256 0 l 1,20,-1
 256 256 l 1,21,-1
 128 256 l 1,18,-1
EndSplineSet
Validated: 1
EndChar

StartChar: ocircumflex
Encoding: 244 244 164
Width: 448
GlyphClass: 1
Flags: W
LayerCount: 2
Fore
SplineSet
128 640 m 1,0,-1
 256 640 l 1,1,-1
 256 576 l 1,2,-1
 320 576 l 1,3,-1
 320 448 l 1,4,-1
 256 448 l 1,5,-1
 256 512 l 1,6,-1
 128 512 l 1,7,-1
 128 448 l 1,8,-1
 64 448 l 1,9,-1
 64 576 l 1,10,-1
 128 576 l 1,11,-1
 128 640 l 1,0,-1
64 384 m 1,12,-1
 320 384 l 1,13,-1
 320 320 l 1,14,-1
 384 320 l 1,15,-1
 384 -64 l 1,16,-1
 320 -64 l 1,17,-1
 320 -128 l 1,18,-1
 64 -128 l 1,19,-1
 64 -64 l 1,20,-1
 0 -64 l 1,21,-1
 0 320 l 1,22,-1
 64 320 l 1,23,-1
 64 384 l 1,12,-1
128 256 m 1,24,-1
 128 0 l 1,25,-1
 256 0 l 1,26,-1
 256 256 l 1,27,-1
 128 256 l 1,24,-1
EndSplineSet
Validated: 1
EndChar

StartChar: otilde
Encoding: 245 245 165
Width: 448
GlyphClass: 1
Flags: W
LayerCount: 2
Fore
SplineSet
64 640 m 1,0,-1
 192 640 l 1,1,-1
 192 576 l 1,2,-1
 320 576 l 1,3,-1
 320 640 l 1,4,-1
 384 640 l 1,5,-1
 384 512 l 1,6,-1
 320 512 l 1,7,-1
 320 448 l 1,8,-1
 192 448 l 1,9,-1
 192 512 l 1,10,-1
 64 512 l 1,11,-1
 64 448 l 1,12,-1
 0 448 l 1,13,-1
 0 576 l 1,14,-1
 64 576 l 1,15,-1
 64 640 l 1,0,-1
64 384 m 1,16,-1
 320 384 l 1,17,-1
 320 320 l 1,18,-1
 384 320 l 1,19,-1
 384 -64 l 1,20,-1
 320 -64 l 1,21,-1
 320 -128 l 1,22,-1
 64 -128 l 1,23,-1
 64 -64 l 1,24,-1
 0 -64 l 1,25,-1
 0 320 l 1,26,-1
 64 320 l 1,27,-1
 64 384 l 1,16,-1
128 256 m 1,28,-1
 128 0 l 1,29,-1
 256 0 l 1,30,-1
 256 256 l 1,31,-1
 128 256 l 1,28,-1
EndSplineSet
Validated: 1
EndChar

StartChar: odieresis
Encoding: 246 246 166
Width: 448
GlyphClass: 1
Flags: W
LayerCount: 2
Fore
SplineSet
0 576 m 1,0,-1
 128 576 l 1,1,-1
 128 448 l 1,2,-1
 0 448 l 1,3,-1
 0 576 l 1,0,-1
256 576 m 1,4,-1
 384 576 l 1,5,-1
 384 448 l 1,6,-1
 256 448 l 1,7,-1
 256 576 l 1,4,-1
64 384 m 1,8,-1
 320 384 l 1,9,-1
 320 320 l 1,10,-1
 384 320 l 1,11,-1
 384 -64 l 1,12,-1
 320 -64 l 1,13,-1
 320 -128 l 1,14,-1
 64 -128 l 1,15,-1
 64 -64 l 1,16,-1
 0 -64 l 1,17,-1
 0 320 l 1,18,-1
 64 320 l 1,19,-1
 64 384 l 1,8,-1
128 256 m 1,20,-1
 128 0 l 1,21,-1
 256 0 l 1,22,-1
 256 256 l 1,23,-1
 128 256 l 1,20,-1
EndSplineSet
Validated: 1
EndChar

StartChar: divide
Encoding: 247 247 167
Width: 448
GlyphClass: 1
Flags: W
LayerCount: 2
Fore
SplineSet
128 448 m 1,0,-1
 256 448 l 1,1,-1
 256 320 l 1,2,-1
 128 320 l 1,3,-1
 128 448 l 1,0,-1
0 256 m 1,4,-1
 384 256 l 1,5,-1
 384 128 l 1,6,-1
 0 128 l 1,7,-1
 0 256 l 1,4,-1
128 64 m 1,8,-1
 256 64 l 1,9,-1
 256 -64 l 1,10,-1
 128 -64 l 1,11,-1
 128 64 l 1,8,-1
EndSplineSet
Validated: 1
EndChar

StartChar: oslash
Encoding: 248 248 168
Width: 576
GlyphClass: 1
Flags: W
LayerCount: 2
Fore
SplineSet
128 384 m 1,0,-1
 384 384 l 1,1,-1
 384 320 l 1,2,-1
 448 320 l 1,3,-1
 448 384 l 1,4,-1
 512 384 l 1,5,-1
 512 256 l 1,6,-1
 448 256 l 1,7,-1
 448 -64 l 1,8,-1
 384 -64 l 1,9,-1
 384 -128 l 1,10,-1
 128 -128 l 1,11,-1
 128 -64 l 1,12,-1
 64 -64 l 1,13,-1
 64 -128 l 1,14,-1
 0 -128 l 1,15,-1
 0 0 l 1,16,-1
 64 0 l 1,17,-1
 64 320 l 1,18,-1
 128 320 l 1,19,-1
 128 384 l 1,0,-1
192 256 m 1,20,-1
 192 128 l 1,21,-1
 256 128 l 1,22,-1
 256 192 l 1,23,-1
 320 192 l 1,24,-1
 320 256 l 1,25,-1
 192 256 l 1,20,-1
256 128 m 1,26,-1
 256 64 l 1,27,-1
 192 64 l 1,28,-1
 192 0 l 1,29,-1
 320 0 l 1,30,-1
 320 128 l 1,31,-1
 256 128 l 1,26,-1
EndSplineSet
Validated: 5
EndChar

StartChar: ugrave
Encoding: 249 249 169
Width: 448
GlyphClass: 1
Flags: W
LayerCount: 2
Fore
SplineSet
128 640 m 1,0,-1
 256 640 l 1,1,-1
 256 448 l 1,2,-1
 192 448 l 1,3,-1
 192 512 l 1,4,-1
 128 512 l 1,5,-1
 128 640 l 1,0,-1
0 384 m 1,6,-1
 128 384 l 1,7,-1
 128 0 l 1,8,-1
 256 0 l 1,9,-1
 256 384 l 1,10,-1
 384 384 l 1,11,-1
 384 -64 l 1,12,-1
 320 -64 l 1,13,-1
 320 -128 l 1,14,-1
 64 -128 l 1,15,-1
 64 -64 l 1,16,-1
 0 -64 l 1,17,-1
 0 384 l 1,6,-1
EndSplineSet
Validated: 1
EndChar

StartChar: uacute
Encoding: 250 250 170
Width: 448
GlyphClass: 1
Flags: W
LayerCount: 2
Fore
SplineSet
128 640 m 1,0,-1
 256 640 l 1,1,-1
 256 512 l 1,2,-1
 192 512 l 1,3,-1
 192 448 l 1,4,-1
 128 448 l 1,5,-1
 128 640 l 1,0,-1
0 384 m 1,6,-1
 128 384 l 1,7,-1
 128 0 l 1,8,-1
 256 0 l 1,9,-1
 256 384 l 1,10,-1
 384 384 l 1,11,-1
 384 -64 l 1,12,-1
 320 -64 l 1,13,-1
 320 -128 l 1,14,-1
 64 -128 l 1,15,-1
 64 -64 l 1,16,-1
 0 -64 l 1,17,-1
 0 384 l 1,6,-1
EndSplineSet
Validated: 1
EndChar

StartChar: ucircumflex
Encoding: 251 251 171
Width: 448
GlyphClass: 1
Flags: W
LayerCount: 2
Fore
SplineSet
128 640 m 1,0,-1
 256 640 l 1,1,-1
 256 576 l 1,2,-1
 320 576 l 1,3,-1
 320 448 l 1,4,-1
 256 448 l 1,5,-1
 256 512 l 1,6,-1
 128 512 l 1,7,-1
 128 448 l 1,8,-1
 64 448 l 1,9,-1
 64 576 l 1,10,-1
 128 576 l 1,11,-1
 128 640 l 1,0,-1
0 384 m 1,12,-1
 128 384 l 1,13,-1
 128 0 l 1,14,-1
 256 0 l 1,15,-1
 256 384 l 1,16,-1
 384 384 l 1,17,-1
 384 -64 l 1,18,-1
 320 -64 l 1,19,-1
 320 -128 l 1,20,-1
 64 -128 l 1,21,-1
 64 -64 l 1,22,-1
 0 -64 l 1,23,-1
 0 384 l 1,12,-1
EndSplineSet
Validated: 1
EndChar

StartChar: udieresis
Encoding: 252 252 172
Width: 448
GlyphClass: 1
Flags: W
LayerCount: 2
Fore
SplineSet
0 576 m 1,0,-1
 128 576 l 1,1,-1
 128 448 l 1,2,-1
 0 448 l 1,3,-1
 0 576 l 1,0,-1
256 576 m 1,4,-1
 384 576 l 1,5,-1
 384 448 l 1,6,-1
 256 448 l 1,7,-1
 256 576 l 1,4,-1
0 384 m 1,8,-1
 128 384 l 1,9,-1
 128 0 l 1,10,-1
 256 0 l 1,11,-1
 256 384 l 1,12,-1
 384 384 l 1,13,-1
 384 -64 l 1,14,-1
 320 -64 l 1,15,-1
 320 -128 l 1,16,-1
 64 -128 l 1,17,-1
 64 -64 l 1,18,-1
 0 -64 l 1,19,-1
 0 384 l 1,8,-1
EndSplineSet
Validated: 1
EndChar

StartChar: yacute
Encoding: 253 253 173
Width: 448
GlyphClass: 1
Flags: W
LayerCount: 2
Fore
SplineSet
128 640 m 1,0,-1
 256 640 l 1,1,-1
 256 512 l 1,2,-1
 192 512 l 1,3,-1
 192 448 l 1,4,-1
 128 448 l 1,5,-1
 128 640 l 1,0,-1
0 384 m 1,6,-1
 128 384 l 1,7,-1
 128 0 l 1,8,-1
 256 0 l 1,9,-1
 256 384 l 1,10,-1
 384 384 l 1,11,-1
 384 -256 l 1,12,-1
 320 -256 l 1,13,-1
 320 -320 l 1,14,-1
 0 -320 l 1,15,-1
 0 -192 l 1,16,-1
 256 -192 l 1,17,-1
 256 -128 l 1,18,-1
 64 -128 l 1,19,-1
 64 -64 l 1,20,-1
 0 -64 l 1,21,-1
 0 384 l 1,6,-1
EndSplineSet
Validated: 1
EndChar

StartChar: thorn
Encoding: 254 254 174
Width: 448
GlyphClass: 1
Flags: W
LayerCount: 2
Fore
SplineSet
0 576 m 1,0,-1
 128 576 l 1,1,-1
 128 384 l 1,2,-1
 320 384 l 1,3,-1
 320 320 l 1,4,-1
 384 320 l 1,5,-1
 384 -64 l 1,6,-1
 320 -64 l 1,7,-1
 320 -128 l 1,8,-1
 128 -128 l 1,9,-1
 128 -256 l 1,10,-1
 0 -256 l 1,11,-1
 0 576 l 1,0,-1
128 256 m 1,12,-1
 128 0 l 1,13,-1
 256 0 l 1,14,-1
 256 256 l 1,15,-1
 128 256 l 1,12,-1
EndSplineSet
Validated: 1
EndChar

StartChar: ydieresis
Encoding: 255 255 175
Width: 448
GlyphClass: 1
Flags: W
LayerCount: 2
Fore
SplineSet
0 576 m 1,0,-1
 128 576 l 1,1,-1
 128 448 l 1,2,-1
 0 448 l 1,3,-1
 0 576 l 1,0,-1
256 576 m 1,4,-1
 384 576 l 1,5,-1
 384 448 l 1,6,-1
 256 448 l 1,7,-1
 256 576 l 1,4,-1
0 384 m 1,8,-1
 128 384 l 1,9,-1
 128 0 l 1,10,-1
 256 0 l 1,11,-1
 256 384 l 1,12,-1
 384 384 l 1,13,-1
 384 -256 l 1,14,-1
 320 -256 l 1,15,-1
 320 -320 l 1,16,-1
 0 -320 l 1,17,-1
 0 -192 l 1,18,-1
 256 -192 l 1,19,-1
 256 -128 l 1,20,-1
 64 -128 l 1,21,-1
 64 -64 l 1,22,-1
 0 -64 l 1,23,-1
 0 384 l 1,8,-1
EndSplineSet
Validated: 1
EndChar

StartChar: Amacron
Encoding: 256 256 176
Width: 448
GlyphClass: 1
Flags: W
LayerCount: 2
Fore
SplineSet
64 768 m 1,0,-1
 320 768 l 1,1,-1
 320 640 l 1,2,-1
 64 640 l 1,3,-1
 64 768 l 1,0,-1
64 576 m 1,4,-1
 320 576 l 1,5,-1
 320 512 l 1,6,-1
 384 512 l 1,7,-1
 384 -128 l 1,8,-1
 256 -128 l 1,9,-1
 256 128 l 1,10,-1
 128 128 l 1,11,-1
 128 -128 l 1,12,-1
 0 -128 l 1,13,-1
 0 512 l 1,14,-1
 64 512 l 1,15,-1
 64 576 l 1,4,-1
128 448 m 1,16,-1
 128 256 l 1,17,-1
 256 256 l 1,18,-1
 256 448 l 1,19,-1
 128 448 l 1,16,-1
EndSplineSet
Validated: 1
EndChar

StartChar: amacron
Encoding: 257 257 177
Width: 448
GlyphClass: 1
Flags: W
LayerCount: 2
Fore
SplineSet
64 576 m 1,0,-1
 320 576 l 1,1,-1
 320 448 l 1,2,-1
 64 448 l 1,3,-1
 64 576 l 1,0,-1
0 384 m 1,4,-1
 320 384 l 1,5,-1
 320 320 l 1,6,-1
 384 320 l 1,7,-1
 384 -128 l 1,8,-1
 64 -128 l 1,9,-1
 64 -64 l 1,10,-1
 0 -64 l 1,11,-1
 0 128 l 1,12,-1
 64 128 l 1,13,-1
 64 192 l 1,14,-1
 256 192 l 1,15,-1
 256 256 l 1,16,-1
 0 256 l 1,17,-1
 0 384 l 1,4,-1
128 64 m 1,18,-1
 128 0 l 1,19,-1
 256 0 l 1,20,-1
 256 64 l 1,21,-1
 128 64 l 1,18,-1
EndSplineSet
Validated: 1
EndChar

StartChar: Abreve
Encoding: 258 258 178
Width: 448
GlyphClass: 1
Flags: W
LayerCount: 2
Fore
SplineSet
64 832 m 1,0,-1
 128 832 l 1,1,-1
 128 768 l 1,2,-1
 256 768 l 1,3,-1
 256 832 l 1,4,-1
 320 832 l 1,5,-1
 320 704 l 1,6,-1
 256 704 l 1,7,-1
 256 640 l 1,8,-1
 128 640 l 1,9,-1
 128 704 l 1,10,-1
 64 704 l 1,11,-1
 64 832 l 1,0,-1
64 576 m 1,12,-1
 320 576 l 1,13,-1
 320 512 l 1,14,-1
 384 512 l 1,15,-1
 384 -128 l 1,16,-1
 256 -128 l 1,17,-1
 256 128 l 1,18,-1
 128 128 l 1,19,-1
 128 -128 l 1,20,-1
 0 -128 l 1,21,-1
 0 512 l 1,22,-1
 64 512 l 1,23,-1
 64 576 l 1,12,-1
128 448 m 1,24,-1
 128 256 l 1,25,-1
 256 256 l 1,26,-1
 256 448 l 1,27,-1
 128 448 l 1,24,-1
EndSplineSet
Validated: 1
EndChar

StartChar: abreve
Encoding: 259 259 179
Width: 448
GlyphClass: 1
Flags: W
LayerCount: 2
Fore
SplineSet
64 640 m 1,0,-1
 128 640 l 1,1,-1
 128 576 l 1,2,-1
 256 576 l 1,3,-1
 256 640 l 1,4,-1
 320 640 l 1,5,-1
 320 512 l 1,6,-1
 256 512 l 1,7,-1
 256 448 l 1,8,-1
 128 448 l 1,9,-1
 128 512 l 1,10,-1
 64 512 l 1,11,-1
 64 640 l 1,0,-1
0 384 m 1,12,-1
 320 384 l 1,13,-1
 320 320 l 1,14,-1
 384 320 l 1,15,-1
 384 -128 l 1,16,-1
 64 -128 l 1,17,-1
 64 -64 l 1,18,-1
 0 -64 l 1,19,-1
 0 128 l 1,20,-1
 64 128 l 1,21,-1
 64 192 l 1,22,-1
 256 192 l 1,23,-1
 256 256 l 1,24,-1
 0 256 l 1,25,-1
 0 384 l 1,12,-1
128 64 m 1,26,-1
 128 0 l 1,27,-1
 256 0 l 1,28,-1
 256 64 l 1,29,-1
 128 64 l 1,26,-1
EndSplineSet
Validated: 1
EndChar

StartChar: Aogonek
Encoding: 260 260 180
Width: 512
GlyphClass: 1
Flags: W
LayerCount: 2
Fore
SplineSet
64 576 m 1,0,-1
 320 576 l 1,1,-1
 320 512 l 1,2,-1
 384 512 l 1,3,-1
 384 -128 l 1,4,-1
 320 -128 l 1,5,-1
 320 -192 l 1,6,-1
 448 -192 l 1,7,-1
 448 -256 l 1,8,-1
 256 -256 l 1,9,-1
 256 128 l 1,10,-1
 128 128 l 1,11,-1
 128 -128 l 1,12,-1
 0 -128 l 1,13,-1
 0 512 l 1,14,-1
 64 512 l 1,15,-1
 64 576 l 1,0,-1
128 448 m 1,16,-1
 128 256 l 1,17,-1
 256 256 l 1,18,-1
 256 448 l 1,19,-1
 128 448 l 1,16,-1
EndSplineSet
Validated: 1
EndChar

StartChar: aogonek
Encoding: 261 261 181
Width: 512
GlyphClass: 1
Flags: W
LayerCount: 2
Fore
SplineSet
0 384 m 1,0,-1
 320 384 l 1,1,-1
 320 320 l 1,2,-1
 384 320 l 1,3,-1
 384 -128 l 1,4,-1
 320 -128 l 1,5,-1
 320 -192 l 1,6,-1
 448 -192 l 1,7,-1
 448 -256 l 1,8,-1
 256 -256 l 1,9,-1
 256 -128 l 1,10,-1
 64 -128 l 1,11,-1
 64 -64 l 1,12,-1
 0 -64 l 1,13,-1
 0 128 l 1,14,-1
 64 128 l 1,15,-1
 64 192 l 1,16,-1
 256 192 l 1,17,-1
 256 256 l 1,18,-1
 0 256 l 1,19,-1
 0 384 l 1,0,-1
128 64 m 1,20,-1
 128 0 l 1,21,-1
 256 0 l 1,22,-1
 256 64 l 1,23,-1
 128 64 l 1,20,-1
EndSplineSet
Validated: 1
EndChar

StartChar: Cacute
Encoding: 262 262 182
Width: 448
GlyphClass: 1
Flags: W
LayerCount: 2
Fore
SplineSet
128 832 m 1,0,-1
 256 832 l 1,1,-1
 256 704 l 1,2,-1
 192 704 l 1,3,-1
 192 640 l 1,4,-1
 128 640 l 1,5,-1
 128 832 l 1,0,-1
64 576 m 1,6,-1
 384 576 l 1,7,-1
 384 448 l 1,8,-1
 128 448 l 1,9,-1
 128 0 l 1,10,-1
 384 0 l 1,11,-1
 384 -128 l 1,12,-1
 64 -128 l 1,13,-1
 64 -64 l 1,14,-1
 0 -64 l 1,15,-1
 0 512 l 1,16,-1
 64 512 l 1,17,-1
 64 576 l 1,6,-1
EndSplineSet
Validated: 1
EndChar

StartChar: cacute
Encoding: 263 263 183
Width: 448
GlyphClass: 1
Flags: W
LayerCount: 2
Fore
SplineSet
128 640 m 1,0,-1
 256 640 l 1,1,-1
 256 512 l 1,2,-1
 192 512 l 1,3,-1
 192 448 l 1,4,-1
 128 448 l 1,5,-1
 128 640 l 1,0,-1
64 384 m 1,6,-1
 384 384 l 1,7,-1
 384 256 l 1,8,-1
 128 256 l 1,9,-1
 128 0 l 1,10,-1
 384 0 l 1,11,-1
 384 -128 l 1,12,-1
 64 -128 l 1,13,-1
 64 -64 l 1,14,-1
 0 -64 l 1,15,-1
 0 320 l 1,16,-1
 64 320 l 1,17,-1
 64 384 l 1,6,-1
EndSplineSet
Validated: 1
EndChar

StartChar: Dcroat
Encoding: 272 272 184
Width: 512
GlyphClass: 1
Flags: W
LayerCount: 2
Fore
SplineSet
64 576 m 1,0,-1
 384 576 l 1,1,-1
 384 512 l 1,2,-1
 448 512 l 1,3,-1
 448 -64 l 1,4,-1
 384 -64 l 1,5,-1
 384 -128 l 1,6,-1
 64 -128 l 1,7,-1
 64 192 l 1,8,-1
 0 192 l 1,9,-1
 0 256 l 1,10,-1
 64 256 l 1,11,-1
 64 576 l 1,0,-1
192 448 m 1,12,-1
 192 256 l 1,13,-1
 256 256 l 1,14,-1
 256 192 l 1,15,-1
 192 192 l 1,16,-1
 192 0 l 1,17,-1
 320 0 l 1,18,-1
 320 448 l 1,19,-1
 192 448 l 1,12,-1
EndSplineSet
Validated: 1
EndChar

StartChar: dcroat
Encoding: 273 273 185
Width: 512
GlyphClass: 1
Flags: W
LayerCount: 2
Fore
SplineSet
256 576 m 1,0,-1
 384 576 l 1,1,-1
 384 512 l 1,2,-1
 448 512 l 1,3,-1
 448 448 l 1,4,-1
 384 448 l 1,5,-1
 384 -64 l 1,6,-1
 320 -64 l 1,7,-1
 320 -128 l 1,8,-1
 64 -128 l 1,9,-1
 64 -64 l 1,10,-1
 0 -64 l 1,11,-1
 0 320 l 1,12,-1
 64 320 l 1,13,-1
 64 384 l 1,14,-1
 256 384 l 1,15,-1
 256 448 l 1,16,-1
 192 448 l 1,17,-1
 192 512 l 1,18,-1
 256 512 l 1,19,-1
 256 576 l 1,0,-1
128 256 m 1,20,-1
 128 0 l 1,21,-1
 256 0 l 1,22,-1
 256 256 l 1,23,-1
 128 256 l 1,20,-1
EndSplineSet
Validated: 1
EndChar

StartChar: Emacron
Encoding: 274 274 186
Width: 448
GlyphClass: 1
Flags: W
LayerCount: 2
Fore
SplineSet
64 768 m 1,0,-1
 320 768 l 1,1,-1
 320 640 l 1,2,-1
 64 640 l 1,3,-1
 64 768 l 1,0,-1
64 576 m 1,4,-1
 384 576 l 1,5,-1
 384 448 l 1,6,-1
 128 448 l 1,7,-1
 128 320 l 1,8,-1
 320 320 l 1,9,-1
 320 192 l 1,10,-1
 128 192 l 1,11,-1
 128 0 l 1,12,-1
 384 0 l 1,13,-1
 384 -128 l 1,14,-1
 64 -128 l 1,15,-1
 64 -64 l 1,16,-1
 0 -64 l 1,17,-1
 0 512 l 1,18,-1
 64 512 l 1,19,-1
 64 576 l 1,4,-1
EndSplineSet
Validated: 1
EndChar

StartChar: emacron
Encoding: 275 275 187
Width: 448
GlyphClass: 1
Flags: W
LayerCount: 2
Fore
SplineSet
64 576 m 1,0,-1
 320 576 l 1,1,-1
 320 448 l 1,2,-1
 64 448 l 1,3,-1
 64 576 l 1,0,-1
64 384 m 1,4,-1
 320 384 l 1,5,-1
 320 320 l 1,6,-1
 384 320 l 1,7,-1
 384 64 l 1,8,-1
 128 64 l 1,9,-1
 128 0 l 1,10,-1
 384 0 l 1,11,-1
 384 -128 l 1,12,-1
 64 -128 l 1,13,-1
 64 -64 l 1,14,-1
 0 -64 l 1,15,-1
 0 320 l 1,16,-1
 64 320 l 1,17,-1
 64 384 l 1,4,-1
128 256 m 1,18,-1
 128 192 l 1,19,-1
 256 192 l 1,20,-1
 256 256 l 1,21,-1
 128 256 l 1,18,-1
EndSplineSet
Validated: 1
EndChar

StartChar: Ebreve
Encoding: 276 276 188
Width: 448
GlyphClass: 1
Flags: W
LayerCount: 2
Fore
SplineSet
64 832 m 1,0,-1
 128 832 l 1,1,-1
 128 768 l 1,2,-1
 256 768 l 1,3,-1
 256 832 l 1,4,-1
 320 832 l 1,5,-1
 320 704 l 1,6,-1
 256 704 l 1,7,-1
 256 640 l 1,8,-1
 128 640 l 1,9,-1
 128 704 l 1,10,-1
 64 704 l 1,11,-1
 64 832 l 1,0,-1
64 576 m 1,12,-1
 384 576 l 1,13,-1
 384 448 l 1,14,-1
 128 448 l 1,15,-1
 128 320 l 1,16,-1
 320 320 l 1,17,-1
 320 192 l 1,18,-1
 128 192 l 1,19,-1
 128 0 l 1,20,-1
 384 0 l 1,21,-1
 384 -128 l 1,22,-1
 64 -128 l 1,23,-1
 64 -64 l 1,24,-1
 0 -64 l 1,25,-1
 0 512 l 1,26,-1
 64 512 l 1,27,-1
 64 576 l 1,12,-1
EndSplineSet
Validated: 1
EndChar

StartChar: ebreve
Encoding: 277 277 189
Width: 448
GlyphClass: 1
Flags: W
LayerCount: 2
Fore
SplineSet
64 640 m 1,0,-1
 128 640 l 1,1,-1
 128 576 l 1,2,-1
 256 576 l 1,3,-1
 256 640 l 1,4,-1
 320 640 l 1,5,-1
 320 512 l 1,6,-1
 256 512 l 1,7,-1
 256 448 l 1,8,-1
 128 448 l 1,9,-1
 128 512 l 1,10,-1
 64 512 l 1,11,-1
 64 640 l 1,0,-1
64 384 m 1,12,-1
 320 384 l 1,13,-1
 320 320 l 1,14,-1
 384 320 l 1,15,-1
 384 64 l 1,16,-1
 128 64 l 1,17,-1
 128 0 l 1,18,-1
 384 0 l 1,19,-1
 384 -128 l 1,20,-1
 64 -128 l 1,21,-1
 64 -64 l 1,22,-1
 0 -64 l 1,23,-1
 0 320 l 1,24,-1
 64 320 l 1,25,-1
 64 384 l 1,12,-1
128 256 m 1,26,-1
 128 192 l 1,27,-1
 256 192 l 1,28,-1
 256 256 l 1,29,-1
 128 256 l 1,26,-1
EndSplineSet
Validated: 1
EndChar

StartChar: Eogonek
Encoding: 280 280 190
Width: 512
GlyphClass: 1
Flags: W
LayerCount: 2
Fore
SplineSet
64 576 m 1,0,-1
 384 576 l 1,1,-1
 384 448 l 1,2,-1
 128 448 l 1,3,-1
 128 320 l 1,4,-1
 320 320 l 1,5,-1
 320 192 l 1,6,-1
 128 192 l 1,7,-1
 128 0 l 1,8,-1
 384 0 l 1,9,-1
 384 -128 l 1,10,-1
 320 -128 l 1,11,-1
 320 -192 l 1,12,-1
 448 -192 l 1,13,-1
 448 -256 l 1,14,-1
 256 -256 l 1,15,-1
 256 -128 l 1,16,-1
 64 -128 l 1,17,-1
 64 -64 l 1,18,-1
 0 -64 l 1,19,-1
 0 512 l 1,20,-1
 64 512 l 1,21,-1
 64 576 l 1,0,-1
EndSplineSet
Validated: 1
EndChar

StartChar: eogonek
Encoding: 281 281 191
Width: 512
GlyphClass: 1
Flags: W
LayerCount: 2
Fore
SplineSet
64 384 m 1,0,-1
 320 384 l 1,1,-1
 320 320 l 1,2,-1
 384 320 l 1,3,-1
 384 64 l 1,4,-1
 128 64 l 1,5,-1
 128 0 l 1,6,-1
 384 0 l 1,7,-1
 384 -128 l 1,8,-1
 320 -128 l 1,9,-1
 320 -192 l 1,10,-1
 448 -192 l 1,11,-1
 448 -256 l 1,12,-1
 256 -256 l 1,13,-1
 256 -128 l 1,14,-1
 64 -128 l 1,15,-1
 64 -64 l 1,16,-1
 0 -64 l 1,17,-1
 0 320 l 1,18,-1
 64 320 l 1,19,-1
 64 384 l 1,0,-1
128 256 m 1,20,-1
 128 192 l 1,21,-1
 256 192 l 1,22,-1
 256 256 l 1,23,-1
 128 256 l 1,20,-1
EndSplineSet
Validated: 1
EndChar

StartChar: Gbreve
Encoding: 286 286 192
Width: 448
GlyphClass: 1
Flags: W
LayerCount: 2
Fore
SplineSet
64 832 m 1,0,-1
 128 832 l 1,1,-1
 128 768 l 1,2,-1
 256 768 l 1,3,-1
 256 832 l 1,4,-1
 320 832 l 1,5,-1
 320 704 l 1,6,-1
 256 704 l 1,7,-1
 256 640 l 1,8,-1
 128 640 l 1,9,-1
 128 704 l 1,10,-1
 64 704 l 1,11,-1
 64 832 l 1,0,-1
64 576 m 1,12,-1
 384 576 l 1,13,-1
 384 448 l 1,14,-1
 128 448 l 1,15,-1
 128 0 l 1,16,-1
 256 0 l 1,17,-1
 256 192 l 1,18,-1
 192 192 l 1,19,-1
 192 320 l 1,20,-1
 384 320 l 1,21,-1
 384 -64 l 1,22,-1
 320 -64 l 1,23,-1
 320 -128 l 1,24,-1
 64 -128 l 1,25,-1
 64 -64 l 1,26,-1
 0 -64 l 1,27,-1
 0 512 l 1,28,-1
 64 512 l 1,29,-1
 64 576 l 1,12,-1
EndSplineSet
Validated: 1
EndChar

StartChar: gbreve
Encoding: 287 287 193
Width: 448
GlyphClass: 1
Flags: W
LayerCount: 2
Fore
SplineSet
64 640 m 1,0,-1
 128 640 l 1,1,-1
 128 576 l 1,2,-1
 256 576 l 1,3,-1
 256 640 l 1,4,-1
 320 640 l 1,5,-1
 320 512 l 1,6,-1
 256 512 l 1,7,-1
 256 448 l 1,8,-1
 128 448 l 1,9,-1
 128 512 l 1,10,-1
 64 512 l 1,11,-1
 64 640 l 1,0,-1
64 384 m 1,12,-1
 320 384 l 1,13,-1
 320 320 l 1,14,-1
 384 320 l 1,15,-1
 384 -256 l 1,16,-1
 320 -256 l 1,17,-1
 320 -320 l 1,18,-1
 0 -320 l 1,19,-1
 0 -192 l 1,20,-1
 256 -192 l 1,21,-1
 256 -128 l 1,22,-1
 64 -128 l 1,23,-1
 64 -64 l 1,24,-1
 0 -64 l 1,25,-1
 0 320 l 1,26,-1
 64 320 l 1,27,-1
 64 384 l 1,12,-1
128 256 m 1,28,-1
 128 0 l 1,29,-1
 256 0 l 1,30,-1
 256 256 l 1,31,-1
 128 256 l 1,28,-1
EndSplineSet
Validated: 1
EndChar

StartChar: Imacron
Encoding: 298 298 194
Width: 448
GlyphClass: 1
Flags: W
LayerCount: 2
Fore
SplineSet
64 768 m 1,0,-1
 320 768 l 1,1,-1
 320 640 l 1,2,-1
 64 640 l 1,3,-1
 64 768 l 1,0,-1
0 576 m 1,4,-1
 384 576 l 1,5,-1
 384 448 l 1,6,-1
 256 448 l 1,7,-1
 256 0 l 1,8,-1
 384 0 l 1,9,-1
 384 -128 l 1,10,-1
 0 -128 l 1,11,-1
 0 0 l 1,12,-1
 128 0 l 1,13,-1
 128 448 l 1,14,-1
 0 448 l 1,15,-1
 0 576 l 1,4,-1
EndSplineSet
Validated: 1
EndChar

StartChar: imacron
Encoding: 299 299 195
Width: 320
GlyphClass: 1
Flags: W
LayerCount: 2
Fore
SplineSet
0 576 m 1,0,-1
 256 576 l 1,1,-1
 256 448 l 1,2,-1
 0 448 l 1,3,-1
 0 576 l 1,0,-1
64 384 m 1,4,-1
 192 384 l 1,5,-1
 192 -128 l 1,6,-1
 64 -128 l 1,7,-1
 64 384 l 1,4,-1
EndSplineSet
Validated: 1
EndChar

StartChar: Ibreve
Encoding: 300 300 196
Width: 448
GlyphClass: 1
Flags: W
LayerCount: 2
Fore
SplineSet
64 832 m 1,0,-1
 128 832 l 1,1,-1
 128 768 l 1,2,-1
 256 768 l 1,3,-1
 256 832 l 1,4,-1
 320 832 l 1,5,-1
 320 704 l 1,6,-1
 256 704 l 1,7,-1
 256 640 l 1,8,-1
 128 640 l 1,9,-1
 128 704 l 1,10,-1
 64 704 l 1,11,-1
 64 832 l 1,0,-1
0 576 m 1,12,-1
 384 576 l 1,13,-1
 384 448 l 1,14,-1
 256 448 l 1,15,-1
 256 0 l 1,16,-1
 384 0 l 1,17,-1
 384 -128 l 1,18,-1
 0 -128 l 1,19,-1
 0 0 l 1,20,-1
 128 0 l 1,21,-1
 128 448 l 1,22,-1
 0 448 l 1,23,-1
 0 576 l 1,12,-1
EndSplineSet
Validated: 1
EndChar

StartChar: ibreve
Encoding: 301 301 197
Width: 320
GlyphClass: 1
Flags: W
LayerCount: 2
Fore
SplineSet
0 640 m 1,0,-1
 64 640 l 1,1,-1
 64 576 l 1,2,-1
 192 576 l 1,3,-1
 192 640 l 1,4,-1
 256 640 l 1,5,-1
 256 512 l 1,6,-1
 192 512 l 1,7,-1
 192 448 l 1,8,-1
 64 448 l 1,9,-1
 64 512 l 1,10,-1
 0 512 l 1,11,-1
 0 640 l 1,0,-1
64 384 m 1,12,-1
 192 384 l 1,13,-1
 192 -128 l 1,14,-1
 64 -128 l 1,15,-1
 64 384 l 1,12,-1
EndSplineSet
Validated: 1
EndChar

StartChar: Idotaccent
Encoding: 304 304 198
Width: 448
GlyphClass: 1
Flags: W
LayerCount: 2
Fore
SplineSet
128 768 m 1,0,-1
 256 768 l 1,1,-1
 256 640 l 1,2,-1
 128 640 l 1,3,-1
 128 768 l 1,0,-1
0 576 m 1,4,-1
 384 576 l 1,5,-1
 384 448 l 1,6,-1
 256 448 l 1,7,-1
 256 0 l 1,8,-1
 384 0 l 1,9,-1
 384 -128 l 1,10,-1
 0 -128 l 1,11,-1
 0 0 l 1,12,-1
 128 0 l 1,13,-1
 128 448 l 1,14,-1
 0 448 l 1,15,-1
 0 576 l 1,4,-1
EndSplineSet
Validated: 1
EndChar

StartChar: dotlessi
Encoding: 305 305 199
Width: 192
GlyphClass: 1
Flags: W
LayerCount: 2
Fore
SplineSet
0 384 m 1,0,-1
 128 384 l 1,1,-1
 128 -128 l 1,2,-1
 0 -128 l 1,3,-1
 0 384 l 1,0,-1
EndSplineSet
Validated: 1
EndChar

StartChar: Lslash
Encoding: 321 321 200
Width: 576
GlyphClass: 1
Flags: W
LayerCount: 2
Fore
SplineSet
128 576 m 1,0,-1
 256 576 l 1,1,-1
 256 320 l 1,2,-1
 320 320 l 1,3,-1
 320 256 l 1,4,-1
 256 256 l 1,5,-1
 256 0 l 1,6,-1
 512 0 l 1,7,-1
 512 -128 l 1,8,-1
 192 -128 l 1,9,-1
 192 -64 l 1,10,-1
 128 -64 l 1,11,-1
 128 128 l 1,12,-1
 64 128 l 1,13,-1
 64 192 l 1,14,-1
 128 192 l 1,15,-1
 128 576 l 1,0,-1
320 384 m 1,16,-1
 384 384 l 1,17,-1
 384 320 l 1,18,-1
 320 320 l 1,19,-1
 320 384 l 1,16,-1
0 128 m 1,20,-1
 64 128 l 1,21,-1
 64 64 l 1,22,-1
 0 64 l 1,23,-1
 0 128 l 1,20,-1
EndSplineSet
Validated: 5
EndChar

StartChar: lslash
Encoding: 322 322 201
Width: 448
GlyphClass: 1
Flags: W
LayerCount: 2
Fore
SplineSet
128 576 m 1,0,-1
 256 576 l 1,1,-1
 256 320 l 1,2,-1
 320 320 l 1,3,-1
 320 256 l 1,4,-1
 256 256 l 1,5,-1
 256 -128 l 1,6,-1
 128 -128 l 1,7,-1
 128 128 l 1,8,-1
 64 128 l 1,9,-1
 64 192 l 1,10,-1
 128 192 l 1,11,-1
 128 576 l 1,0,-1
320 384 m 1,12,-1
 384 384 l 1,13,-1
 384 320 l 1,14,-1
 320 320 l 1,15,-1
 320 384 l 1,12,-1
0 128 m 1,16,-1
 64 128 l 1,17,-1
 64 64 l 1,18,-1
 0 64 l 1,19,-1
 0 128 l 1,16,-1
EndSplineSet
Validated: 5
EndChar

StartChar: Nacute
Encoding: 323 323 202
Width: 448
GlyphClass: 1
Flags: W
LayerCount: 2
Fore
SplineSet
128 832 m 1,0,-1
 256 832 l 1,1,-1
 256 704 l 1,2,-1
 192 704 l 1,3,-1
 192 640 l 1,4,-1
 128 640 l 1,5,-1
 128 832 l 1,0,-1
0 576 m 1,6,-1
 320 576 l 1,7,-1
 320 512 l 1,8,-1
 384 512 l 1,9,-1
 384 -128 l 1,10,-1
 256 -128 l 1,11,-1
 256 448 l 1,12,-1
 128 448 l 1,13,-1
 128 -128 l 1,14,-1
 0 -128 l 1,15,-1
 0 576 l 1,6,-1
EndSplineSet
Validated: 1
EndChar

StartChar: nacute
Encoding: 324 324 203
Width: 448
GlyphClass: 1
Flags: W
LayerCount: 2
Fore
SplineSet
128 640 m 1,0,-1
 256 640 l 1,1,-1
 256 512 l 1,2,-1
 192 512 l 1,3,-1
 192 448 l 1,4,-1
 128 448 l 1,5,-1
 128 640 l 1,0,-1
0 384 m 1,6,-1
 320 384 l 1,7,-1
 320 320 l 1,8,-1
 384 320 l 1,9,-1
 384 -128 l 1,10,-1
 256 -128 l 1,11,-1
 256 256 l 1,12,-1
 128 256 l 1,13,-1
 128 -128 l 1,14,-1
 0 -128 l 1,15,-1
 0 384 l 1,6,-1
EndSplineSet
Validated: 1
EndChar

StartChar: Omacron
Encoding: 332 332 204
Width: 448
GlyphClass: 1
Flags: W
LayerCount: 2
Fore
SplineSet
64 768 m 1,0,-1
 320 768 l 1,1,-1
 320 640 l 1,2,-1
 64 640 l 1,3,-1
 64 768 l 1,0,-1
64 576 m 1,4,-1
 320 576 l 1,5,-1
 320 512 l 1,6,-1
 384 512 l 1,7,-1
 384 -64 l 1,8,-1
 320 -64 l 1,9,-1
 320 -128 l 1,10,-1
 64 -128 l 1,11,-1
 64 -64 l 1,12,-1
 0 -64 l 1,13,-1
 0 512 l 1,14,-1
 64 512 l 1,15,-1
 64 576 l 1,4,-1
128 448 m 1,16,-1
 128 0 l 1,17,-1
 256 0 l 1,18,-1
 256 448 l 1,19,-1
 128 448 l 1,16,-1
EndSplineSet
Validated: 1
EndChar

StartChar: omacron
Encoding: 333 333 205
Width: 448
GlyphClass: 1
Flags: W
LayerCount: 2
Fore
SplineSet
64 576 m 1,0,-1
 320 576 l 1,1,-1
 320 448 l 1,2,-1
 64 448 l 1,3,-1
 64 576 l 1,0,-1
64 384 m 1,4,-1
 320 384 l 1,5,-1
 320 320 l 1,6,-1
 384 320 l 1,7,-1
 384 -64 l 1,8,-1
 320 -64 l 1,9,-1
 320 -128 l 1,10,-1
 64 -128 l 1,11,-1
 64 -64 l 1,12,-1
 0 -64 l 1,13,-1
 0 320 l 1,14,-1
 64 320 l 1,15,-1
 64 384 l 1,4,-1
128 256 m 1,16,-1
 128 0 l 1,17,-1
 256 0 l 1,18,-1
 256 256 l 1,19,-1
 128 256 l 1,16,-1
EndSplineSet
Validated: 1
EndChar

StartChar: Obreve
Encoding: 334 334 206
Width: 448
GlyphClass: 1
Flags: W
LayerCount: 2
Fore
SplineSet
64 832 m 1,0,-1
 128 832 l 1,1,-1
 128 768 l 1,2,-1
 256 768 l 1,3,-1
 256 832 l 1,4,-1
 320 832 l 1,5,-1
 320 704 l 1,6,-1
 256 704 l 1,7,-1
 256 640 l 1,8,-1
 128 640 l 1,9,-1
 128 704 l 1,10,-1
 64 704 l 1,11,-1
 64 832 l 1,0,-1
64 576 m 1,12,-1
 320 576 l 1,13,-1
 320 512 l 1,14,-1
 384 512 l 1,15,-1
 384 -64 l 1,16,-1
 320 -64 l 1,17,-1
 320 -128 l 1,18,-1
 64 -128 l 1,19,-1
 64 -64 l 1,20,-1
 0 -64 l 1,21,-1
 0 512 l 1,22,-1
 64 512 l 1,23,-1
 64 576 l 1,12,-1
128 448 m 1,24,-1
 128 0 l 1,25,-1
 256 0 l 1,26,-1
 256 448 l 1,27,-1
 128 448 l 1,24,-1
EndSplineSet
Validated: 1
EndChar

StartChar: obreve
Encoding: 335 335 207
Width: 448
GlyphClass: 1
Flags: W
LayerCount: 2
Fore
SplineSet
64 640 m 1,0,-1
 128 640 l 1,1,-1
 128 576 l 1,2,-1
 256 576 l 1,3,-1
 256 640 l 1,4,-1
 320 640 l 1,5,-1
 320 512 l 1,6,-1
 256 512 l 1,7,-1
 256 448 l 1,8,-1
 128 448 l 1,9,-1
 128 512 l 1,10,-1
 64 512 l 1,11,-1
 64 640 l 1,0,-1
64 384 m 1,12,-1
 320 384 l 1,13,-1
 320 320 l 1,14,-1
 384 320 l 1,15,-1
 384 -64 l 1,16,-1
 320 -64 l 1,17,-1
 320 -128 l 1,18,-1
 64 -128 l 1,19,-1
 64 -64 l 1,20,-1
 0 -64 l 1,21,-1
 0 320 l 1,22,-1
 64 320 l 1,23,-1
 64 384 l 1,12,-1
128 256 m 1,24,-1
 128 0 l 1,25,-1
 256 0 l 1,26,-1
 256 256 l 1,27,-1
 128 256 l 1,24,-1
EndSplineSet
Validated: 1
EndChar

StartChar: OE
Encoding: 338 338 208
Width: 704
GlyphClass: 1
Flags: W
LayerCount: 2
Fore
SplineSet
64 576 m 1,0,-1
 640 576 l 1,1,-1
 640 448 l 1,2,-1
 384 448 l 1,3,-1
 384 320 l 1,4,-1
 576 320 l 1,5,-1
 576 192 l 1,6,-1
 384 192 l 1,7,-1
 384 0 l 1,8,-1
 640 0 l 1,9,-1
 640 -128 l 1,10,-1
 64 -128 l 1,11,-1
 64 -64 l 1,12,-1
 0 -64 l 1,13,-1
 0 512 l 1,14,-1
 64 512 l 1,15,-1
 64 576 l 1,0,-1
128 448 m 1,16,-1
 128 0 l 1,17,-1
 256 0 l 1,18,-1
 256 448 l 1,19,-1
 128 448 l 1,16,-1
EndSplineSet
Validated: 1
EndChar

StartChar: oe
Encoding: 339 339 209
Width: 704
GlyphClass: 1
Flags: W
LayerCount: 2
Fore
SplineSet
64 384 m 1,0,-1
 576 384 l 1,1,-1
 576 320 l 1,2,-1
 640 320 l 1,3,-1
 640 64 l 1,4,-1
 384 64 l 1,5,-1
 384 0 l 1,6,-1
 640 0 l 1,7,-1
 640 -128 l 1,8,-1
 64 -128 l 1,9,-1
 64 -64 l 1,10,-1
 0 -64 l 1,11,-1
 0 320 l 1,12,-1
 64 320 l 1,13,-1
 64 384 l 1,0,-1
128 256 m 1,14,-1
 128 0 l 1,15,-1
 256 0 l 1,16,-1
 256 256 l 1,17,-1
 128 256 l 1,14,-1
384 256 m 1,18,-1
 384 192 l 1,19,-1
 512 192 l 1,20,-1
 512 256 l 1,21,-1
 384 256 l 1,18,-1
EndSplineSet
Validated: 1
EndChar

StartChar: Sacute
Encoding: 346 346 210
Width: 448
GlyphClass: 1
Flags: W
LayerCount: 2
Fore
SplineSet
128 832 m 1,0,-1
 256 832 l 1,1,-1
 256 704 l 1,2,-1
 192 704 l 1,3,-1
 192 640 l 1,4,-1
 128 640 l 1,5,-1
 128 832 l 1,0,-1
64 576 m 1,6,-1
 384 576 l 1,7,-1
 384 448 l 1,8,-1
 128 448 l 1,9,-1
 128 320 l 1,10,-1
 320 320 l 1,11,-1
 320 256 l 1,12,-1
 384 256 l 1,13,-1
 384 -64 l 1,14,-1
 320 -64 l 1,15,-1
 320 -128 l 1,16,-1
 0 -128 l 1,17,-1
 0 0 l 1,18,-1
 256 0 l 1,19,-1
 256 192 l 1,20,-1
 64 192 l 1,21,-1
 64 256 l 1,22,-1
 0 256 l 1,23,-1
 0 512 l 1,24,-1
 64 512 l 1,25,-1
 64 576 l 1,6,-1
EndSplineSet
Validated: 1
EndChar

StartChar: sacute
Encoding: 347 347 211
Width: 448
GlyphClass: 1
Flags: W
LayerCount: 2
Fore
SplineSet
128 640 m 1,0,-1
 256 640 l 1,1,-1
 256 512 l 1,2,-1
 192 512 l 1,3,-1
 192 448 l 1,4,-1
 128 448 l 1,5,-1
 128 640 l 1,0,-1
64 384 m 1,6,-1
 384 384 l 1,7,-1
 384 256 l 1,8,-1
 128 256 l 1,9,-1
 128 192 l 1,10,-1
 320 192 l 1,11,-1
 320 128 l 1,12,-1
 384 128 l 1,13,-1
 384 -64 l 1,14,-1
 320 -64 l 1,15,-1
 320 -128 l 1,16,-1
 0 -128 l 1,17,-1
 0 0 l 1,18,-1
 256 0 l 1,19,-1
 256 64 l 1,20,-1
 64 64 l 1,21,-1
 64 128 l 1,22,-1
 0 128 l 1,23,-1
 0 320 l 1,24,-1
 64 320 l 1,25,-1
 64 384 l 1,6,-1
EndSplineSet
Validated: 1
EndChar

StartChar: Scedilla
Encoding: 350 350 212
Width: 448
GlyphClass: 1
Flags: W
LayerCount: 2
Fore
SplineSet
64 576 m 1,0,-1
 384 576 l 1,1,-1
 384 448 l 1,2,-1
 128 448 l 1,3,-1
 128 320 l 1,4,-1
 320 320 l 1,5,-1
 320 256 l 1,6,-1
 384 256 l 1,7,-1
 384 -64 l 1,8,-1
 320 -64 l 1,9,-1
 320 -128 l 1,10,-1
 256 -128 l 1,11,-1
 256 -256 l 1,12,-1
 64 -256 l 1,13,-1
 64 -192 l 1,14,-1
 192 -192 l 1,15,-1
 192 -128 l 1,16,-1
 0 -128 l 1,17,-1
 0 0 l 1,18,-1
 256 0 l 1,19,-1
 256 192 l 1,20,-1
 64 192 l 1,21,-1
 64 256 l 1,22,-1
 0 256 l 1,23,-1
 0 512 l 1,24,-1
 64 512 l 1,25,-1
 64 576 l 1,0,-1
EndSplineSet
Validated: 1
EndChar

StartChar: scedilla
Encoding: 351 351 213
Width: 448
GlyphClass: 1
Flags: W
LayerCount: 2
Fore
SplineSet
64 384 m 1,0,-1
 384 384 l 1,1,-1
 384 256 l 1,2,-1
 128 256 l 1,3,-1
 128 192 l 1,4,-1
 320 192 l 1,5,-1
 320 128 l 1,6,-1
 384 128 l 1,7,-1
 384 -64 l 1,8,-1
 320 -64 l 1,9,-1
 320 -128 l 1,10,-1
 256 -128 l 1,11,-1
 256 -256 l 1,12,-1
 64 -256 l 1,13,-1
 64 -192 l 1,14,-1
 192 -192 l 1,15,-1
 192 -128 l 1,16,-1
 0 -128 l 1,17,-1
 0 0 l 1,18,-1
 256 0 l 1,19,-1
 256 64 l 1,20,-1
 64 64 l 1,21,-1
 64 128 l 1,22,-1
 0 128 l 1,23,-1
 0 320 l 1,24,-1
 64 320 l 1,25,-1
 64 384 l 1,0,-1
EndSplineSet
Validated: 1
EndChar

StartChar: Umacron
Encoding: 362 362 214
Width: 448
GlyphClass: 1
Flags: W
LayerCount: 2
Fore
SplineSet
64 768 m 1,0,-1
 320 768 l 1,1,-1
 320 640 l 1,2,-1
 64 640 l 1,3,-1
 64 768 l 1,0,-1
0 576 m 1,4,-1
 128 576 l 1,5,-1
 128 0 l 1,6,-1
 256 0 l 1,7,-1
 256 576 l 1,8,-1
 384 576 l 1,9,-1
 384 -64 l 1,10,-1
 320 -64 l 1,11,-1
 320 -128 l 1,12,-1
 64 -128 l 1,13,-1
 64 -64 l 1,14,-1
 0 -64 l 1,15,-1
 0 576 l 1,4,-1
EndSplineSet
Validated: 1
EndChar

StartChar: umacron
Encoding: 363 363 215
Width: 448
GlyphClass: 1
Flags: W
LayerCount: 2
Fore
SplineSet
64 576 m 1,0,-1
 320 576 l 1,1,-1
 320 448 l 1,2,-1
 64 448 l 1,3,-1
 64 576 l 1,0,-1
0 384 m 1,4,-1
 128 384 l 1,5,-1
 128 0 l 1,6,-1
 256 0 l 1,7,-1
 256 384 l 1,8,-1
 384 384 l 1,9,-1
 384 -64 l 1,10,-1
 320 -64 l 1,11,-1
 320 -128 l 1,12,-1
 64 -128 l 1,13,-1
 64 -64 l 1,14,-1
 0 -64 l 1,15,-1
 0 384 l 1,4,-1
EndSplineSet
Validated: 1
EndChar

StartChar: Ubreve
Encoding: 364 364 216
Width: 448
GlyphClass: 1
Flags: W
LayerCount: 2
Fore
SplineSet
64 832 m 1,0,-1
 128 832 l 1,1,-1
 128 768 l 1,2,-1
 256 768 l 1,3,-1
 256 832 l 1,4,-1
 320 832 l 1,5,-1
 320 704 l 1,6,-1
 256 704 l 1,7,-1
 256 640 l 1,8,-1
 128 640 l 1,9,-1
 128 704 l 1,10,-1
 64 704 l 1,11,-1
 64 832 l 1,0,-1
0 576 m 1,12,-1
 128 576 l 1,13,-1
 128 0 l 1,14,-1
 256 0 l 1,15,-1
 256 576 l 1,16,-1
 384 576 l 1,17,-1
 384 -64 l 1,18,-1
 320 -64 l 1,19,-1
 320 -128 l 1,20,-1
 64 -128 l 1,21,-1
 64 -64 l 1,22,-1
 0 -64 l 1,23,-1
 0 576 l 1,12,-1
EndSplineSet
Validated: 1
EndChar

StartChar: ubreve
Encoding: 365 365 217
Width: 448
GlyphClass: 1
Flags: W
LayerCount: 2
Fore
SplineSet
64 640 m 1,0,-1
 128 640 l 1,1,-1
 128 576 l 1,2,-1
 256 576 l 1,3,-1
 256 640 l 1,4,-1
 320 640 l 1,5,-1
 320 512 l 1,6,-1
 256 512 l 1,7,-1
 256 448 l 1,8,-1
 128 448 l 1,9,-1
 128 512 l 1,10,-1
 64 512 l 1,11,-1
 64 640 l 1,0,-1
0 384 m 1,12,-1
 128 384 l 1,13,-1
 128 0 l 1,14,-1
 256 0 l 1,15,-1
 256 384 l 1,16,-1
 384 384 l 1,17,-1
 384 -64 l 1,18,-1
 320 -64 l 1,19,-1
 320 -128 l 1,20,-1
 64 -128 l 1,21,-1
 64 -64 l 1,22,-1
 0 -64 l 1,23,-1
 0 384 l 1,12,-1
EndSplineSet
Validated: 1
EndChar

StartChar: Ydieresis
Encoding: 376 376 218
Width: 448
GlyphClass: 1
Flags: W
LayerCount: 2
Fore
SplineSet
0 768 m 1,0,-1
 128 768 l 1,1,-1
 128 640 l 1,2,-1
 0 640 l 1,3,-1
 0 768 l 1,0,-1
256 768 m 1,4,-1
 384 768 l 1,5,-1
 384 640 l 1,6,-1
 256 640 l 1,7,-1
 256 768 l 1,4,-1
0 576 m 1,8,-1
 128 576 l 1,9,-1
 128 320 l 1,10,-1
 256 320 l 1,11,-1
 256 576 l 1,12,-1
 384 576 l 1,13,-1
 384 256 l 1,14,-1
 320 256 l 1,15,-1
 320 192 l 1,16,-1
 256 192 l 1,17,-1
 256 -128 l 1,18,-1
 128 -128 l 1,19,-1
 128 192 l 1,20,-1
 64 192 l 1,21,-1
 64 256 l 1,22,-1
 0 256 l 1,23,-1
 0 576 l 1,8,-1
EndSplineSet
Validated: 1
EndChar

StartChar: Zacute
Encoding: 377 377 219
Width: 448
GlyphClass: 1
Flags: W
LayerCount: 2
Fore
SplineSet
128 832 m 1,0,-1
 256 832 l 1,1,-1
 256 704 l 1,2,-1
 192 704 l 1,3,-1
 192 640 l 1,4,-1
 128 640 l 1,5,-1
 128 832 l 1,0,-1
0 576 m 1,6,-1
 384 576 l 1,7,-1
 384 384 l 1,8,-1
 320 384 l 1,9,-1
 320 256 l 1,10,-1
 256 256 l 1,11,-1
 256 128 l 1,12,-1
 192 128 l 1,13,-1
 192 0 l 1,14,-1
 384 0 l 1,15,-1
 384 -128 l 1,16,-1
 0 -128 l 1,17,-1
 0 64 l 1,18,-1
 64 64 l 1,19,-1
 64 192 l 1,20,-1
 128 192 l 1,21,-1
 128 320 l 1,22,-1
 192 320 l 1,23,-1
 192 448 l 1,24,-1
 0 448 l 1,25,-1
 0 576 l 1,6,-1
EndSplineSet
Validated: 1
EndChar

StartChar: zacute
Encoding: 378 378 220
Width: 448
GlyphClass: 1
Flags: W
LayerCount: 2
Fore
SplineSet
128 640 m 1,0,-1
 256 640 l 1,1,-1
 256 512 l 1,2,-1
 192 512 l 1,3,-1
 192 448 l 1,4,-1
 128 448 l 1,5,-1
 128 640 l 1,0,-1
0 384 m 1,6,-1
 384 384 l 1,7,-1
 384 192 l 1,8,-1
 320 192 l 1,9,-1
 320 128 l 1,10,-1
 256 128 l 1,11,-1
 256 64 l 1,12,-1
 192 64 l 1,13,-1
 192 0 l 1,14,-1
 384 0 l 1,15,-1
 384 -128 l 1,16,-1
 0 -128 l 1,17,-1
 0 64 l 1,18,-1
 64 64 l 1,19,-1
 64 128 l 1,20,-1
 128 128 l 1,21,-1
 128 192 l 1,22,-1
 192 192 l 1,23,-1
 192 256 l 1,24,-1
 0 256 l 1,25,-1
 0 384 l 1,6,-1
EndSplineSet
Validated: 1
EndChar

StartChar: Zdotaccent
Encoding: 379 379 221
Width: 448
GlyphClass: 1
Flags: W
LayerCount: 2
Fore
SplineSet
128 768 m 1,0,-1
 256 768 l 1,1,-1
 256 640 l 1,2,-1
 128 640 l 1,3,-1
 128 768 l 1,0,-1
0 576 m 1,4,-1
 384 576 l 1,5,-1
 384 384 l 1,6,-1
 320 384 l 1,7,-1
 320 256 l 1,8,-1
 256 256 l 1,9,-1
 256 128 l 1,10,-1
 192 128 l 1,11,-1
 192 0 l 1,12,-1
 384 0 l 1,13,-1
 384 -128 l 1,14,-1
 0 -128 l 1,15,-1
 0 64 l 1,16,-1
 64 64 l 1,17,-1
 64 192 l 1,18,-1
 128 192 l 1,19,-1
 128 320 l 1,20,-1
 192 320 l 1,21,-1
 192 448 l 1,22,-1
 0 448 l 1,23,-1
 0 576 l 1,4,-1
EndSplineSet
Validated: 1
EndChar

StartChar: zdotaccent
Encoding: 380 380 222
Width: 448
GlyphClass: 1
Flags: W
LayerCount: 2
Fore
SplineSet
128 576 m 1,0,-1
 256 576 l 1,1,-1
 256 448 l 1,2,-1
 128 448 l 1,3,-1
 128 576 l 1,0,-1
0 384 m 1,4,-1
 384 384 l 1,5,-1
 384 192 l 1,6,-1
 320 192 l 1,7,-1
 320 128 l 1,8,-1
 256 128 l 1,9,-1
 256 64 l 1,10,-1
 192 64 l 1,11,-1
 192 0 l 1,12,-1
 384 0 l 1,13,-1
 384 -128 l 1,14,-1
 0 -128 l 1,15,-1
 0 64 l 1,16,-1
 64 64 l 1,17,-1
 64 128 l 1,18,-1
 128 128 l 1,19,-1
 128 192 l 1,20,-1
 192 192 l 1,21,-1
 192 256 l 1,22,-1
 0 256 l 1,23,-1
 0 384 l 1,4,-1
EndSplineSet
Validated: 1
EndChar

StartChar: uni01D3
Encoding: 467 467 223
Width: 448
GlyphClass: 1
Flags: W
LayerCount: 2
Fore
SplineSet
64 832 m 1,0,-1
 128 832 l 1,1,-1
 128 768 l 1,2,-1
 256 768 l 1,3,-1
 256 832 l 1,4,-1
 320 832 l 1,5,-1
 320 704 l 1,6,-1
 256 704 l 1,7,-1
 256 640 l 1,8,-1
 128 640 l 1,9,-1
 128 704 l 1,10,-1
 64 704 l 1,11,-1
 64 832 l 1,0,-1
0 576 m 1,12,-1
 128 576 l 1,13,-1
 128 0 l 1,14,-1
 256 0 l 1,15,-1
 256 576 l 1,16,-1
 384 576 l 1,17,-1
 384 -64 l 1,18,-1
 320 -64 l 1,19,-1
 320 -128 l 1,20,-1
 64 -128 l 1,21,-1
 64 -64 l 1,22,-1
 0 -64 l 1,23,-1
 0 576 l 1,12,-1
EndSplineSet
Validated: 1
EndChar

StartChar: uni01D4
Encoding: 468 468 224
Width: 448
GlyphClass: 1
Flags: W
LayerCount: 2
Fore
SplineSet
64 640 m 1,0,-1
 128 640 l 1,1,-1
 128 576 l 1,2,-1
 256 576 l 1,3,-1
 256 640 l 1,4,-1
 320 640 l 1,5,-1
 320 512 l 1,6,-1
 256 512 l 1,7,-1
 256 448 l 1,8,-1
 128 448 l 1,9,-1
 128 512 l 1,10,-1
 64 512 l 1,11,-1
 64 640 l 1,0,-1
0 384 m 1,12,-1
 128 384 l 1,13,-1
 128 0 l 1,14,-1
 256 0 l 1,15,-1
 256 384 l 1,16,-1
 384 384 l 1,17,-1
 384 -64 l 1,18,-1
 320 -64 l 1,19,-1
 320 -128 l 1,20,-1
 64 -128 l 1,21,-1
 64 -64 l 1,22,-1
 0 -64 l 1,23,-1
 0 384 l 1,12,-1
EndSplineSet
Validated: 1
EndChar

StartChar: uni03BC
Encoding: 956 956 225
Width: 448
GlyphClass: 1
Flags: W
LayerCount: 2
Fore
SplineSet
0 384 m 1,0,-1
 128 384 l 1,1,-1
 128 0 l 1,2,-1
 256 0 l 1,3,-1
 256 384 l 1,4,-1
 384 384 l 1,5,-1
 384 -64 l 1,6,-1
 320 -64 l 1,7,-1
 320 -128 l 1,8,-1
 128 -128 l 1,9,-1
 128 -256 l 1,10,-1
 0 -256 l 1,11,-1
 0 384 l 1,0,-1
EndSplineSet
Validated: 1
EndChar

StartChar: radical
Encoding: 8730 8730 226
Width: 704
Flags: WO
LayerCount: 2
Fore
SplineSet
512 448 m 1,0,-1
 512 320 l 1,1,-1
 448 320 l 1,2,-1
 448 192 l 1,3,-1
 384 192 l 1,4,-1
 384 64 l 1,5,-1
 320 64 l 1,6,-1
 320 -64 l 1,7,-1
 256 -64 l 1,8,-1
 256 -128 l 1,9,-1
 128 -128 l 1,10,-1
 128 -64 l 1,11,-1
 64 -64 l 1,12,-1
 64 64 l 25,13,-1
 0 64 l 25,14,-1
 0 192 l 1,15,-1
 128 192 l 25,16,-1
 128 64 l 1,17,-1
 256 64 l 1,18,-1
 256 192 l 1,19,-1
 320 192 l 1,20,-1
 320 320 l 1,21,-1
 384 320 l 1,22,-1
 384 448 l 1,23,-1
 448 448 l 25,24,-1
 448 576 l 25,25,-1
 704 576 l 25,26,-1
 704 448 l 25,27,-1
 512 448 l 1,0,-1
EndSplineSet
EndChar
